<svg aria-hidden="true" style="position: absolute; width: 0; height: 0; overflow: hidden;" version="1.1" xmlns="http://www.w3.org/2000/svg" xmlns:xlink="http://www.w3.org/1999/xlink">
<defs>
<symbol id="icon-cancel" viewBox="0 0 32 32">
<path d="M17.768 16l13.866-13.866c0.488-0.488 0.488-1.28 0-1.768s-1.28-0.488-1.768 0l-13.866 13.866-13.866-13.866c-0.488-0.488-1.28-0.488-1.768 0s-0.488 1.28 0 1.768l13.866 13.866-13.866 13.866c-0.488 0.488-0.488 1.28 0 1.768 0.244 0.244 0.564 0.366 0.884 0.366s0.64-0.122 0.884-0.366l13.866-13.866 13.866 13.866c0.244 0.244 0.564 0.366 0.884 0.366s0.64-0.122 0.884-0.366c0.488-0.488 0.488-1.28 0-1.768l-13.866-13.866z"></path>
</symbol>
<symbol id="icon-menu" viewBox="0 0 32 32">
<path d="M30.75 14.75h-29.5c-0.69 0-1.25 0.56-1.25 1.25s0.56 1.25 1.25 1.25h29.5c0.69 0 1.25-0.56 1.25-1.25s-0.56-1.25-1.25-1.25z"></path>
<path d="M30.75 4.75h-29.5c-0.69 0-1.25 0.56-1.25 1.25s0.56 1.25 1.25 1.25h29.5c0.69 0 1.25-0.56 1.25-1.25s-0.56-1.25-1.25-1.25z"></path>
<path d="M30.75 24.75h-29.5c-0.69 0-1.25 0.56-1.25 1.25s0.56 1.25 1.25 1.25h29.5c0.69 0 1.25-0.56 1.25-1.25s-0.56-1.25-1.25-1.25z"></path>
</symbol>
<symbol id="icon-computer" viewBox="0 0 25 32">
<path d="M8.040 27.794c-2.17 0-4.339 0-6.509 0-0.469-0.141-0.776-0.444-0.917-0.917 0-0.457 0-0.917 0-1.374 0.242 0 0.493 0 0.76 0 0-0.109 0-0.202 0-0.295 0-1.010-0.008-2.016 0-3.026 0-0.57 0.287-0.99 0.784-1.135 0.166-0.049 0.343-0.061 0.521-0.069 0.44-0.008 0.881 0 1.349 0 0-1.398 0-2.768 0-4.154 0.109 0 0.194 0 0.283 0 0.396 0 0.796 0.008 1.192-0.008 0.061 0 0.158-0.036 0.182-0.085 0.109-0.214 0.202-0.432 0.311-0.679-0.909 0-1.81 0-2.731 0 0-0.634 0-1.253 0-1.883-0.493 0-0.97 0-1.442 0-0.404 0-0.752-0.145-0.982-0.481-0.093-0.129-0.145-0.283-0.214-0.42 0-2.671 0-5.345 0-8.016 0.141-0.469 0.444-0.776 0.917-0.917 1.406 0 2.812 0 4.214 0 0.57 0.19 0.917 0.55 0.917 1.184 0 2.485 0 4.978 0 7.467 0 0.695-0.477 1.172-1.18 1.192-0.408 0.008-0.824 0-1.232 0-0.073 0-0.145 0.008-0.218 0.012 0 0.38 0 0.731 0 1.111 0.097 0 0.178 0 0.263 0 0.562 0 1.131-0.008 1.693 0 0.457 0.008 0.917 0.036 1.325-0.226 0.032-0.020 0.073-0.032 0.109-0.036 0.154-0.020 0.226-0.117 0.287-0.251 0.57-1.232 1.875-1.931 3.212-1.709 0.263 0.044 0.513 0.129 0.772 0.19 0.020-0.020 0.036-0.036 0.049-0.057 0.836-1.123 2.101-1.572 3.366-1.192 1.349 0.408 2.158 1.661 2.149 2.853 0 0.069 0.081 0.158 0.145 0.202 0.275 0.178 0.558 0.335 0.836 0.509 0.049 0.032 0.105 0.085 0.154 0.093 0.493 0.008 0.99 0.008 1.491 0.008 0-1.273 0-2.525 0-3.794-0.63 0-1.24 0-1.859 0 0-0.259 0-0.489 0-0.743 0.242 0 0.477 0 0.719 0 0-0.263 0-0.501 0-0.764-0.36 0-0.703 0-1.046 0-0.731-0.008-1.204-0.469-1.204-1.204 0-1.216 0-2.424 0-3.64 0-0.121 0.012-0.242 0.036-0.36 0.117-0.465 0.453-0.703 0.881-0.844 1.907 0 3.818 0 5.725 0 0.469 0.141 0.776 0.444 0.917 0.917 0 1.406 0 2.812 0 4.214-0.311 0.743-0.582 0.921-1.41 0.921-0.283 0-0.558 0-0.836 0 0 0.271 0 0.513 0 0.772 0.25 0 0.489 0 0.727 0 0 0.259 0 0.489 0 0.743-0.622 0-1.24 0-1.883 0 0 1.523 0 3.026 0 4.545-0.598 0-1.172 0-1.754 0 0.081 0.263 0.158 0.501 0.238 0.764 0.752 0 1.503 0 2.279 0 0 1.261 0 2.501 0 3.758 0.897 0 1.774 0 2.651 0 0 2.275 0 4.554 0 6.824-2.016 0-4.032 0-6.049 0 0-2.267 0-4.529 0-6.82 0.893 0 1.762 0 2.626 0 0-1.022 0-2.016 0-3.014-0.513 0-1.010 0-1.511 0-0.020 0.061-0.036 0.121-0.057 0.178-0.283 1.228-1.297 2.077-2.562 2.085-2.804 0.020-5.604 0.012-8.408 0-1.216-0.008-2.242-0.873-2.517-2.061-0.044-0.19-0.061-0.384-0.093-0.574-0.25 0-0.481 0-0.719 0 0 1.131 0 2.25 0 3.39 0.093 0 0.178 0 0.259 0 0.634 0 1.265-0.008 1.899 0 0.764 0.008 1.22 0.469 1.228 1.232 0 1.014 0 2.028 0 3.050 0 0.081 0 0.166 0 0.275 0.271 0 0.513 0 0.76 0 0 0.42 0.012 0.808-0.008 1.196-0.012 0.311-0.141 0.586-0.384 0.776-0.145 0.117-0.331 0.19-0.501 0.287zM12.012 14.36c-0.133-0.081-0.242-0.145-0.356-0.214-1.321-0.788-2.937-0.17-3.386 1.301-0.057 0.17-0.129 0.238-0.307 0.259-1.119 0.129-1.863 1.18-1.624 2.279 0.19 0.873 0.933 1.471 1.871 1.483 1.083 0.012 2.17 0.008 3.253 0 1.709 0 3.422 0.012 5.131-0.012 0.941-0.012 1.721-0.772 1.802-1.693 0.085-0.958-0.545-1.822-1.479-2.028-0.158-0.036-0.323-0.061-0.481-0.093 0.166-1.523-0.331-2.485-1.471-2.865-0.493-0.166-0.99-0.166-1.483 0.012-0.752 0.271-1.196 0.824-1.471 1.572zM2.137 25.503c1.766 0 3.515 0 5.273 0 0.008-0.044 0.020-0.073 0.020-0.105 0-1.075 0.008-2.149 0-3.232 0-0.299-0.154-0.428-0.469-0.428-1.446 0-2.901 0-4.351 0-0.356 0-0.477 0.129-0.477 0.489 0 1.022 0 2.049 0 3.067-0.008 0.069 0.004 0.137 0.004 0.21zM17.261 8.121c0.392 0 0.76 0 1.119 0 1.564 0 3.127 0 4.699 0 0.121 0 0.242 0.032 0.242-0.17-0.008-0.82 0-1.632-0.008-2.449 0-0.271-0.141-0.396-0.42-0.404-0.206-0.008-0.408 0-0.618 0-1.503 0-3.006 0-4.517 0-0.343 0-0.493 0.109-0.501 0.396 0 0.861 0.004 1.721 0.004 2.626zM5.903 10.376c0-1.261 0-2.501 0-3.754-1.511 0-3.014 0-4.517 0 0 1.261 0 2.501 0 3.754 1.503 0 3.002 0 4.517 0zM5.915 11.172c-1.527 0-3.026 0-4.533 0 0 0.634-0.008 1.253 0.008 1.871 0.008 0.242 0.154 0.372 0.404 0.372 1.24 0.008 2.485 0.008 3.725 0 0.238 0 0.392-0.129 0.396-0.356 0.004-0.63 0-1.253 0-1.887zM23.309 21.758c-1.515 0-3.014 0-4.521 0 0 0.752 0 1.483 0 2.23 1.515 0 3.014 0 4.521 0 0-0.743 0-1.479 0-2.23zM18.788 24.776c-0.008 0.073-0.012 0.141-0.012 0.206 0 0.606 0.008 1.204-0.008 1.81-0.008 0.19 0.057 0.242 0.242 0.242 1.358-0.008 2.719-0.008 4.077-0.008 0.073 0 0.145-0.008 0.206-0.012 0-0.764 0-1.503 0-2.242-1.503 0.004-2.994 0.004-4.505 0.004zM1.394 26.291c-0.069 0.582 0.036 0.752 0.634 0.752 1.859-0.020 3.709-0.008 5.568-0.008 0.085 0 0.17 0 0.25-0.008 0.202-0.024 0.319-0.145 0.331-0.347 0.012-0.129 0-0.259 0-0.392-2.271 0.004-4.525 0.004-6.784 0.004zM23.317 8.885c-2.036 0-4.032 0-6.032 0-0.093 0.582 0.044 0.743 0.598 0.752 1.010 0 2.012 0 3.018 0 0.642 0 1.285 0 1.919 0 0.368 0 0.489-0.129 0.493-0.501 0.008-0.073 0.004-0.154 0.004-0.251zM1.374 5.83c1.523 0 3.026 0 4.541 0 0-0.129 0.008-0.242 0-0.356-0.020-0.242-0.154-0.38-0.396-0.38-1.253-0.008-2.505-0.008-3.758 0-0.238 0-0.368 0.133-0.384 0.372-0.008 0.113-0.004 0.23-0.004 0.364zM19.547 11.139c0.513 0 0.994 0 1.491 0 0-0.251 0-0.489 0-0.731-0.501 0-0.994 0-1.491 0 0 0.242 0 0.477 0 0.731z"></path>
<path d="M1.535 4.331c-0.469 0.141-0.776 0.444-0.917 0.917 0-0.307 0-0.61 0-0.917 0.303 0 0.61 0 0.917 0z"></path>
<path d="M24.073 5.248c-0.141-0.469-0.444-0.776-0.917-0.917 0.307 0 0.61 0 0.917 0 0 0.307 0 0.614 0 0.917z"></path>
<path d="M0.618 26.881c0.141 0.469 0.444 0.776 0.917 0.917-0.307 0-0.61 0-0.917 0 0-0.307 0-0.614 0-0.917z"></path>
<path d="M20.901 9.636c-1.010 0-2.012 0-3.018 0-0.549 0-0.691-0.166-0.598-0.752 1.996 0 4.004 0 6.032 0 0 0.097 0 0.17 0 0.251-0.008 0.372-0.129 0.493-0.493 0.501z"></path>
<path d="M21.038 10.408c0 0.242 0 0.481 0 0.731-0.493 0-0.978 0-1.491 0 0-0.251 0-0.489 0-0.731z"></path>
<path d="M2.901 11.911c0.501 0 0.982 0 1.483 0 0 0.242 0 0.477 0 0.731-0.493 0-0.982 0-1.483 0 0-0.238 0-0.469 0-0.731z"></path>
<path d="M22.554 23.244c-0.501 0-0.982 0-1.483 0 0-0.242 0-0.481 0-0.739 0.493 0 0.982 0 1.483 0 0 0.25 0 0.481 0 0.739z"></path>
<path d="M20.279 22.509c0 0.25 0 0.489 0 0.731-0.242 0-0.477 0-0.719 0 0-0.238 0-0.477 0-0.731 0.226 0 0.457 0 0.719 0z"></path>
<path d="M19.547 25.535c0.501 0 0.982 0 1.483 0 0 0.242 0 0.481 0 0.731-0.493 0-0.982 0-1.483 0 0-0.242 0-0.477 0-0.731z"></path>
<path d="M22.554 26.267c-0.242 0-0.477 0-0.743 0 0-0.214-0.008-0.432 0.008-0.646 0-0.036 0.073-0.093 0.117-0.093 0.202-0.012 0.404-0.008 0.622-0.008-0.004 0.259-0.004 0.493-0.004 0.747z"></path>
</symbol>
<symbol id="icon-customer-service" viewBox="0 0 25 32">
<path d="M8.121 27.754c-0.853-0.129-1.467-0.646-2.024-1.253-0.242-0.267-0.517-0.517-0.772-0.772-1.248-1.248-2.497-2.497-3.745-3.745-1.164-1.164-1.164-2.752-0.008-3.911 0.521-0.529 1.050-1.050 1.612-1.612 0.917 0.937 1.838 1.863 2.776 2.804-0.315 0.323-0.622 0.626-0.929 0.929-0.182 0.182-0.372 0.36-0.545 0.545-0.154 0.158-0.178 0.372-0.036 0.517 0.42 0.432 0.857 0.853 1.309 1.297 0.061-0.166 0.109-0.315 0.166-0.461 0.36-0.962 1.046-1.543 2.057-1.733 0.76-0.145 1.519-0.279 2.287-0.412 0.061-0.012 0.117-0.032 0.238-0.061-0.069-0.105-0.097-0.202-0.17-0.25-0.857-0.566-1.41-1.337-1.669-2.335-0.020-0.061-0.093-0.133-0.158-0.158-0.711-0.267-1.071-0.772-1.071-1.527 0-0.832 0-1.673 0-2.505 0.008-2.537 1.826-4.594 4.335-4.913 2.671-0.339 5.2 1.709 5.426 4.384 0.020 0.242 0.032 0.485 0.032 0.731 0 1.382 0 2.768 0 4.149 0 0.784-0.469 1.277-1.24 1.248-0.432-0.020-0.768 0.057-1.034 0.424-0.154 0.206-0.408 0.335-0.614 0.505-0.069 0.057-0.105 0.141-0.182 0.255 0.473 0.093 0.893 0.166 1.309 0.242 0.469 0.085 0.941 0.158 1.41 0.267 0.889 0.214 1.519 0.76 1.838 1.612 0.323 0.869 0.598 1.754 0.889 2.634 0.008 0.020 0 0.044 0 0.093-2.663 0-5.321 0-8.040 0 0.218 0.202 0.4 0.372 0.602 0.554-0.768 0.687-1.483 1.345-2.222 1.984-0.335 0.291-0.768 0.384-1.188 0.481-0.214-0.008-0.424-0.008-0.638-0.008zM9.345 22.513c0.444 0.444 0.869 0.889 1.313 1.313 0.085 0.085 0.23 0.145 0.351 0.145 2.44 0.008 4.877 0.008 7.317 0.008 0.081 0 0.158-0.008 0.263-0.012-0.19-0.566-0.352-1.103-0.545-1.624-0.255-0.699-0.76-1.115-1.495-1.253-0.796-0.145-1.6-0.287-2.396-0.436-0.141-0.024-0.226 0.008-0.323 0.105-0.444 0.448-0.889 0.893-1.337 1.337-0.049 0.049-0.109 0.097-0.17 0.154-0.505-0.509-0.998-1.010-1.495-1.495-0.069-0.069-0.202-0.117-0.291-0.097-0.816 0.133-1.628 0.279-2.444 0.436-0.723 0.141-1.216 0.562-1.471 1.253-0.081 0.218-0.166 0.444-0.218 0.671-0.020 0.081 0.020 0.206 0.073 0.267 0.182 0.206 0.384 0.388 0.578 0.586 0.303 0.303 0.444 0.311 0.768 0.020 0.501-0.453 0.998-0.909 1.523-1.378zM16.428 14.364c0-0.65 0.073-1.289-0.012-1.903-0.238-1.624-1.176-2.756-2.719-3.305-1.552-0.545-2.97-0.218-4.19 0.881-1.297 1.176-1.43 2.707-1.289 4.331 0.117-0.044 0.226-0.085 0.339-0.133 0.008-0.133 0.012-0.267 0.020-0.424 0.731 0.024 1.422-0.069 2.081-0.364 0.659-0.299 1.176-0.772 1.673-1.301 0.493 0.529 1.010 1.002 1.673 1.301s1.362 0.384 2.093 0.372c0 0.158 0 0.287 0 0.42 0.125 0.044 0.234 0.089 0.331 0.125zM12.343 17.951c0.109 0 0.19 0 0.275 0 0.707 0 1.41-0.008 2.121 0.008 0.166 0 0.255-0.049 0.303-0.194 0.085-0.263 0.226-0.517 0.242-0.78 0.049-0.772 0.049-1.543 0.057-2.323 0-0.044-0.105-0.109-0.17-0.121-0.291-0.069-0.598-0.109-0.889-0.19-0.735-0.206-1.374-0.602-1.891-1.083-0.493 0.303-0.937 0.638-1.442 0.865s-1.063 0.335-1.628 0.497c0 0.602-0.024 1.261 0.008 1.911 0.057 1.192 0.622 2.093 1.697 2.614 1.046 0.509 2.073 0.4 3.046-0.242 0.069-0.049 0.133-0.105 0.194-0.158-0.008-0.020-0.020-0.032-0.024-0.049-0.626 0-1.253 0-1.891 0-0.008-0.255-0.008-0.485-0.008-0.756zM2.21 18.525c-0.941 0.796-1.002 2.020-0.129 2.901 0.747 0.756 1.503 1.503 2.259 2.259 0.917 0.917 1.83 1.842 2.756 2.756 0.84 0.828 2.166 0.735 2.848-0.17-0.566-0.578-1.131-1.151-1.705-1.729-0.554 0.432-1.152 0.424-1.604-0.024-0.893-0.889-1.79-1.778-2.671-2.683-0.141-0.145-0.242-0.347-0.311-0.541-0.129-0.408 0.024-0.76 0.275-1.059zM8.865 23.968c0.59 0.59 1.156 1.156 1.733 1.733 0.129-0.121 0.279-0.267 0.412-0.388-0.578-0.586-1.143-1.151-1.721-1.729-0.145 0.129-0.303 0.271-0.424 0.384zM4.501 19.648c0.117-0.117 0.242-0.242 0.347-0.347-0.578-0.578-1.143-1.151-1.681-1.685-0.117 0.105-0.255 0.218-0.376 0.323zM13.463 20.044c-0.76 0.226-1.467 0.214-2.154 0.032 0.351 0.36 0.711 0.711 1.050 1.059 0.335-0.331 0.695-0.683 1.103-1.091zM15.814 17.927c0.598 0.093 0.747-0.121 0.634-0.917-0.154 0.081-0.352 0.117-0.42 0.23-0.117 0.206-0.145 0.457-0.214 0.687zM8.57 16.327c0-0.23 0-0.432 0-0.638 0-0.202 0-0.4 0-0.61-0.448 0.178-0.521 0.966 0 1.248zM16.121 15.087c0 0.412 0 0.816 0 1.228 0.497-0.279 0.432-1.038 0-1.228z"></path>
<path d="M23.127 4.392c0.057 0.024 0.105 0.057 0.158 0.081 0.436 0.19 0.707 0.509 0.719 0.99 0.020 1.038 0.020 2.081 0 3.119-0.008 0.574-0.42 0.998-0.99 1.071-0.069 0.008-0.141 0.024-0.206 0.012-0.683-0.105-1.24 0.141-1.794 0.517-0.832 0.574-1.705 1.083-2.562 1.616-0.057 0.036-0.117 0.069-0.218 0.129 0.129-0.768 0.255-1.495 0.384-2.259-0.287 0-0.562 0-0.828 0-0.865 0-1.309-0.444-1.309-1.301 0-0.853 0.020-1.705-0.008-2.554-0.024-0.699 0.226-1.192 0.913-1.418 1.911-0.004 3.826-0.004 5.741-0.004zM19.265 10.368c0.044-0.008 0.061-0.008 0.073-0.012 0.457-0.287 0.937-0.533 1.37-0.865 0.614-0.469 1.277-0.675 2.049-0.59 0.376 0.044 0.505-0.117 0.505-0.493 0-0.905 0-1.806 0-2.711 0-0.444-0.105-0.545-0.554-0.545-1.503 0-3.010 0-4.513 0-0.19 0-0.376-0.008-0.574 0-0.25 0.012-0.388 0.141-0.388 0.384-0.008 0.998-0.008 1.988 0 2.986 0 0.255 0.145 0.384 0.4 0.388 0.073 0 0.154 0 0.226 0 0.533 0 1.075 0 1.636 0-0.073 0.505-0.149 0.97-0.23 1.459z"></path>
<path d="M2.877 13.701c0.327-0.194 0.646-0.384 0.978-0.586 0.133 0.218 0.255 0.424 0.388 0.646-0.743 0.444-1.459 0.877-2.202 1.325-0.444-0.735-0.877-1.459-1.321-2.202 0.214-0.129 0.412-0.251 0.646-0.388 0.23 0.384 0.461 0.76 0.707 1.164 0.917-3.455 2.962-5.931 6.23-7.317 2.323-0.99 4.715-1.059 7.16-0.347-0.073 0.242-0.145 0.473-0.218 0.707-3.438-0.917-6.545-0.327-9.281 1.951-1.523 1.261-3.042 3.794-3.087 5.046z"></path>
<path d="M21.588 12.941c-0.214 0.351-0.42 0.695-0.646 1.063-0.214-0.129-0.42-0.242-0.646-0.384 0.444-0.735 0.877-1.467 1.321-2.21 0.743 0.444 1.467 0.881 2.202 1.325-0.133 0.226-0.263 0.432-0.388 0.646-0.364-0.218-0.707-0.42-1.083-0.646 1.075 3.644 0.473 6.954-1.818 9.988-0.214-0.17-0.396-0.323-0.598-0.481 1.337-1.697 2.073-3.612 2.17-5.754 0.073-1.273-0.178-2.873-0.513-3.547z"></path>
<path d="M8.57 16.327c-0.521-0.287-0.448-1.063 0-1.248 0 0.214 0 0.408 0 0.61 0 0.154 0 0.372 0 0.638z"></path>
<path d="M16.121 16.315c0-0.408 0-0.808 0-1.228z"></path>
<path d="M22.493 5.915c0 0.242 0 0.481 0 0.723-1.503 0-2.994 0-4.501 0 0-0.25 0-0.481 0-0.723 1.499 0 2.982 0 4.501 0z"></path>
<path d="M20.986 7.422c0 0.25 0 0.481 0 0.723-1.002 0-1.988 0-2.994 0 0-0.25 0-0.481 0-0.723 0.998 0 1.984 0 2.994 0z"></path>
<path d="M21.766 8.145c0-0.242 0-0.473 0-0.723 0.238 0 0.469 0 0.719 0 0 0.23 0 0.469 0 0.723-0.234 0-0.465 0-0.719 0z"></path>
</symbol>
<symbol id="icon-customer-support" viewBox="0 0 25 32">
<path d="M4.788 27.879c-0.259-0.061-0.525-0.109-0.776-0.186-2.109-0.606-3.519-2.614-3.39-4.824 0.129-2.194 1.762-4.016 3.919-4.38 0.525-0.085 1.042-0.093 1.564-0.008 0.085 0.012 0.214-0.024 0.279-0.085 2.796-2.804 5.6-5.608 8.404-8.412 0.057-0.057 0.093-0.174 0.081-0.259-0.388-2.638 1.244-4.941 3.863-5.442 0.109-0.020 0.222-0.044 0.331-0.069 0.307 0 0.618 0 0.925 0 0.174 0.036 0.343 0.069 0.513 0.105 0.19 0.044 0.384 0.081 0.457 0.303 0.069 0.226-0.057 0.376-0.202 0.525-0.739 0.731-1.467 1.467-2.206 2.198-0.105 0.097-0.125 0.186-0.081 0.319 0.186 0.529 0.364 1.059 0.537 1.596 0.044 0.137 0.109 0.198 0.238 0.238 0.517 0.166 1.042 0.331 1.552 0.517 0.166 0.061 0.259 0.032 0.376-0.093 0.739-0.752 1.487-1.491 2.23-2.238 0.125-0.125 0.259-0.214 0.448-0.154 0.186 0.061 0.259 0.202 0.295 0.376 0.024 0.129 0.061 0.255 0.093 0.376 0 0.461 0 0.925 0 1.386-0.020 0.049-0.036 0.097-0.049 0.149-0.448 2.489-2.836 4.198-5.329 3.806-0.19-0.032-0.307 0.008-0.436 0.141-0.461 0.473-0.929 0.941-1.406 1.406-0.154 0.154-0.327 0.295-0.513 0.461 0.259 0.246 0.469 0.449 0.671 0.655 0.501 0.501 0.501 0.501 0.057 1.042-0.162 0.198-0.154 0.436 0.020 0.602 0.162 0.162 0.396 0.174 0.586 0.032 0.044-0.032 0.081-0.073 0.117-0.109 0.315-0.307 0.473-0.307 0.788 0.008 1.511 1.511 3.018 3.006 4.517 4.529 0.279 0.283 0.493 0.622 0.695 0.966 0.129 0.222 0.186 0.481 0.271 0.727 0 0.412 0 0.832 0 1.244-0.020 0.049-0.036 0.097-0.057 0.149-0.327 1.147-1.055 1.911-2.186 2.279-0.129 0.044-0.259 0.073-0.396 0.109-0.339 0-0.679 0-1.018 0-0.020-0.012-0.036-0.032-0.057-0.036-0.715-0.129-1.301-0.485-1.806-0.998-1.479-1.491-2.97-2.97-4.457-4.461-0.049-0.049-0.097-0.097-0.141-0.149-0.149-0.174-0.149-0.372 0-0.541 0.081-0.093 0.178-0.174 0.246-0.271 0.125-0.166 0.093-0.408-0.049-0.549-0.149-0.149-0.396-0.174-0.574-0.049-0.057 0.036-0.105 0.093-0.154 0.141-0.303 0.295-0.461 0.295-0.76 0-0.267-0.267-0.525-0.537-0.796-0.82-0.646 0.646-1.253 1.269-1.875 1.875-0.149 0.141-0.198 0.279-0.166 0.481 0.351 2.38-1.184 4.663-3.519 5.236-0.198 0.049-0.4 0.093-0.598 0.137-0.339 0.016-0.711 0.016-1.079 0.016zM23.471 8.8c-0.032-0.024-0.069-0.057-0.097-0.081-0.036 0.073-0.061 0.166-0.117 0.226-0.59 0.598-1.188 1.188-1.774 1.786-0.174 0.174-0.343 0.226-0.578 0.141-0.719-0.246-1.442-0.493-2.162-0.719-0.214-0.069-0.331-0.198-0.4-0.4-0.226-0.707-0.461-1.418-0.707-2.121-0.093-0.259-0.036-0.449 0.162-0.642 0.602-0.586 1.188-1.184 1.782-1.774 0.057-0.057 0.105-0.109 0.154-0.174-0.012-0.020-0.020-0.036-0.032-0.057-0.295 0.032-0.598 0.036-0.893 0.093-2.242 0.461-3.56 2.477-3.107 4.727 0.044 0.214 0.012 0.384-0.149 0.541-2.945 2.945-5.883 5.883-8.824 8.824-0.149 0.149-0.307 0.19-0.505 0.149-0.21-0.036-0.424-0.081-0.634-0.097-2.489-0.21-4.598 2.057-4.21 4.529 0.356 2.25 2.428 3.733 4.659 3.333 2.194-0.388 3.624-2.545 3.147-4.756-0.049-0.238-0.008-0.424 0.174-0.602 2.921-2.913 5.842-5.83 8.756-8.752 0.178-0.178 0.352-0.226 0.598-0.174 2.057 0.444 4.061-0.764 4.626-2.78 0.109-0.404 0.166-0.812 0.133-1.224zM16.008 16.25c-1.123 1.127-2.242 2.25-3.354 3.37 0.178 0.186 0.376 0.388 0.574 0.586 0.659-0.364 1.196-0.339 1.632 0.073 0.448 0.424 0.493 0.941 0.141 1.653 1.523 1.523 3.042 3.042 4.521 4.521 1.103-1.095 2.226-2.218 3.329-3.313-1.503-1.499-3.018-3.014-4.541-4.529-0.574 0.356-1.164 0.352-1.584-0.085-0.178-0.186-0.307-0.444-0.376-0.691-0.097-0.356 0.032-0.695 0.246-0.986-0.206-0.21-0.404-0.412-0.59-0.598zM20.311 26.945c0.667 0.331 1.717 0.129 2.392-0.481 0.703-0.634 0.962-1.677 0.634-2.549z"></path>
<path d="M2.703 4.214c0.849 0.493 1.693 0.994 2.558 1.467 0.303 0.166 0.501 0.372 0.537 0.715 0.085 0.836 0.517 1.455 1.127 2.028 1.37 1.301 2.679 2.655 4.012 3.988 0.061 0.061 0.129 0.109 0.186 0.154-0.202 0.198-0.388 0.372-0.586 0.554-0.020-0.020-0.081-0.073-0.141-0.129-1.616-1.608-3.224-3.224-4.832-4.836-0.117-0.117-0.202-0.283-0.259-0.449-0.109-0.372-0.19-0.747-0.291-1.115-0.020-0.069-0.057-0.154-0.109-0.186-0.752-0.436-1.503-0.865-2.238-1.281-0.396 0.396-0.776 0.772-1.172 1.164 0.42 0.731 0.848 1.487 1.281 2.238 0.032 0.057 0.117 0.093 0.186 0.117 0.166 0.049 0.339 0.109 0.513 0.129 0.63 0.073 1.083 0.412 1.523 0.865 1.434 1.471 2.897 2.913 4.356 4.368 0.061 0.061 0.137 0.105 0.214 0.166-0.222 0.202-0.408 0.372-0.646 0.59-0.024-0.044-0.069-0.137-0.129-0.198-1.56-1.564-3.123-3.131-4.691-4.683-0.097-0.097-0.234-0.174-0.372-0.21-0.388-0.117-0.796-0.19-1.184-0.315-0.141-0.044-0.295-0.154-0.364-0.279-0.513-0.869-1.006-1.745-1.511-2.618-0.117-0.202-0.109-0.396 0.061-0.566 0.505-0.505 1.010-1.010 1.523-1.515 0.061-0.057 0.137-0.097 0.202-0.149 0.093-0.012 0.174-0.012 0.246-0.012z"></path>
<path d="M21.604 27.879c0.129-0.036 0.267-0.069 0.396-0.109 1.139-0.372 1.867-1.135 2.186-2.279 0.012-0.049 0.036-0.097 0.057-0.149 0 0.844 0 1.693 0 2.537-0.885 0-1.758 0-2.638 0z"></path>
<path d="M5.317 20.784c0.376 0 0.752 0.008 1.135 0 0.202 0 0.343 0.081 0.449 0.259 0.364 0.618 0.731 1.224 1.103 1.842 0.109 0.186 0.109 0.356-0.008 0.537-0.372 0.602-0.731 1.212-1.091 1.822-0.109 0.19-0.267 0.279-0.493 0.279-0.719-0.008-1.446-0.008-2.17 0-0.214 0-0.364-0.081-0.473-0.267-0.364-0.618-0.731-1.232-1.103-1.842-0.109-0.186-0.109-0.352 0-0.537 0.372-0.602 0.731-1.208 1.091-1.818 0.117-0.198 0.271-0.279 0.493-0.279 0.36 0.012 0.711 0.004 1.067 0.004zM5.337 24.703c0 0.008 0 0.012 0 0.024 0.238 0 0.481-0.012 0.715 0.008 0.174 0.012 0.283-0.036 0.364-0.198 0.109-0.222 0.255-0.424 0.376-0.634 0.149-0.246 0.4-0.493 0.4-0.731 0-0.255-0.255-0.505-0.4-0.76-0.162-0.271-0.271-0.642-0.513-0.776-0.246-0.141-0.63-0.049-0.95-0.049-0.315 0-0.691-0.097-0.929 0.044-0.246 0.141-0.364 0.513-0.529 0.788-0.15 0.238-0.4 0.493-0.4 0.731 0.008 0.255 0.255 0.505 0.408 0.76 0.162 0.271 0.271 0.646 0.513 0.776 0.246 0.121 0.622 0.016 0.945 0.016z"></path>
<path d="M8.368 20.618c-0.166-0.162-0.343-0.331-0.505-0.485 2.885-2.885 5.766-5.766 8.65-8.65 0.162 0.162 0.331 0.331 0.501 0.501-2.885 2.873-5.77 5.758-8.646 8.634z"></path>
<path d="M16.549 20.642c0.154-0.149 0.331-0.319 0.505-0.485 1.293 1.293 2.594 2.594 3.907 3.907-0.174 0.162-0.356 0.327-0.525 0.473-1.269-1.281-2.574-2.59-3.887-3.895z"></path>
</symbol>
<symbol id="icon-facebook" viewBox="0 0 32 32">
<path d="M21.329 5.313h2.921v-5.088c-0.504-0.069-2.237-0.225-4.256-0.225-4.212 0-7.097 2.649-7.097 7.519v4.481h-4.648v5.688h4.648v14.312h5.699v-14.311h4.46l0.708-5.688h-5.169v-3.919c0.001-1.644 0.444-2.769 2.735-2.769z"></path>
</symbol>
<symbol id="icon-github-sign" viewBox="0 0 32 32">
<path d="M11.542 25.729c-0.223 0.041-0.32 0.146-0.292 0.312s0.153 0.222 0.375 0.167c0.223-0.055 0.32-0.153 0.292-0.292-0.028-0.153-0.153-0.215-0.375-0.187z"></path>
<path d="M10.354 25.896c-0.222 0-0.333 0.076-0.333 0.229 0 0.181 0.118 0.257 0.354 0.229 0.222 0 0.333-0.076 0.333-0.229 0-0.18-0.118-0.257-0.354-0.229z"></path>
<path d="M8.729 25.833c-0.055 0.153 0.035 0.257 0.271 0.313 0.208 0.083 0.34 0.041 0.396-0.125 0.042-0.153-0.049-0.263-0.271-0.333-0.208-0.055-0.34-0.007-0.396 0.146z"></path>
<path d="M30.24 1.76c-1.174-1.173-2.587-1.76-4.24-1.76h-20c-1.653 0-3.066 0.587-4.24 1.76s-1.76 2.587-1.76 4.24v20c0 1.653 0.587 3.066 1.76 4.239s2.587 1.76 4.24 1.76h4.667c0.305 0 0.535-0.011 0.687-0.031s0.305-0.111 0.458-0.271c0.153-0.16 0.229-0.392 0.229-0.698 0-0.041-0.004-0.514-0.011-1.417s-0.011-1.618-0.011-2.146l-0.479 0.083c-0.306 0.055-0.691 0.080-1.156 0.073s-0.948-0.055-1.448-0.146c-0.5-0.090-0.965-0.299-1.396-0.625s-0.736-0.754-0.917-1.281l-0.208-0.48c-0.139-0.319-0.357-0.673-0.656-1.062s-0.601-0.653-0.906-0.792l-0.146-0.104c-0.097-0.069-0.187-0.153-0.271-0.25s-0.146-0.195-0.187-0.292c-0.042-0.097-0.007-0.177 0.104-0.24s0.312-0.093 0.604-0.093l0.417 0.062c0.278 0.055 0.621 0.222 1.031 0.5s0.746 0.639 1.010 1.083c0.32 0.57 0.705 1.003 1.156 1.302s0.906 0.448 1.364 0.448 0.854-0.035 1.188-0.104c0.333-0.070 0.646-0.174 0.937-0.313 0.125-0.93 0.465-1.646 1.021-2.146-0.792-0.083-1.503-0.208-2.135-0.375s-1.285-0.437-1.958-0.813c-0.674-0.375-1.233-0.84-1.677-1.396s-0.809-1.285-1.094-2.188c-0.285-0.903-0.427-1.945-0.427-3.125 0-1.68 0.549-3.111 1.646-4.292-0.514-1.264-0.465-2.68 0.146-4.25 0.403-0.125 1-0.031 1.792 0.281s1.371 0.58 1.74 0.802c0.368 0.222 0.663 0.41 0.886 0.563 1.292-0.361 2.625-0.542 4-0.542s2.708 0.181 4 0.542l0.792-0.5c0.542-0.333 1.181-0.639 1.917-0.917s1.299-0.354 1.688-0.229c0.625 1.57 0.681 2.986 0.166 4.25 1.097 1.181 1.646 2.611 1.646 4.292 0 1.181-0.142 2.226-0.427 3.135s-0.652 1.639-1.104 2.188c-0.451 0.549-1.014 1.010-1.687 1.385s-1.326 0.646-1.959 0.812c-0.632 0.167-1.344 0.292-2.135 0.376 0.722 0.625 1.083 1.611 1.083 2.958v4.979c0 0.236 0.034 0.427 0.104 0.573s0.181 0.246 0.334 0.302c0.153 0.055 0.288 0.090 0.407 0.104s0.288 0.021 0.51 0.021h4.667c1.653 0 3.066-0.587 4.239-1.76s1.76-2.587 1.76-4.24v-19.999c0-1.653-0.587-3.066-1.76-4.24z"></path>
<path d="M6.333 23.292c-0.097 0.069-0.083 0.18 0.042 0.333 0.139 0.139 0.25 0.16 0.333 0.062 0.097-0.069 0.083-0.18-0.042-0.333-0.139-0.125-0.25-0.146-0.333-0.062z"></path>
<path d="M5.646 22.771c-0.042 0.097 0.007 0.181 0.146 0.25 0.111 0.070 0.202 0.056 0.271-0.041 0.042-0.097-0.007-0.181-0.146-0.25-0.139-0.042-0.229-0.028-0.271 0.042z"></path>
<path d="M6.979 24.104c-0.125 0.069-0.125 0.195 0 0.375s0.243 0.229 0.354 0.146c0.125-0.097 0.125-0.229 0-0.396-0.111-0.18-0.229-0.222-0.354-0.125z"></path>
<path d="M7.709 25.041c-0.125 0.111-0.098 0.243 0.083 0.396 0.166 0.166 0.305 0.187 0.417 0.062 0.111-0.111 0.083-0.243-0.083-0.395-0.166-0.166-0.305-0.187-0.417-0.063z"></path>
</symbol>
<symbol id="icon-left-arrow" viewBox="0 0 32 32">
<path d="M30.75 14.75h-26.472l4.385-4.364c0.489-0.487 0.491-1.278 0.004-1.768s-1.279-0.491-1.768-0.004l-6.532 6.5c0 0-0.001 0.001-0.001 0.001-0.488 0.487-0.49 1.281 0 1.77 0 0 0.001 0.001 0.001 0.001l6.532 6.5c0.489 0.487 1.281 0.485 1.768-0.004s0.485-1.281-0.004-1.768l-4.385-4.364h26.472c0.69 0 1.25-0.56 1.25-1.25s-0.56-1.25-1.25-1.25z"></path>
</symbol>
<symbol id="icon-network" viewBox="0 0 25 32">
<path d="M24.3 7.1c0 0.2-0.1 0.3-0.1 0.5-0.6 1.7-2.6 2.3-4 1.3-0.1 0-0.1-0.1-0.1-0.1-1.4 1.4-2.8 2.8-4.2 4.2 0.9 1.4 0.9 2.8 0 4.2 0 0 0.1 0.1 0.1 0.2 1 1 2 2 3 3 0.1 0.1 0.2 0.2 0.4 0.1 0.8-0.4 1.7-0.1 2.1 0.6s0.4 1.6-0.2 2.2c-0.6 0.6-1.5 0.6-2.2 0.2-0.7-0.5-0.9-1.4-0.5-2.1 0 0 0-0.1 0-0.1-1.1-1.1-2.2-2.2-3.3-3.3-0.4 0.3-1 0.6-1.5 0.7 0 0-0.1 0.1-0.1 0.2 0 0.9 0 1.8 0 2.7 0 0.4 0 0.9 0 1.3 0 0.1 0 0.2 0.2 0.2 1.3 0.3 2 1.4 2 2.6-0.1 1.4-1.1 2.4-2.2 2.5 0 0 0 0-0.1 0-0.2 0-0.4 0-0.6 0-0.3-0.1-0.7-0.2-1-0.4-1.1-0.8-1.6-1.8-1.5-2.8 0.2-1.1 0.9-2 2-2.2 0.1 0 0.2-0.1 0.2-0.2 0-0.4 0-0.7 0-1.1 0-1 0-1.9 0-2.9 0-0.1-0.1-0.2-0.1-0.2-0.6-0.1-1.1-0.3-1.5-0.6-1.9 1.9-3.7 3.7-5.5 5.5 0 0 0 0.1 0.1 0.1 0.5 1.2 0.1 2.6-1.1 3.3s-2.6 0.3-3.4-0.8c-0.2-0.3-0.3-0.8-0.5-1.1 0-0.2 0-0.5 0-0.7 0.1-0.4 0.2-0.8 0.5-1.2 0.9-1.2 2.5-1.4 3.7-0.5 0 0 0.1 0.1 0.1 0.1 1.8-1.8 3.6-3.6 5.4-5.4-0.5-0.6-0.7-1.3-0.7-2.1s0.2-1.5 0.7-2.1c-0.2-0.2-0.3-0.3-0.5-0.5-0.9-0.9-1.8-1.8-2.7-2.7-0.1-0.1-0.2-0.1-0.3 0-0.8 0.3-1.7 0.1-2.2-0.6-0.4-0.7-0.3-1.6 0.3-2.2s1.5-0.7 2.2-0.2c0.7 0.5 0.9 1.4 0.6 2.1 0 0 0 0.1 0 0.1 1.1 1.1 2.2 2.2 3.3 3.3 1.4-0.9 2.8-0.9 4.2 0 1.4-1.4 2.8-2.8 4.2-4.2-0.5-0.6-0.5-1.3-0.3-2 0.3-0.9 1-1.5 2-1.7 0 0 0.1 0 0.1 0 0.2 0 0.4 0 0.6 0 0 0 0.1 0 0.1 0 1 0.1 1.6 0.6 2 1.4 0.1 0.2 0.2 0.5 0.2 0.7 0.1 0.3 0.1 0.5 0.1 0.7v0zM13.1 17.6c1.4 0 2.6-1.2 2.6-2.6s-1.2-2.6-2.6-2.6c-1.4 0-2.6 1.2-2.6 2.6s1.2 2.6 2.6 2.6zM21.7 5.1c-1 0-1.7 0.8-1.7 1.7s0.8 1.7 1.7 1.7c1 0 1.7-0.8 1.7-1.7 0-1-0.7-1.7-1.7-1.7zM4.9 24.4c0-1-0.8-1.7-1.7-1.7s-1.7 0.8-1.7 1.7 0.8 1.7 1.7 1.7c0.9 0.1 1.7-0.7 1.7-1.7zM13.1 27c1 0 1.7-0.8 1.7-1.7 0-1-0.8-1.7-1.7-1.7s-1.7 0.8-1.7 1.7 0.7 1.7 1.7 1.7zM6.2 8.9c0.5 0 0.9-0.4 0.9-0.9s-0.4-0.9-0.9-0.9c-0.5 0-0.9 0.4-0.9 0.9s0.4 0.9 0.9 0.9zM20 22.7c0.5 0 0.9-0.4 0.9-0.9s-0.4-0.9-0.9-0.9c-0.5 0-0.9 0.4-0.9 0.9s0.4 0.9 0.9 0.9z"></path>
</symbol>
<symbol id="icon-ok" viewBox="0 0 32 32">
<path d="M30.883 13.013c-0.327-0.55-0.637-1.069-0.805-1.587-0.178-0.55-0.238-1.172-0.302-1.831-0.101-1.053-0.206-2.142-0.831-3.001-0.632-0.868-1.639-1.304-2.613-1.725-0.603-0.261-1.173-0.508-1.633-0.842-0.451-0.328-0.856-0.79-1.285-1.278-0.704-0.803-1.432-1.633-2.469-1.969-0.991-0.322-2.050-0.087-3.073 0.139-0.628 0.139-1.277 0.283-1.872 0.283s-1.245-0.144-1.872-0.283c-1.023-0.227-2.082-0.461-3.073-0.139-1.036 0.336-1.764 1.167-2.469 1.969-0.429 0.489-0.833 0.95-1.285 1.278-0.159 0.116-0.34 0.227-0.554 0.341-0.228 0.122-0.315 0.406-0.193 0.634s0.406 0.315 0.634 0.193c0.253-0.135 0.47-0.269 0.664-0.41 0.535-0.39 0.994-0.913 1.438-1.418 0.649-0.74 1.262-1.439 2.053-1.696 0.749-0.243 1.639-0.046 2.581 0.163 0.677 0.15 1.377 0.305 2.075 0.305s1.398-0.155 2.075-0.305c0.942-0.209 1.832-0.406 2.581-0.163 0.791 0.257 1.404 0.956 2.053 1.696 0.444 0.506 0.902 1.028 1.438 1.418 0.544 0.396 1.189 0.675 1.812 0.945 0.898 0.389 1.747 0.756 2.228 1.417 0.475 0.652 0.563 1.569 0.656 2.539 0.065 0.68 0.133 1.383 0.343 2.030 0.2 0.617 0.552 1.207 0.891 1.777 0.506 0.851 0.985 1.655 0.985 2.508s-0.479 1.657-0.985 2.508c-0.339 0.57-0.69 1.16-0.891 1.777-0.21 0.647-0.278 1.35-0.343 2.031-0.093 0.97-0.182 1.887-0.656 2.539-0.481 0.661-1.329 1.028-2.228 1.417-0.624 0.27-1.269 0.549-1.812 0.945-0.535 0.39-0.994 0.913-1.438 1.418-0.649 0.74-1.262 1.439-2.053 1.696-0.749 0.243-1.638 0.046-2.581-0.163-0.677-0.15-1.378-0.305-2.075-0.305s-1.398 0.155-2.075 0.305c-0.942 0.209-1.832 0.406-2.581 0.163-0.791-0.257-1.404-0.956-2.053-1.696-0.444-0.506-0.902-1.028-1.438-1.418-0.544-0.396-1.189-0.675-1.812-0.945-0.898-0.389-1.747-0.756-2.228-1.417-0.475-0.652-0.563-1.569-0.656-2.539-0.065-0.68-0.133-1.383-0.343-2.030-0.2-0.617-0.551-1.207-0.891-1.777-0.507-0.851-0.985-1.655-0.985-2.508s0.479-1.657 0.985-2.508c0.339-0.57 0.69-1.16 0.891-1.777 0.21-0.647 0.278-1.351 0.343-2.031 0.093-0.97 0.182-1.887 0.656-2.539 0.273-0.376 0.683-0.687 1.328-1.009 0.232-0.116 0.326-0.397 0.21-0.629s-0.397-0.326-0.629-0.21c-0.53 0.264-1.198 0.65-1.668 1.296-0.625 0.859-0.73 1.948-0.831 3.001-0.063 0.659-0.123 1.281-0.302 1.831-0.168 0.518-0.477 1.037-0.805 1.587-0.549 0.922-1.117 1.877-1.117 2.987s0.568 2.065 1.117 2.987c0.327 0.55 0.637 1.069 0.805 1.587 0.178 0.55 0.238 1.172 0.302 1.831 0.101 1.053 0.206 2.142 0.831 3.001 0.632 0.868 1.639 1.304 2.613 1.725 0.603 0.261 1.173 0.508 1.633 0.842 0.451 0.328 0.856 0.79 1.285 1.278 0.704 0.803 1.433 1.633 2.469 1.969 0.349 0.113 0.707 0.158 1.068 0.158 0.665 0 1.342-0.15 2.005-0.297 0.628-0.139 1.277-0.283 1.872-0.283s1.244 0.144 1.872 0.283c1.023 0.227 2.081 0.461 3.073 0.139 1.036-0.336 1.764-1.166 2.469-1.969 0.429-0.489 0.834-0.95 1.285-1.278 0.46-0.335 1.030-0.581 1.633-0.842 0.974-0.422 1.982-0.857 2.613-1.725 0.625-0.859 0.73-1.948 0.831-3.001 0.063-0.659 0.123-1.281 0.302-1.831 0.168-0.517 0.477-1.037 0.805-1.587 0.549-0.923 1.117-1.877 1.117-2.987s-0.568-2.065-1.117-2.987z"></path>
<path d="M4.503 12.265c-0.133 0.41-0.381 0.827-0.644 1.268-0.451 0.758-0.918 1.542-0.918 2.467s0.467 1.709 0.918 2.467c0.263 0.441 0.511 0.858 0.644 1.268 0.142 0.436 0.19 0.936 0.241 1.465 0.083 0.865 0.169 1.76 0.691 2.476 0.526 0.723 1.354 1.081 2.155 1.428 0.484 0.21 0.942 0.408 1.307 0.673 0.358 0.26 0.683 0.631 1.027 1.023 0.579 0.66 1.177 1.342 2.041 1.622 0.293 0.095 0.592 0.132 0.893 0.132 0.547 0 1.102-0.123 1.645-0.243 0.528-0.117 1.026-0.227 1.499-0.227s0.971 0.11 1.499 0.227c0.841 0.186 1.711 0.379 2.538 0.111 0.863-0.28 1.462-0.962 2.041-1.622 0.344-0.392 0.669-0.763 1.027-1.023 0.365-0.265 0.822-0.463 1.307-0.673 0.801-0.346 1.629-0.705 2.155-1.428 0.521-0.716 0.607-1.611 0.691-2.476 0.051-0.529 0.099-1.029 0.241-1.465 0.133-0.41 0.381-0.827 0.644-1.268 0.451-0.758 0.918-1.542 0.918-2.467s-0.467-1.709-0.918-2.467c-0.263-0.441-0.511-0.858-0.644-1.268-0.142-0.436-0.19-0.936-0.241-1.465-0.083-0.865-0.169-1.76-0.691-2.476-0.526-0.723-1.354-1.082-2.155-1.428-0.484-0.21-0.942-0.408-1.307-0.673-0.358-0.26-0.683-0.631-1.027-1.023-0.579-0.66-1.177-1.342-2.041-1.622-0.827-0.268-1.697-0.076-2.538 0.111-0.528 0.117-1.026 0.227-1.499 0.227s-0.971-0.11-1.499-0.227c-0.841-0.186-1.711-0.379-2.538-0.111-0.863 0.28-1.462 0.962-2.041 1.622-0.344 0.392-0.669 0.763-1.027 1.023-0.365 0.265-0.822 0.463-1.307 0.673-0.801 0.346-1.629 0.705-2.155 1.428-0.521 0.716-0.607 1.611-0.691 2.476-0.051 0.529-0.099 1.029-0.241 1.465zM5.677 10.889c0.074-0.774 0.145-1.505 0.515-2.014 0.376-0.516 1.053-0.809 1.769-1.119 0.51-0.221 1.037-0.449 1.486-0.775 0.442-0.322 0.817-0.749 1.18-1.163 0.518-0.591 1.007-1.148 1.625-1.349 0.584-0.189 1.294-0.032 2.045 0.134 0.554 0.123 1.126 0.25 1.701 0.25s1.148-0.127 1.702-0.25c0.752-0.167 1.461-0.324 2.045-0.134 0.618 0.201 1.107 0.758 1.625 1.349 0.363 0.413 0.738 0.841 1.18 1.163 0.449 0.327 0.976 0.555 1.486 0.775 0.717 0.31 1.393 0.603 1.769 1.119 0.37 0.509 0.441 1.24 0.515 2.014 0.053 0.556 0.109 1.131 0.282 1.665 0.166 0.51 0.453 0.992 0.73 1.459 0.404 0.679 0.786 1.321 0.786 1.987s-0.382 1.308-0.786 1.987c-0.278 0.466-0.565 0.949-0.73 1.459-0.173 0.534-0.229 1.109-0.282 1.665-0.075 0.774-0.145 1.505-0.515 2.014-0.376 0.516-1.053 0.809-1.769 1.119-0.51 0.221-1.037 0.449-1.486 0.775-0.442 0.322-0.817 0.749-1.18 1.163-0.518 0.59-1.007 1.148-1.625 1.349-0.584 0.19-1.294 0.032-2.045-0.134-0.554-0.123-1.126-0.25-1.701-0.25s-1.148 0.127-1.701 0.25c-0.752 0.167-1.462 0.324-2.045 0.134-0.618-0.201-1.107-0.758-1.625-1.349-0.363-0.413-0.738-0.841-1.18-1.163-0.449-0.327-0.976-0.555-1.486-0.775-0.717-0.31-1.393-0.603-1.769-1.119-0.37-0.509-0.441-1.24-0.515-2.014-0.053-0.556-0.109-1.131-0.282-1.665-0.166-0.51-0.453-0.992-0.73-1.459-0.404-0.679-0.786-1.321-0.786-1.988s0.382-1.308 0.786-1.987c0.278-0.466 0.565-0.949 0.73-1.458 0.173-0.534 0.229-1.109 0.282-1.665z"></path>
<path d="M14.311 22.214c-0.027 0-0.055 0-0.082-0.001-0.693-0.023-1.345-0.343-1.788-0.876l-2.327-2.8c-0.516-0.621-0.431-1.545 0.19-2.061l0.652-0.542c0.621-0.516 1.545-0.431 2.061 0.19l1.172 1.411c0.066 0.079 0.15 0.094 0.194 0.095s0.129-0.007 0.2-0.082c0.004-0.004 0.008-0.008 0.012-0.012l5.988-5.842c0.269-0.279 0.63-0.438 1.018-0.447 0.39-0.010 0.762 0.134 1.045 0.403l0.614 0.585c0.584 0.557 0.607 1.485 0.050 2.069-0.003 0.003-0.007 0.007-0.010 0.010l-3.182 3.145c-0.184 0.182-0.481 0.18-0.663-0.004s-0.18-0.481 0.004-0.663l3.176-3.139c0.196-0.21 0.186-0.541-0.022-0.74l-0.614-0.585c-0.102-0.097-0.235-0.149-0.376-0.145s-0.271 0.061-0.368 0.163c-0.004 0.004-0.008 0.008-0.012 0.012l-5.988 5.842c-0.236 0.244-0.566 0.377-0.904 0.365-0.342-0.012-0.664-0.169-0.883-0.433l-1.172-1.411c-0.185-0.223-0.518-0.254-0.741-0.068l-0.652 0.542c-0.223 0.185-0.254 0.518-0.068 0.741l2.327 2.8c0.272 0.328 0.673 0.524 1.099 0.538s0.839-0.154 1.132-0.463c0.003-0.003 0.007-0.007 0.010-0.010l2.628-2.598c0.184-0.182 0.481-0.18 0.663 0.004s0.18 0.481-0.004 0.663l-2.623 2.593c-0.459 0.479-1.095 0.749-1.756 0.749z"></path>
</symbol>
<symbol id="icon-payouts" viewBox="0 0 25 32">
<path d="M0.6 9.7c0-1.2 0-2.5 0-3.7 0 0 0-0.1 0-0.1 0.2-0.6 0.5-1 1.1-1.3 0.1-0.1 0.3-0.1 0.4-0.2 4.9 0 9.9 0 14.8 0 0 0 0 0 0 0 1.1 0.3 1.6 0.9 1.6 2 0 1.2 0 2.3 0 3.5 0 0.1 0 0.2 0 0.3 0.1 0 0.1 0 0.1 0 2.3-0.5 4.5 0.8 5 3.1 0 0.2 0.1 0.3 0.1 0.5 0 0.3 0 0.6 0 0.9 0 0.1 0 0.1 0 0.2-0.1 0.6-0.3 1.2-0.6 1.7-0.2-0.1-0.4-0.3-0.6-0.4 0.5-0.8 0.7-1.7 0.5-2.6s-0.7-1.6-1.6-2.1c-1.4-0.8-3.2-0.5-4.3 0.7-1.1 1.3-1.1 3.1 0 4.4 0.5 0.6 1.2 1 2 1.2 1.2 0.2 2.2-0.1 3-0.9 0.2 0.2 0.3 0.3 0.5 0.5-0.5 0.5-1.2 0.9-1.9 1.1s-1.4 0.2-2.2 0c0 1.3 0 2.6 0 3.9 1 0 2 0 3 0 0 0.6 0 1.2 0 1.8 0 0.1 0 0.3 0 0.4s0 0.2-0.1 0.3c-0.3 0.8-1 1.3-1.9 1.3-4.5 0-8.9 0-13.4 0-0.1 0-0.2 0-0.3 0 0 0.6 0 1.3 0 1.9-1.8 0-3.5 0-5.3 0 0-1.3 0-2.5 0-3.8 0.4 0 0.7 0 1.1 0 0-0.1 0-0.1 0-0.2-0.1-0.8-0.2-1.5-0.3-2.3-0.1-2-0.1-4.1 0.3-6.1 0-0.3 0.1-0.6 0.3-0.8 0.5-0.7 1-1.3 1.5-1.9 0.1-0.1 0.1-0.2 0.1-0.3 0-0.8 0-1.6 0-2.4 0-0.1 0-0.1 0-0.2-0.9-0.4-1.9-0.4-2.9-0.4v0zM4 5.2c0.4 0.5 0.4 1.1 0.4 1.7 0 1.5 0 2.9 0 4.3 0 0.1 0 0.2 0 0.3 0.3-0.3 0.7-0.4 1-0.2 0.8 0.2 1.1 1.2 0.6 1.9-0.4 0.6-0.9 1.3-1.4 1.9-0.2 0.3-0.3 0.5-0.3 0.9 0 0.6 0 1.2 0 1.8 0 0.5 0.3 1 0.5 1.4 0.4-0.4 0.8-0.8 1.2-1.2 0.3-0.3 0.7-0.4 1.1-0.4 0.5 0.1 0.8 0.4 0.9 0.8s0 0.9-0.3 1.2c-0.8 0.8-1.7 1.7-2.5 2.5-0.1 0.1-0.1 0.1-0.1 0.2 0 0.5 0 1.1 0 1.7 0.2 0 0.4 0 0.5 0 0.2 0 0.2 0 0.2 0.2 0 0.3 0 0.5 0 0.8 0.4-0.1 0.7-0.5 0.7-1 0-0.3 0-0.5 0-0.8 0-0.4 0-0.7 0-1.1 3.8 0 7.5 0 11.3 0 0-1.3 0-2.7 0-4 0-0.2 0-0.3-0.2-0.4-2.7-1.6-2.7-5.6 0-7.1 0.1-0.1 0.2-0.2 0.2-0.3 0-1.3 0-2.5 0-3.8 0-0.7-0.4-1.3-1.3-1.3-4.1 0-8.2 0-12.3 0 0.1 0 0 0-0.2 0v0zM20.9 22.8c-4.5 0-9 0-13.5 0 0 0.8 0.2 1.6-0.4 2.2 0.1 0 0.2 0 0.3 0 3.2 0 6.3 0 9.5 0 1 0 2 0 3 0 0.6 0 1.1-0.5 1.1-1 0-0.4 0-0.8 0-1.2zM2.7 15c-0.1 0.1-0.1 0.2-0.2 0.3-0.1 0.9-0.3 1.8-0.3 2.7 0 1.6-0.1 3.2 0.2 4.8 0.1 0.4 0.1 0.8 0.2 1.1 0.6 0 1.3 0 1.9 0 0-0.1 0-0.2 0-0.3 0-0.5 0-1 0-1.5 0-0.1 0.1-0.3 0.1-0.4 0.8-0.8 1.7-1.7 2.5-2.5 0.1-0.1 0.2-0.2 0.2-0.2 0.1-0.2 0.1-0.4 0-0.6-0.2-0.1-0.4-0.2-0.6 0-0.1 0-0.1 0.1-0.2 0.1-0.5 0.5-1 1-1.5 1.5-0.1 0.1-0.1 0.1-0.2 0.1-0.3 0-0.5 0-0.8 0-0.1-0.4 0-0.7 0.1-0.8 0-0.1-0.1-0.2-0.1-0.2-0.3-0.5-0.4-1-0.4-1.6s0-1.1 0-1.7c0-0.5 0.1-0.9 0.4-1.3 0.5-0.5 1-1.1 1.4-1.8 0.1-0.1 0.1-0.3 0.1-0.5 0-0.1-0.2-0.2-0.3-0.3-0.1 0-0.2 0-0.3 0.1l-2.2 3zM1.4 24.7c0 0.7 0 1.5 0 2.2 1.2 0 2.5 0 3.7 0 0-0.7 0-1.5 0-2.2-1.2 0-2.4 0-3.7 0zM3.6 8.9c0-0.9 0-1.8 0-2.8 0-0.1-0.1-0.3-0.1-0.4-0.2-0.4-0.7-0.6-1.2-0.5s-0.9 0.5-0.9 1c0 0.7 0 1.4 0 2.1 0 0.2 0 0.4 0 0.6 0.1 0 0.1 0 0.1 0 0.7 0 1.4 0 2.1 0v0z"></path>
<path d="M19.4 11.6c0.3 0 0.5 0 0.7 0 0 0.2 0 0.4 0 0.6 0 0.1 0 0.2 0.2 0.3 0.4 0.2 0.6 0.5 0.6 1-0.3 0-0.5 0-0.7 0 0 0 0-0.1-0.1-0.2-0.1-0.2-0.2-0.2-0.4-0.2s-0.3 0.2-0.3 0.4c0 0.2 0.1 0.3 0.3 0.4 0.1 0 0.2 0 0.2 0 0.5 0.1 0.9 0.4 1 0.9 0.1 0.4-0.1 0.9-0.5 1.2-0.1 0.1-0.2 0.2-0.2 0.3 0 0.2 0 0.4 0 0.6-0.3 0-0.5 0-0.7 0 0-0.2 0-0.4 0-0.6 0-0.1 0-0.2-0.2-0.3-0.4-0.2-0.6-0.5-0.6-1 0.2 0 0.5 0 0.7 0 0 0 0 0.1 0.1 0.1 0.1 0.2 0.2 0.3 0.4 0.2 0.2 0 0.3-0.2 0.3-0.4s-0.1-0.3-0.3-0.3c-0.1 0-0.2 0-0.3 0-0.5-0.1-0.8-0.5-0.9-0.9-0.1-0.5 0.1-0.9 0.6-1.1 0.1-0.1 0.2-0.1 0.2-0.3-0.1-0.3-0.1-0.5-0.1-0.7v0z"></path>
<path d="M22.4 13.8c0 0.2 0 0.5 0 0.7-0.2 0-0.5 0-0.7 0 0-0.2 0-0.5 0-0.7 0.2 0 0.5 0 0.7 0z"></path>
<path d="M17.9 13.8c0 0.2 0 0.5 0 0.7-0.2 0-0.5 0-0.7 0 0-0.2 0-0.5 0-0.7 0.2 0 0.5 0 0.7 0z"></path>
<path d="M16.8 5.9c0 1.6 0 3.2 0 4.8-3.7 0-7.5 0-11.2 0 0-1.6 0-3.2 0-4.8 3.7 0 7.4 0 11.2 0zM6.3 6.7c0 1.1 0 2.2 0 3.3 3.2 0 6.5 0 9.7 0 0-1.1 0-2.2 0-3.3-3.2 0-6.4 0-9.7 0z"></path>
<path d="M14.9 16.1c0 0.3 0 0.5 0 0.7-2.5 0-5 0-7.5 0 0-0.2 0-0.5 0-0.7 2.5 0 5 0 7.5 0z"></path>
<path d="M10.8 19.8c0-0.2 0-0.5 0-0.7 2 0 4 0 6 0 0 0.2 0 0.5 0 0.7-2 0-4 0-6 0z"></path>
<path d="M10.8 21.3c0-0.2 0-0.5 0-0.7 0.7 0 1.5 0 2.2 0 0 0.2 0 0.5 0 0.7-0.7 0-1.4 0-2.2 0z"></path>
<path d="M16.8 20.6c0 0.3 0 0.5 0 0.7-0.2 0-0.5 0-0.7 0-0.4 0-0.9 0-1.3 0-0.2 0-0.2 0-0.2-0.2s0-0.4 0-0.5c0.7 0 1.4 0 2.2 0z"></path>
<path d="M8.2 13.1c0.7 0 1.5 0 2.2 0 0 0.2 0 0.5 0 0.7-0.8 0-1.5 0-2.2 0 0-0.3 0-0.5 0-0.7z"></path>
<path d="M10.4 14.6c0 0.2 0 0.5 0 0.7-0.7 0-1.5 0-2.2 0 0-0.2 0-0.5 0-0.7 0.7 0 1.4 0 2.2 0z"></path>
<path d="M14.1 13.8c-0.7 0-1.5 0-2.2 0 0-0.2 0-0.5 0-0.7 0.7 0 1.5 0 2.2 0 0 0.2 0 0.4 0 0.7z"></path>
<path d="M14.1 14.6c0 0.2 0 0.5 0 0.7-0.7 0-1.5 0-2.2 0 0-0.2 0-0.5 0-0.7 0.8 0 1.5 0 2.2 0z"></path>
</symbol>
<symbol id="icon-plus" viewBox="0 0 32 32">
<path d="M30.75 14.75h-13.5v-13.5c0-0.69-0.56-1.25-1.25-1.25s-1.25 0.56-1.25 1.25v13.5h-13.5c-0.69 0-1.25 0.56-1.25 1.25s0.56 1.25 1.25 1.25h13.5v13.5c0 0.69 0.56 1.25 1.25 1.25s1.25-0.56 1.25-1.25v-13.5h13.5c0.69 0 1.25-0.56 1.25-1.25s-0.56-1.25-1.25-1.25z"></path>
</symbol>
<symbol id="icon-prototyping" viewBox="0 0 32 32">
<path d="M0.017 28.749v-24.381c0.025-0.067 0.050-0.133 0.067-0.2 0.317-1.459 1.584-2.509 3.076-2.542 1.734-0.033 3.176 1.317 3.243 3.051 0.017 0.392 0 0.784 0 1.184h12.812c0-0.892-0.008-1.759 0-2.617 0.025-1.492 1.167-2.659 2.617-2.684 1.525-0.025 2.684 1.142 2.717 2.734 0.017 0.75 0 1.5 0 2.251 0 0.108 0.008 0.217 0.017 0.342h0.375c1.267 0 2.542-0.017 3.809 0.008 1.4 0.025 2.417 0.683 3.001 1.967 0.117 0.258 0.175 0.55 0.258 0.825v20.005c-0.017 0.025-0.033 0.050-0.033 0.083-0.5 1.909-1.567 2.726-3.551 2.726h-24.898c-0.142 0-0.292 0-0.433-0.008-1.35-0.058-2.517-0.95-2.926-2.242-0.058-0.167-0.1-0.333-0.15-0.5zM19.213 6.952h-12.403c-0.4 0-0.4 0-0.4 0.408v18.471c0.008 0.142 0 0.292-0.017 0.433-0.033 0.225-0.217 0.4-0.442 0.417-0.233 0.042-0.467-0.092-0.55-0.317-0.033-0.1-0.058-0.2-0.058-0.308-0.1-1.2-1.034-2.076-2.184-2.034-1.184 0.042-2.067 0.967-2.076 2.184-0.008 0.642 0 1.292 0 1.934 0 1.384 0.9 2.284 2.292 2.284h25.282c1.409 0 2.301-0.9 2.301-2.309v-18.847c0-1.434-0.884-2.317-2.317-2.326h-4.084v0.35c0 0.909 0.008 1.809-0.008 2.717-0.017 0.208 0.083 0.4 0.258 0.508 1.575 1.109 3.134 2.234 4.71 3.351 0.242 0.15 0.383 0.417 0.375 0.7-0.008 2.742-0.008 5.476 0 8.219 0.017 0.275-0.117 0.533-0.35 0.683-2.409 1.717-4.818 3.434-7.219 5.151-0.35 0.25-0.517 0.25-0.875-0.008-2.409-1.717-4.81-3.443-7.219-5.151-0.25-0.175-0.342-0.383-0.342-0.683 0.017-0.884-0.008-1.767 0.008-2.659 0.017-0.217-0.092-0.425-0.267-0.55-1.925-1.525-3.843-3.067-5.768-4.593-0.267-0.217-0.392-0.45-0.392-0.792 0.017-1.45 0.008-2.892 0.008-4.343-0.008-0.125 0.008-0.25 0.033-0.375 0.075-0.275 0.367-0.442 0.642-0.367 0.175 0.050 0.317 0.183 0.367 0.367 0.025 0.125 0.042 0.25 0.033 0.375 0 1.342 0.008 2.684 0 4.034-0.017 0.175 0.067 0.35 0.208 0.45 1.642 1.3 3.276 2.609 4.91 3.918 0.067 0.050 0.15 0.1 0.225 0.142 0-1.284 0.008-2.526-0.008-3.759-0.008-0.35 0.117-0.575 0.4-0.784 1.575-1.109 3.134-2.234 4.71-3.351 0.158-0.117 0.233-0.233 0.225-0.433-0.017-0.458-0.008-0.917-0.008-1.375v-1.734zM5.326 23.731c0.008-0.117 0.017-0.208 0.017-0.292v-18.496c0.008-0.2-0.008-0.4-0.050-0.592-0.242-1.050-1.225-1.767-2.259-1.65-1.134 0.117-1.95 1.017-1.95 2.176v18.622c0 0.075 0.017 0.15 0.025 0.242 1.417-1.042 2.801-1.034 4.218-0.008zM14.954 20.664c0 0.634 0.008 1.2-0.008 1.759-0.008 0.2 0.067 0.317 0.233 0.433 1.834 1.3 3.659 2.609 5.493 3.918 0.408 0.292 0.809 0.575 1.209 0.867 0.058-0.033 0.092-0.058 0.125-0.075 2.209-1.575 4.426-3.159 6.627-4.743 0.108-0.1 0.175-0.233 0.183-0.383 0.008-2.217 0.008-4.434 0.008-6.652v-0.275c-0.058 0.025-0.117 0.050-0.167 0.092-1.317 0.934-2.626 1.867-3.934 2.817-0.092 0.067-0.15 0.233-0.158 0.367-0.050 0.475 0 0.975-0.133 1.417-0.458 1.534-0.984 3.051-1.484 4.568-0.192 0.584-0.558 0.884-1.075 0.875-0.5-0.008-0.85-0.3-1.042-0.875-0.425-1.3-0.842-2.609-1.292-3.909-0.233-0.667-0.392-1.334-0.325-2.042 0.025-0.225-0.075-0.358-0.25-0.483-0.892-0.625-1.784-1.267-2.676-1.901-0.425-0.308-0.859-0.608-1.325-0.942-0.008 0.092-0.017 0.125-0.017 0.158 0 1.159-0.008 2.309 0.008 3.468 0.017 0.125 0.075 0.242 0.175 0.325 0.383 0.325 0.784 0.625 1.167 0.942 0.275 0.233 0.325 0.558 0.125 0.8-0.2 0.233-0.5 0.25-0.784 0.033-0.208-0.175-0.417-0.342-0.684-0.558zM20.305 19.197h1.050v-6.652c0-0.125 0.008-0.25 0.025-0.375 0.050-0.283 0.325-0.467 0.608-0.417 0.233 0.042 0.4 0.233 0.425 0.467 0.008 0.117 0.017 0.225 0.008 0.342v6.627h1.050v-11.161c-0.35 0.017-0.675 0.017-1.059 0.017v0.367c0 0.558 0.008 1.125 0 1.684-0.008 0.358-0.2 0.575-0.508 0.584-0.317 0.008-0.542-0.217-0.55-0.584-0.008-0.375 0-0.75 0-1.125v-0.925h-1.050zM15.337 14.429c1.309 0.934 2.567 1.834 3.851 2.751v-5.501c-1.292 0.925-2.551 1.817-3.851 2.751v0zM28.441 14.429c-1.3-0.934-2.559-1.825-3.859-2.751v5.51c1.3-0.934 2.559-1.834 3.859-2.759v0zM23.473 4.81c0-0.592 0.025-1.159-0.008-1.717-0.042-0.767-0.65-1.392-1.417-1.459-0.725-0.083-1.5 0.35-1.659 1.084-0.142 0.675-0.108 1.392-0.158 2.092h3.242zM21.856 24.44c0.025 0 0.042 0 0.067 0.008 0.45-1.375 0.9-2.742 1.359-4.126h-2.776c0.45 1.392 0.9 2.759 1.35 4.118zM23.464 6.935v-1.025h-3.159v1.025z"></path>
<path d="M11.77 11.236c0.508 0 1.017-0.008 1.525 0 0.35 0.008 0.584 0.208 0.592 0.508 0.008 0.308-0.225 0.55-0.584 0.55-1.025 0.008-2.059 0.008-3.084 0-0.367 0-0.592-0.225-0.584-0.55 0.008-0.308 0.217-0.508 0.575-0.508 0.517-0.008 1.034 0 1.559 0z"></path>
<path d="M14.971 9.094c0.5 0 1-0.008 1.492 0 0.4 0.008 0.625 0.217 0.617 0.542-0.008 0.317-0.233 0.517-0.617 0.525-1.009 0.008-2.017 0.008-3.026 0-0.4 0-0.625-0.217-0.617-0.55 0.008-0.317 0.225-0.508 0.608-0.517h1.542z"></path>
<path d="M10.686 9.102c0.2 0 0.4-0.017 0.592 0 0.258 0.017 0.467 0.233 0.475 0.492 0.008 0.25-0.167 0.508-0.433 0.525-0.425 0.033-0.85 0.033-1.275 0-0.275-0.017-0.433-0.267-0.417-0.533 0-0.258 0.208-0.475 0.467-0.492 0.2 0 0.4 0.008 0.592 0.008z"></path>
</symbol>
<symbol id="icon-reward" viewBox="0 0 25 32">
<path d="M18.606 27.535c-0.073 0-0.149 0-0.222 0-0.101-0.109-0.222-0.206-0.299-0.323-0.816-1.22-1.632-2.444-2.448-3.669-0.049-0.065-0.089-0.133-0.149-0.222-0.182 0.295-0.343 0.57-0.509 0.844-0.206 0.335-0.38 0.38-0.703 0.162-0.59-0.384-1.176-0.776-1.766-1.164-0.121-0.077-0.198-0.077-0.319 0-0.59 0.396-1.188 0.788-1.782 1.176-0.299 0.198-0.481 0.149-0.671-0.158-0.17-0.283-0.335-0.566-0.521-0.865-0.065 0.097-0.113 0.17-0.17 0.238-0.812 1.22-1.62 2.432-2.436 3.644-0.077 0.121-0.198 0.214-0.299 0.323-0.073 0-0.149 0-0.222 0-0.174-0.089-0.25-0.226-0.287-0.424-0.109-0.578-0.226-1.147-0.343-1.717-0.109-0.541-0.214-1.079-0.331-1.628-0.053 0.004-0.085 0.004-0.109 0.012-1.2 0.214-2.408 0.424-3.6 0.655-0.263 0.049-0.449-0.004-0.594-0.226 0-0.089 0-0.182 0-0.271 0.016-0.016 0.040-0.036 0.061-0.061 0.913-1.483 1.826-2.958 2.731-4.44 0.028-0.049 0.053-0.101 0.085-0.162-0.137-0.040-0.259-0.077-0.38-0.121-0.38-0.121-0.457-0.295-0.311-0.659 0.246-0.642 0.493-1.285 0.752-1.927 0.053-0.133 0.028-0.21-0.073-0.307-0.517-0.469-1.026-0.95-1.535-1.422-0.283-0.263-0.283-0.448-0.004-0.715 0.509-0.473 1.014-0.954 1.535-1.422 0.113-0.101 0.133-0.186 0.073-0.331-0.259-0.634-0.505-1.285-0.752-1.927-0.137-0.356-0.053-0.533 0.311-0.646 0.642-0.198 1.285-0.408 1.931-0.594 0.222-0.061 0.287-0.174 0.299-0.392 0.048-0.679 0.109-1.362 0.174-2.040 0.028-0.295 0.206-0.412 0.497-0.372 0.719 0.097 1.442 0.194 2.162 0.299 0.145 0.024 0.21-0.016 0.283-0.137 0.347-0.594 0.703-1.188 1.063-1.77 0.073-0.113 0.186-0.206 0.283-0.307 0.073 0 0.149 0 0.222 0 0.646 0.424 1.301 0.853 1.951 1.285 0.125 0.085 0.21 0.085 0.335 0 0.646-0.412 1.297-0.84 1.951-1.273 0.073 0 0.149 0 0.222 0 0.101 0.109 0.222 0.206 0.299 0.323 0.36 0.59 0.715 1.176 1.063 1.77 0.061 0.101 0.121 0.137 0.246 0.121 0.727-0.109 1.451-0.206 2.178-0.299 0.295-0.040 0.457 0.085 0.497 0.372 0.012 0.101 0.024 0.21 0.028 0.311 0.053 0.614 0.109 1.224 0.149 1.838 0.012 0.137 0.065 0.206 0.198 0.246 0.667 0.198 1.325 0.412 1.992 0.618 0.396 0.125 0.481 0.287 0.331 0.667-0.238 0.618-0.481 1.24-0.727 1.859-0.065 0.17-0.061 0.275 0.085 0.404 0.509 0.457 1.002 0.925 1.499 1.394 0.283 0.263 0.283 0.457 0 0.715-0.493 0.461-0.978 0.929-1.487 1.374-0.162 0.145-0.17 0.25-0.097 0.436 0.25 0.618 0.485 1.236 0.727 1.859 0.137 0.347 0.049 0.533-0.319 0.646-0.121 0.036-0.234 0.073-0.38 0.121 0.966 1.451 1.919 2.877 2.869 4.299 0 0.073 0 0.149 0 0.222-0.109 0.226-0.287 0.295-0.533 0.271-0.731-0.073-1.463-0.137-2.19-0.206-0.521-0.049-1.038-0.097-1.572-0.145-0.012 0.061-0.024 0.089-0.028 0.125-0.214 1.087-0.436 2.174-0.646 3.261-0.016 0.218-0.101 0.364-0.267 0.453zM14.444 23.531c0.040-0.061 0.077-0.109 0.109-0.158 0.343-0.566 0.683-1.127 1.014-1.697 0.121-0.198 0.271-0.283 0.505-0.238 0.222 0.040 0.444 0.065 0.667 0.097 0.493 0.065 0.99 0.133 1.507 0.198 0.061-0.715 0.121-1.41 0.182-2.101 0.024-0.295 0.097-0.392 0.38-0.481 0.436-0.137 0.869-0.271 1.309-0.408 0.246-0.077 0.493-0.158 0.752-0.238-0.263-0.671-0.517-1.321-0.764-1.968-0.113-0.287-0.089-0.392 0.133-0.602 0.214-0.206 0.436-0.408 0.659-0.614 0.299-0.283 0.602-0.558 0.905-0.844-0.533-0.497-1.050-0.978-1.568-1.459-0.222-0.206-0.246-0.311-0.137-0.602 0.065-0.17 0.133-0.335 0.198-0.505 0.186-0.485 0.38-0.974 0.57-1.475-0.707-0.222-1.394-0.436-2.081-0.646-0.234-0.073-0.347-0.21-0.36-0.448-0.028-0.42-0.065-0.832-0.101-1.253-0.024-0.287-0.053-0.578-0.085-0.869-0.121 0.012-0.21 0.024-0.295 0.036-0.622 0.085-1.248 0.162-1.871 0.259-0.238 0.036-0.396-0.048-0.517-0.259-0.234-0.404-0.473-0.8-0.715-1.196-0.125-0.21-0.251-0.42-0.384-0.642-0.529 0.347-1.055 0.646-1.531 1.022-0.412 0.323-0.743 0.311-1.152-0.004-0.473-0.372-1.002-0.671-1.519-1.014-0.053 0.085-0.101 0.158-0.145 0.222-0.319 0.533-0.642 1.063-0.954 1.604-0.125 0.214-0.283 0.311-0.533 0.271-0.295-0.053-0.594-0.085-0.889-0.125-0.42-0.053-0.84-0.113-1.277-0.174-0.061 0.727-0.125 1.422-0.182 2.113-0.016 0.251-0.125 0.396-0.372 0.469-0.541 0.162-1.075 0.331-1.608 0.497-0.149 0.049-0.307 0.101-0.461 0.158 0.259 0.659 0.505 1.297 0.743 1.931 0.133 0.335 0.109 0.42-0.158 0.671-0.505 0.469-1.010 0.937-1.556 1.446 0.073 0.053 0.137 0.089 0.198 0.137 0.457 0.42 0.913 0.844 1.37 1.273 0.259 0.238 0.275 0.331 0.149 0.655-0.246 0.642-0.497 1.285-0.752 1.939 0.097 0.028 0.17 0.061 0.246 0.085 0.614 0.194 1.232 0.392 1.842 0.578 0.222 0.065 0.335 0.206 0.347 0.436 0.012 0.222 0.028 0.448 0.053 0.671 0.040 0.485 0.085 0.966 0.133 1.451 0.065 0 0.109 0.004 0.149 0 0.667-0.089 1.337-0.182 2.004-0.283 0.238-0.036 0.404 0.036 0.521 0.246 0.162 0.275 0.331 0.554 0.497 0.828 0.206 0.335 0.408 0.679 0.618 1.026 0.602-0.396 1.188-0.768 1.758-1.164 0.246-0.17 0.448-0.162 0.695 0.004 0.574 0.384 1.164 0.76 1.749 1.143zM6.396 26.154c0.061-0.077 0.085-0.113 0.109-0.149 0.707-1.067 1.418-2.137 2.137-3.192 0.109-0.162 0.109-0.271 0.012-0.436-0.097-0.182-0.222-0.133-0.36-0.109-0.085 0.012-0.162 0.016-0.246 0.028-0.618 0.085-1.232 0.174-1.851 0.25-0.311 0.036-0.449-0.077-0.485-0.384-0.012-0.101-0.024-0.21-0.028-0.311-0.053-0.606-0.109-1.208-0.149-1.814-0.012-0.149-0.065-0.222-0.214-0.259-0.214-0.053-0.432-0.121-0.642-0.206-0.158-0.061-0.234-0.028-0.319 0.113-0.743 1.224-1.495 2.436-2.246 3.657-0.028 0.053-0.061 0.109-0.109 0.198 0.335-0.061 0.642-0.113 0.941-0.17 0.768-0.137 1.531-0.283 2.299-0.42 0.372-0.065 0.509 0.028 0.59 0.396 0.028 0.133 0.053 0.263 0.085 0.396 0.149 0.788 0.311 1.572 0.477 2.412zM18.295 26.137c0.024-0.085 0.036-0.113 0.040-0.149 0.182-0.881 0.356-1.766 0.533-2.642 0.073-0.343 0.182-0.432 0.529-0.404 0.788 0.065 1.568 0.145 2.352 0.21 0.307 0.028 0.618 0.049 0.937 0.077-0.012-0.049-0.012-0.065-0.016-0.077-0.788-1.184-1.568-2.36-2.36-3.535-0.028-0.049-0.137-0.073-0.198-0.061-0.238 0.061-0.469 0.149-0.707 0.21-0.17 0.040-0.226 0.125-0.238 0.295-0.049 0.659-0.101 1.313-0.162 1.976-0.040 0.461-0.17 0.566-0.622 0.497-0.679-0.089-1.349-0.186-2.028-0.283-0.113-0.016-0.214-0.049-0.283 0.089-0.065 0.137-0.162 0.238-0.040 0.42 0.719 1.055 1.43 2.129 2.137 3.192 0.020 0.053 0.057 0.101 0.125 0.186z"></path>
<path d="M10.061 18.315c-0.065 0.335-0.295 0.396-0.59 0.396-0.788-0.012-1.572 0-2.364-0.004-0.396 0-0.521-0.125-0.521-0.529 0-1.83 0-3.661 0-5.491 0-0.392 0.121-0.509 0.509-0.509 0.804 0 1.604 0.004 2.408 0 0.251 0 0.469 0.036 0.541 0.347 0.412-0.335 0.824-0.63 1.188-0.966 0.137-0.121 0.182-0.343 0.287-0.505 0.372-0.578 0.517-1.196 0.448-1.879-0.024-0.251-0.004-0.509-0.004-0.764 0.004-0.331 0.145-0.461 0.469-0.457 1.014 0.024 1.818 0.869 1.838 1.951 0.004 0.485 0 0.974 0 1.487 0.097 0.004 0.174 0.012 0.251 0.012 0.756 0 1.511 0 2.275 0 0.642 0 1.042 0.238 1.236 0.739 0.186 0.493 0.049 0.941-0.436 1.386 0.259 0.602 0.149 1.115-0.392 1.535 0.275 0.614 0.137 1.123-0.323 1.487 0.016 0.331 0.077 0.618 0.028 0.881-0.097 0.533-0.57 0.877-1.152 0.877-1.806 0-3.612 0-5.418 0-0.089 0.004-0.178 0.004-0.279 0.004zM15.050 15.244c0-0.263 0-0.509 0-0.768 0.089 0 0.162 0 0.234 0 0.396 0 0.792 0.004 1.196-0.004 0.101 0 0.21-0.024 0.299-0.073 0.158-0.089 0.198-0.238 0.158-0.408-0.049-0.182-0.174-0.275-0.36-0.275-0.38-0.004-0.756 0-1.147 0 0-0.271 0-0.505 0-0.768 0.182 0 0.356 0 0.521 0 0.331 0 0.659 0.004 0.99-0.004 0.238-0.004 0.408-0.186 0.404-0.396s-0.17-0.356-0.408-0.368c-0.065-0.004-0.133 0-0.206 0-0.905 0-1.814 0-2.719 0-0.38 0-0.505-0.125-0.505-0.497 0-0.251 0-0.509 0-0.764-0.004-0.412 0.004-0.828-0.028-1.236-0.036-0.42-0.36-0.776-0.743-0.865 0 0.424 0.012 0.84-0.004 1.253-0.004 0.17-0.040 0.343-0.113 0.493-0.198 0.424-0.408 0.853-0.63 1.265-0.065 0.125-0.17 0.251-0.275 0.343-0.493 0.408-0.99 0.804-1.495 1.196-0.113 0.089-0.17 0.182-0.17 0.335 0.004 1.208 0.004 2.412 0.004 3.62 0 0.073 0 0.145 0 0.222 0.125 0 0.214 0 0.307 0 1.745 0 3.495 0 5.24 0 0.065 0 0.137 0 0.206 0 0.234-0.012 0.384-0.17 0.384-0.384s-0.149-0.372-0.392-0.38c-0.307-0.004-0.614 0-0.925-0.004-0.073 0-0.145-0.004-0.21-0.012 0-0.263 0-0.505 0-0.756 0.485 0 0.954 0 1.43 0 0.295 0 0.481-0.149 0.485-0.384 0-0.234-0.182-0.384-0.481-0.384-0.347 0-0.691 0-1.046 0zM7.366 12.958c0 1.669 0 3.313 0 4.962 0.634 0 1.265 0 1.903 0 0-1.661 0-3.305 0-4.962-0.638 0-1.261 0-1.903 0z"></path>
</symbol>
<symbol id="icon-right-arrow" viewBox="0 0 32 32">
<path d="M31.633 15.115c0 0-0.001-0.001-0.001-0.001l-6.532-6.5c-0.489-0.487-1.281-0.485-1.768 0.004s-0.485 1.281 0.004 1.768l4.385 4.364h-26.472c-0.69 0-1.25 0.56-1.25 1.25s0.56 1.25 1.25 1.25h26.472l-4.385 4.364c-0.489 0.487-0.491 1.278-0.004 1.768s1.279 0.491 1.768 0.004l6.532-6.5c0 0 0.001-0.001 0.001-0.001 0.49-0.489 0.488-1.283 0-1.77z"></path>
</symbol>
<symbol id="icon-slack" viewBox="0 0 32 32">
<path d="M11.791 16.868c-1.856 0-3.361 1.505-3.361 3.361v8.408c0 1.856 1.505 3.361 3.361 3.361s3.361-1.505 3.361-3.361v-8.408c-0.001-1.856-1.507-3.361-3.361-3.361z"></path>
<path d="M0.025 20.229c0 1.857 1.507 3.364 3.364 3.364s3.364-1.507 3.364-3.364v-3.364h-3.361c-0.001 0-0.001 0-0.003 0-1.857 0-3.364 1.507-3.364 3.364z"></path>
<path d="M11.795-0.001c-0.001 0-0.003 0-0.004 0-1.857 0-3.364 1.507-3.364 3.364s1.507 3.364 3.364 3.364h3.361c0-1.908 0-1.444 0-3.371-0.001-1.855-1.504-3.357-3.357-3.357z"></path>
<path d="M3.367 15.16h8.424c1.857 0 3.364-1.507 3.364-3.364s-1.507-3.364-3.364-3.364h-8.424c-1.857 0-3.364 1.507-3.364 3.364s1.507 3.364 3.364 3.364z"></path>
<path d="M28.609 8.431c-1.855 0-3.357 1.503-3.357 3.357v3.371h3.361c1.857 0 3.364-1.507 3.364-3.364s-1.507-3.364-3.364-3.364c-0.001 0-0.003 0-0.004 0z"></path>
<path d="M16.855 3.363v8.433c0 1.856 1.505 3.361 3.361 3.361s3.361-1.505 3.361-3.361v-8.433c0-1.856-1.505-3.361-3.361-3.361s-3.361 1.505-3.361 3.361z"></path>
<path d="M23.576 28.635c0-1.856-1.505-3.361-3.361-3.361h-3.361v3.364c0.001 1.855 1.505 3.359 3.361 3.359s3.361-1.505 3.361-3.361z"></path>
<path d="M28.639 16.865h-8.424c-1.857 0-3.364 1.507-3.364 3.364s1.507 3.364 3.364 3.364h8.424c1.857 0 3.364-1.507 3.364-3.364s-1.507-3.364-3.364-3.364z"></path>
</symbol>
<symbol id="icon-speed" viewBox="0 0 32 32">
<path d="M0 16.317c0.083-0.592 0.142-1.192 0.25-1.784 0.767-4.194 2.877-7.579 6.287-10.114 3.093-2.301 6.603-3.335 10.439-3.085 4.961 0.325 8.946 2.543 11.931 6.52 1.826 2.435 2.826 5.194 3.060 8.229 0.008 0.083 0.033 0.158 0.050 0.242v1.934c-0.083 0.617-0.15 1.234-0.25 1.851-0.359 2.084-1.151 4.077-2.31 5.853-0.075 0.1-0.192 0.158-0.317 0.167-0.517 0.017-1.042 0.017-1.559 0-0.108 0-0.217-0.042-0.3-0.108-0.842-0.825-1.668-1.659-2.485-2.468 0.425-0.417 0.834-0.825 1.267-1.251 0.759 0.767 1.576 1.584 2.41 2.426 1.442-2.468 2.134-5.078 2.043-7.929h-3.302v-1.784h3.085c-0.067-1.793-1.676-5.419-2.977-6.762-0.75 0.75-1.492 1.501-2.226 2.235-0.442-0.442-0.842-0.85-1.251-1.267 0.75-0.742 1.517-1.501 2.285-2.26-1.601-2.118-7.112-4.469-9.588-4.119v3.66h-1.784v-3.677c-3.343 0.308-6.212 1.609-8.68 3.885 0.767 0.767 1.517 1.509 2.251 2.243-0.417 0.425-0.817 0.825-1.226 1.234-0.717-0.725-1.451-1.467-2.218-2.235-1.684 2.018-2.793 4.452-3.21 7.045h3.010v1.784h-3.185c-0.1 2.86 0.6 5.47 2.043 7.946 0.884-0.767 1.743-1.517 2.635-2.293 0.384 0.434 0.759 0.875 1.184 1.359-0.083 0.050-0.167 0.1-0.242 0.167-0.767 0.667-1.534 1.342-2.31 2.009-0.117 0.092-0.258 0.142-0.409 0.15-0.5 0.017-1.001 0-1.501 0.008-0.15 0.017-0.3-0.067-0.375-0.2-1.409-2.209-2.26-4.736-2.468-7.346-0.008-0.108-0.033-0.225-0.058-0.334v-1.934z"></path>
<path d="M8.888 30.683v-1.784h14.232v1.784h-14.232z"></path>
<path d="M12.698 15.35c0.2-0.2 0.384-0.367 0.575-0.559 0.425 0.309 0.859 0.617 1.284 0.925 0.617 0.442 1.226 0.892 1.851 1.334 0.1 0.067 0.217 0.117 0.334 0.133 0.725 0.1 1.234 0.759 1.134 1.484s-0.759 1.234-1.484 1.134c-0.567-0.075-1.026-0.509-1.126-1.076-0.025-0.142-0.092-0.267-0.175-0.384-0.717-0.909-1.442-1.809-2.168-2.71-0.075-0.083-0.142-0.175-0.225-0.283z"></path>
</symbol>
<symbol id="icon-star" viewBox="0 0 32 32">
<path d="M31.916 12.274c-0.211-0.648-0.785-1.107-1.463-1.168l-9.237-0.839-3.651-8.547c-0.27-0.628-0.883-1.033-1.565-1.033s-1.296 0.405-1.564 1.033l-3.651 8.547-9.239 0.839c-0.677 0.063-1.251 0.521-1.463 1.168-0.211 0.648-0.016 1.359 0.496 1.808l6.983 6.123-2.059 9.068c-0.151 0.667 0.108 1.356 0.661 1.756 0.297 0.216 0.647 0.324 0.997 0.324 0.301 0 0.603-0.080 0.872-0.241l7.965-4.763 7.964 4.763c0.584 0.349 1.319 0.317 1.871-0.083 0.553-0.4 0.812-1.089 0.661-1.756l-2.059-9.068 6.983-6.123c0.512-0.449 0.707-1.158 0.496-1.808z"></path>
</symbol>
<symbol id="icon-trophy" viewBox="0 0 25 32">
<path d="M18.295 4.097c0.323 0.113 0.634 0.255 0.776 0.578 0.101 0.222 0.125 0.485 0.17 0.731 0.020 0.113 0.008 0.23 0.008 0.372 0.347 0 0.671 0 0.994 0 0.303 0.008 0.61-0.012 0.909 0.024 0.974 0.125 1.644 1.030 1.467 1.996-0.505 2.723-1.943 4.796-4.319 6.218-0.154 0.093-0.255 0.206-0.323 0.368-0.59 1.341-1.362 2.566-2.533 3.487-0.327 0.255-0.695 0.465-1.063 0.667-0.141 0.081-0.198 0.162-0.198 0.315-0.024 1.119 0.727 2.145 1.814 2.461 0.485 0.141 0.578 0.267 0.578 0.776 0 0.772 0 1.535 0 2.343 0.38 0 0.747-0.012 1.107 0 0.752 0.036 1.39 0.521 1.503 1.257 0.093 0.598 0.061 1.224 0.032 1.834-0.008 0.141-0.23 0.279-0.356 0.416-4.267 0-8.541 0-12.812 0-0.299-0.162-0.404-0.408-0.384-0.747 0.024-0.396 0-0.788 0.012-1.188 0.024-0.832 0.683-1.515 1.523-1.564 0.372-0.020 0.739-0.008 1.135-0.008 0.008-0.113 0.012-0.194 0.012-0.275 0-0.707 0-1.41 0-2.117 0-0.448 0.117-0.598 0.541-0.719 1.095-0.311 1.834-1.269 1.859-2.404 0.008-0.182-0.044-0.287-0.222-0.372-1.248-0.59-2.145-1.564-2.857-2.723-0.291-0.473-0.517-0.986-0.784-1.479-0.069-0.117-0.162-0.242-0.279-0.315-2.38-1.434-3.838-3.515-4.343-6.25-0.206-1.030 0.602-1.968 1.709-1.988 0.533-0.008 1.067 0 1.661 0-0.101-0.796 0.101-1.434 0.937-1.689 3.907-0.004 7.818-0.004 11.725-0.004zM12.444 5.2c-1.826 0-3.649 0.008-5.475-0.008-0.218 0-0.275 0.061-0.275 0.275 0.012 0.8 0 1.596 0.008 2.4 0.012 2.077 0.323 4.093 1.156 6.012 0.509 1.176 1.168 2.242 2.162 3.075 1.503 1.257 3.329 1.269 4.808-0.012 0.44-0.384 0.844-0.828 1.18-1.305 1.273-1.822 1.863-3.895 2.036-6.081 0.105-1.354 0.069-2.715 0.105-4.069 0.008-0.222-0.049-0.291-0.279-0.291-1.806 0.012-3.612 0.004-5.426 0.004zM18.149 26.828c0-0.194 0-0.368 0-0.541 0-0.566-0.186-0.752-0.752-0.752-3.301 0-6.598 0-9.899 0-0.093 0-0.186 0-0.279 0.012-0.222 0.044-0.404 0.174-0.428 0.404-0.032 0.287-0.008 0.586-0.008 0.877 3.79 0 7.568 0 11.366 0zM9.455 24.42c2.008 0 4 0 5.984 0 0-0.667 0-1.309 0-1.956-2.008 0-3.988 0-5.984 0 0 0.655 0 1.297 0 1.956zM5.616 6.893c-0.521 0-1.018 0-1.515 0-0.622 0-0.865 0.291-0.747 0.901 0.242 1.236 0.751 2.356 1.527 3.35 0.372 0.473 0.788 0.901 1.309 1.305-0.505-1.846-0.622-3.681-0.574-5.556zM18.663 12.432c0.057-0.036 0.089-0.057 0.113-0.073 0.117-0.101 0.234-0.198 0.347-0.303 1.257-1.176 2.049-2.61 2.38-4.299 0.113-0.558-0.141-0.865-0.715-0.865-0.279 0-0.558 0-0.84 0-0.23 0-0.461 0-0.707 0 0.053 1.883-0.073 3.721-0.578 5.539zM14.004 21.337c-0.602-0.707-0.901-1.479-0.933-2.347-0.416 0-0.812 0-1.236 0-0.024 0.881-0.343 1.653-0.921 2.347 1.046 0 2.040 0 3.091 0z"></path>
<path d="M10.141 13.172c0.081-0.465 0.154-0.974 0.255-1.487 0.032-0.141-0.012-0.23-0.113-0.323-0.343-0.323-0.679-0.667-1.018-0.986-0.182-0.174-0.255-0.372-0.182-0.61 0.073-0.242 0.263-0.356 0.505-0.392 0.465-0.069 0.937-0.141 1.406-0.198 0.149-0.020 0.23-0.081 0.291-0.218 0.198-0.424 0.416-0.832 0.614-1.257 0.113-0.23 0.275-0.38 0.533-0.38 0.263 0 0.424 0.149 0.533 0.38 0.198 0.424 0.416 0.832 0.614 1.257 0.061 0.137 0.141 0.194 0.291 0.21 0.461 0.057 0.921 0.129 1.378 0.194 0.251 0.036 0.448 0.141 0.521 0.396 0.073 0.251-0.020 0.448-0.198 0.626-0.343 0.323-0.683 0.659-1.014 0.994-0.061 0.061-0.105 0.186-0.093 0.275 0.061 0.453 0.149 0.901 0.222 1.354 0.049 0.267 0.044 0.517-0.21 0.691-0.234 0.162-0.465 0.101-0.703-0.024-0.384-0.21-0.784-0.408-1.168-0.622-0.141-0.081-0.251-0.069-0.384 0.008-0.424 0.23-0.844 0.453-1.273 0.671-0.408 0.214-0.824-0.053-0.808-0.558zM13.438 12.242c-0.044-0.287-0.081-0.529-0.125-0.764-0.049-0.255 0.020-0.453 0.21-0.626 0.174-0.154 0.347-0.315 0.57-0.521-0.315-0.049-0.541-0.101-0.772-0.117-0.279-0.024-0.453-0.162-0.566-0.408-0.101-0.21-0.206-0.424-0.327-0.667-0.137 0.279-0.255 0.509-0.368 0.731-0.101 0.198-0.255 0.303-0.473 0.335-0.251 0.032-0.497 0.073-0.828 0.125 0.198 0.186 0.347 0.335 0.509 0.461 0.275 0.218 0.327 0.485 0.255 0.808-0.044 0.198-0.069 0.396-0.113 0.646 0.242-0.125 0.44-0.21 0.622-0.323 0.267-0.17 0.517-0.162 0.784 0.008 0.194 0.105 0.388 0.19 0.622 0.311z"></path>
</symbol>
<symbol id="icon-twitter" viewBox="0 0 32 32">
<path d="M32 6.078c-1.19 0.522-2.458 0.868-3.78 1.036 1.36-0.812 2.398-2.088 2.886-3.626-1.268 0.756-2.668 1.29-4.16 1.588-1.204-1.282-2.92-2.076-4.792-2.076-3.632 0-6.556 2.948-6.556 6.562 0 0.52 0.044 1.020 0.152 1.496-5.454-0.266-10.28-2.88-13.522-6.862-0.566 0.982-0.898 2.106-0.898 3.316 0 2.272 1.17 4.286 2.914 5.452-1.054-0.020-2.088-0.326-2.964-0.808 0 0.020 0 0.046 0 0.072 0 3.188 2.274 5.836 5.256 6.446-0.534 0.146-1.116 0.216-1.72 0.216-0.42 0-0.844-0.024-1.242-0.112 0.85 2.598 3.262 4.508 6.13 4.57-2.232 1.746-5.066 2.798-8.134 2.798-0.538 0-1.054-0.024-1.57-0.090 2.906 1.874 6.35 2.944 10.064 2.944 12.072 0 18.672-10 18.672-18.668 0-0.29-0.010-0.57-0.024-0.848 1.302-0.924 2.396-2.078 3.288-3.406z"></path>
</symbol>
<symbol id="icon-ui" viewBox="0 0 25 32">
<path d="M17.059 4.255c0.238 0.093 0.485 0.178 0.723 0.283 0.105 0.044 0.19 0.129 0.299 0.21-0.178 0.202-0.343 0.388-0.521 0.59-0.315-0.271-0.683-0.295-1.063-0.295-2.707 0.008-5.414 0.024-8.125-0.008-0.828-0.012-1.539 0.485-1.394 1.58 2.077 0 4.158 0 6.251 0 0 0.271 0 0.517 0 0.78-2.081 0-4.158 0-6.25 0 0 0.711 0 1.394 0 2.101 0.246-0.036 0.493-0.073 0.76-0.117 0-0.392 0-0.78 0-1.18 0.271 0 0.517 0 0.788 0 0 0.392 0 0.78 0 1.147 0.477 0.089 0.929 0.137 1.232 0.299 1.976 0.723 3.127 2.137 3.438 4.218 0.024 0.162 0.073 0.222 0.238 0.214 0.319-0.012 0.638-0.008 0.978-0.008 0 0.263 0 0.509 0 0.788-0.331 0-0.659 0.008-0.982-0.008-0.154-0.008-0.214 0.044-0.234 0.198-0.307 2.436-2.113 4.214-4.55 4.489-0.032 0.008-0.057 0.012-0.109 0.024 0 0.38 0 0.76 0 1.16-0.271 0-0.517 0-0.792 0 0-0.331-0.008-0.663 0-0.99 0-0.129-0.024-0.19-0.174-0.202-2.449-0.287-4.267-2.137-4.521-4.574 0-0.024-0.012-0.044-0.020-0.097-0.38 0-0.768 0-1.168 0 0-0.271 0-0.517 0-0.788 0.388 0 0.772 0 1.111 0 0.154-0.545 0.259-1.067 0.449-1.552 0.493-1.228 1.358-2.117 2.554-2.683 0.154-0.073 0.198-0.154 0.19-0.315-0.008-1.042-0.008-2.089 0-3.131 0-1.156 0.521-1.83 1.64-2.125 0.012-0.008 0.024-0.020 0.036-0.024 3.075 0.016 6.145 0.016 9.216 0.016zM7.741 10.21c-1.677-0.198-3.984 2.101-3.887 3.867 0.238 0 0.481 0 0.719 0 0 0.275 0 0.517 0 0.78-0.25 0-0.485 0-0.747 0 0.133 1.18 0.626 2.137 1.547 2.941 0.008-1.192 0.493-2.053 1.475-2.626-0.994-0.966-0.76-2.23-0.117-2.881 0.735-0.735 1.911-0.788 2.691-0.097 0.877 0.768 0.885 1.855 0.008 2.99 0.982 0.57 1.455 1.442 1.467 2.614 0.909-0.8 1.414-1.75 1.535-2.941-0.271 0-0.509 0-0.747 0 0-0.275 0-0.517 0-0.788 0.251 0 0.493 0 0.735 0-0.166-2.23-2.117-3.814-3.895-3.875 0 0.238 0 0.481 0 0.723-0.271 0-0.517 0-0.78 0-0.004-0.242-0.004-0.473-0.004-0.707zM8.529 18.82c0.416-0.117 0.8-0.202 1.16-0.319 0.412-0.133 0.412-0.154 0.404-0.57 0-0.129 0.008-0.263-0.008-0.392-0.057-0.743-0.4-1.321-1.067-1.657-0.675-0.343-1.358-0.307-1.988 0.109-0.671 0.44-0.901 1.107-0.877 1.887 0.020 0.481 0 0.493 0.449 0.646 0.356 0.117 0.723 0.198 1.131 0.299 0-0.307 0-0.545 0-0.78 0.271 0 0.517 0 0.78 0 0.016 0.234 0.016 0.461 0.016 0.776zM6.962 13.685c0 0.65 0.517 1.168 1.168 1.172 0.659 0.008 1.192-0.521 1.192-1.172 0-0.638-0.529-1.172-1.172-1.18-0.659-0.004-1.188 0.521-1.188 1.18z"></path>
<path d="M24.194 13.79c-0.594 0.707-1.18 1.426-1.786 2.117-1.309 1.499-2.626 2.978-3.935 4.469-0.069 0.081-0.121 0.198-0.141 0.299-0.238 1.479-1.309 2.42-2.8 2.436-0.861 0.012-1.721 0-2.578 0-0.275 0-0.436-0.097-0.481-0.299-0.057-0.234 0.073-0.368 0.263-0.481 0.343-0.21 0.509-0.517 0.509-0.921 0-0.505-0.036-1.014 0.141-1.503 0.392-1.087 1.168-1.713 2.307-1.887 0.081-0.012 0.174-0.036 0.226-0.085 0.699-0.606 1.394-1.22 2.069-1.822 0-1.337 0-2.659 0-3.992 0.246 0 0.485 0 0.76 0 0 1.087 0 2.166 0 3.309 0.162-0.141 0.275-0.238 0.388-0.339 0.982-0.865 1.984-1.713 2.945-2.61 0.711-0.663 1.794-0.392 2.089 0.424 0.008 0.012 0.020 0.020 0.032 0.032-0.008 0.299-0.008 0.578-0.008 0.853zM17.96 19.758c0.032-0.032 0.069-0.073 0.109-0.117 1.273-1.438 2.537-2.873 3.806-4.311 0.481-0.541 0.958-1.079 1.43-1.62 0.238-0.275 0.19-0.614-0.105-0.756-0.222-0.109-0.404-0.032-0.582 0.129-1.552 1.374-3.115 2.752-4.675 4.125-0.453 0.4-0.909 0.8-1.349 1.192 0.457 0.461 0.905 0.905 1.366 1.358zM13.81 22.319c0.093 0.008 0.133 0.012 0.186 0.012 0.594-0.008 1.196 0.020 1.794-0.020 0.889-0.057 1.608-0.735 1.745-1.62 0.012-0.085-0.024-0.214-0.085-0.275-0.493-0.505-0.99-1.006-1.499-1.499-0.061-0.061-0.19-0.105-0.275-0.093-0.412 0.069-0.768 0.25-1.063 0.545-0.4 0.404-0.578 0.889-0.578 1.455-0.016 0.501 0.044 1.002-0.226 1.495z"></path>
<path d="M7.846 27.834c-0.315-0.141-0.638-0.259-0.925-0.436-0.19-0.117-0.331-0.331-0.521-0.529 0.259-0.154 0.473-0.275 0.707-0.412 0.327 0.529 0.824 0.594 1.382 0.594 2.707-0.012 5.414-0.008 8.125-0.008 0.865 0 1.337-0.469 1.337-1.333 0-0.331 0-0.659 0-1.014-2.364 0-4.703 0-7.063 0 0-0.271 0-0.517 0-0.788 2.339 0 4.687 0 7.050 0 0-0.533 0-1.038 0-1.56 0.271 0 0.517 0 0.8 0 0 0.093 0 0.186 0 0.275 0 1.014 0 2.028 0 3.038 0 1.168-0.521 1.842-1.653 2.137-0.012 0.008-0.024 0.020-0.036 0.024-3.063 0.012-6.133 0.012-9.204 0.012z"></path>
<path d="M18.764 11.333c-1.386 0-2.776 0-4.162 0-0.453 0-0.57-0.117-0.57-0.57 0-1.467 0-2.929 0-4.396 0-0.412 0.129-0.541 0.533-0.541 2.792 0 5.58 0 8.376 0 0.392 0 0.521 0.129 0.521 0.521 0 1.479 0 2.962 0 4.44 0 0.416-0.121 0.541-0.554 0.541-1.386 0.004-2.768 0.004-4.145 0.004zM22.671 6.622c-2.622 0-5.224 0-7.846 0 0 1.309 0 2.598 0 3.907 2.614 0 5.224 0 7.846 0 0-1.309 0-2.59 0-3.907z"></path>
<path d="M6.17 21.939c0-0.659 0-1.297 0-1.947 0.271 0 0.517 0 0.78 0 0 0.638 0 1.277 0 1.947 0.097 0 0.178 0 0.259 0 0.8 0 1.596 0 2.396 0 0.364 0 0.497 0.133 0.497 0.505 0 0.978 0 1.947 0 2.921 0 0.364-0.133 0.497-0.505 0.497-2.808 0-5.62 0-8.424 0-0.38 0-0.505-0.129-0.505-0.517 0-0.966 0-1.935 0-2.897 0-0.376 0.133-0.509 0.517-0.509 1.568 0 3.131 0 4.699 0 0.081 0 0.166 0 0.287 0zM1.455 25.063c2.622 0 5.232 0 7.846 0 0-0.78 0-1.552 0-2.319-2.622 0-5.232 0-7.846 0 0 0.78 0 1.535 0 2.319z"></path>
<path d="M3.026 9.754c-0.618 0-1.24 0-1.867 0-0.364 0-0.497-0.133-0.497-0.505 0-0.978 0-1.947 0-2.921 0-0.364 0.141-0.505 0.505-0.505 1.232 0 2.469 0 3.709 0 0.368 0 0.505 0.129 0.505 0.497 0 0.982 0 1.964 0 2.945 0 0.356-0.133 0.485-0.493 0.485-0.622 0.004-1.24 0.004-1.863 0.004zM4.582 6.63c-1.050 0-2.081 0-3.119 0 0 0.788 0 1.547 0 2.319 1.050 0 2.081 0 3.119 0z"></path>
<path d="M12.84 25.499c0 0.25 0 0.497 0 0.756-0.259 0-0.497 0-0.756 0 0-0.25 0-0.497 0-0.756 0.238 0 0.489 0 0.756 0z"></path>
<path d="M15.596 8.982c2.105 0 4.182 0 6.275 0 0 0.251 0 0.497 0 0.76-0.085 0.008-0.162 0.012-0.234 0.012-1.927 0-3.851 0-5.778 0.008-0.21 0-0.295-0.049-0.271-0.263 0.020-0.162 0.008-0.327 0.008-0.517z"></path>
<path d="M21.871 8.166c-1.297 0-2.59 0-3.899 0 0-0.25 0-0.493 0-0.756 1.297 0 2.586 0 3.899 0 0 0.25 0 0.497 0 0.756z"></path>
<path d="M15.608 7.41c0.529 0 1.030 0 1.547 0 0 0.259 0 0.497 0 0.756-0.517 0-1.026 0-1.547 0 0-0.25 0-0.493 0-0.756z"></path>
<path d="M5.010 23.523c1.172 0 2.335 0 3.507 0 0 0.25 0 0.497 0 0.756-1.168 0-2.327 0-3.507 0 0-0.242 0-0.485 0-0.756z"></path>
<path d="M4.202 23.527c0 0.25 0 0.493 0 0.743-0.646 0-1.289 0-1.947 0 0-0.238 0-0.485 0-0.743 0.638 0 1.281 0 1.947 0z"></path>
<path d="M3.79 8.178c-0.517 0-1.014 0-1.535 0 0-0.25 0-0.505 0-0.76 0.509 0 1.014 0 1.535 0 0 0.242 0 0.489 0 0.76z"></path>
</symbol>
<symbol id="icon-vector" viewBox="0 0 32 32">
<path fill="#40975f" style="fill: var(--color1, #40975f)" d="M31.629 2.166c-0.099 0.222-0.173 0.461-0.288 0.675-0.478 0.865-1.565 1.186-2.43 0.717-0.173-0.099-0.329-0.222-0.47-0.371-0.14-0.156-0.214-0.371-0.338-0.544-0.049-0.074-0.14-0.165-0.214-0.165-1.977-0.008-3.945-0.008-5.955-0.008 0.42 0.239 0.815 0.445 1.186 0.684 0.717 0.461 1.433 0.923 2.125 1.417 0.371 0.264 0.42 0.642 0.181 0.931s-0.601 0.305-0.955 0.016c-1.417-1.153-3.031-1.919-4.777-2.422-0.651-0.189-1.31-0.362-2.010-0.552 0 0.247 0.008 0.412 0 0.577-0.016 0.395-0.247 0.642-0.634 0.651-0.815 0.008-1.623 0.008-2.438 0-0.371-0.008-0.61-0.255-0.626-0.626-0.008-0.173 0-0.346 0-0.568-2.471 0.511-4.753 1.326-6.729 2.883-0.165 0.132-0.362 0.222-0.568 0.255-0.264 0.025-0.461-0.148-0.552-0.412-0.099-0.247-0.008-0.535 0.214-0.684 0.692-0.478 1.384-0.955 2.092-1.417 0.404-0.255 0.824-0.478 1.268-0.725-0.082-0.008-0.156-0.016-0.222-0.016-1.862 0-3.723 0-5.585-0.008-0.189 0-0.297 0.041-0.371 0.222-0.527 1.244-2.15 1.409-2.965 0.494-0.247-0.28-0.354-0.684-0.527-1.030v-0.618c0.181-0.791 0.692-1.31 1.507-1.524h0.618c0.667 0.189 1.186 0.56 1.433 1.219h10.354c0.016-0.461-0.099-0.964 0.437-1.219h2.842c0.544 0.255 0.412 0.782 0.437 1.227h10.354c0.255-0.675 0.766-1.046 1.433-1.227h0.618c0.815 0.214 1.326 0.733 1.54 1.54 0.016 0.214 0.016 0.42 0.016 0.626zM16.432 1.26h-1.211v1.194h1.211v-1.194zM2.471 1.845c-0.008-0.329-0.28-0.601-0.61-0.61-0.346 0-0.618 0.28-0.618 0.626 0.008 0.329 0.28 0.601 0.61 0.61 0.338 0 0.618-0.272 0.618-0.61 0-0.008 0-0.008 0-0.016zM29.784 2.471c0.346-0.016 0.61-0.297 0.61-0.642-0.008-0.338-0.288-0.618-0.626-0.61s-0.618 0.288-0.61 0.626c0 0.346 0.28 0.626 0.626 0.626v0z"></path>
<path fill="#40975f" style="fill: var(--color1, #40975f)" d="M0 14.151c0.239-0.346 0.239-0.346 1.318-0.453 0.173-0.733 0.288-1.474 0.527-2.183 0.321-0.947 0.733-1.87 1.128-2.792 0.173-0.404 0.544-0.535 0.881-0.362 0.321 0.165 0.404 0.552 0.239 0.939-0.387 0.939-0.791 1.87-1.137 2.817-0.181 0.494-0.247 1.038-0.371 1.598 0.206 0 0.371-0.008 0.527 0 0.338 0.025 0.585 0.255 0.593 0.593 0.016 0.857 0.008 1.705 0 2.562 0.008 0.329-0.255 0.601-0.585 0.61-0.008 0-0.016 0-0.025 0-0.824 0.008-1.647 0-2.471 0-0.305 0-0.478-0.198-0.626-0.428 0-0.964 0-1.936 0-2.899zM2.471 15.040h-1.211v1.186h1.211v-1.186z"></path>
<path fill="#40975f" style="fill: var(--color1, #40975f)" d="M31.629 17.050c-0.181 0.329-0.461 0.453-0.84 0.437-0.708-0.025-1.417-0.008-2.125-0.008-0.511 0-0.733-0.231-0.741-0.733v-2.224c0-0.61 0.198-0.807 0.815-0.815 0.091 0 0.181-0.008 0.28-0.016-0.206-1.425-0.642-2.8-1.301-4.077-0.066-0.132-0.14-0.255-0.198-0.379-0.157-0.362-0.033-0.75 0.288-0.898s0.675-0.025 0.84 0.346c0.371 0.84 0.766 1.68 1.054 2.553 0.264 0.783 0.412 1.606 0.626 2.455 0.42 0.058 1.005-0.173 1.301 0.437v2.924zM30.377 15.032h-1.194v1.194h1.194v-1.194z"></path>
<path fill="#fff" style="fill: var(--color2, #fff)" d="M31.629 1.549c-0.214-0.815-0.733-1.326-1.54-1.54h1.54v1.54z"></path>
<path fill="#40975f" style="fill: var(--color1, #40975f)" d="M20.139 27.956v3.179c0 0.593-0.206 0.807-0.791 0.807h-7.075c-0.568 0-0.783-0.214-0.783-0.782v-3.204c-0.074-0.033-0.14-0.066-0.214-0.107-1.26-0.659-1.392-2.413-0.222-3.229 0.206-0.14 0.206-0.247 0.132-0.445-0.692-1.837-1.367-3.674-2.067-5.51-0.115-0.264-0.099-0.577 0.058-0.824 0.494-0.89 0.98-1.787 1.466-2.677 1.095-2.026 2.191-4.044 3.287-6.071 0.428-0.799 0.848-1.59 1.277-2.397 0.132-0.255 0.297-0.445 0.61-0.453 0.321-0.008 0.494 0.198 0.634 0.461 1.425 2.636 2.858 5.272 4.291 7.916 0.585 1.071 1.153 2.158 1.738 3.229 0.14 0.255 0.165 0.56 0.049 0.824-0.692 1.837-1.376 3.674-2.067 5.51-0.074 0.206-0.066 0.305 0.132 0.445 1.153 0.799 1.038 2.553-0.206 3.212-0.082 0.033-0.157 0.074-0.247 0.115zM10.56 18.903c0.008 0.049 0.016 0.107 0.033 0.157 0.626 1.672 1.252 3.344 1.87 5.024 0.074 0.198 0.198 0.198 0.354 0.198 1.993 0 3.995-0.008 5.988 0 0.214 0 0.321-0.049 0.404-0.264 0.593-1.623 1.203-3.237 1.796-4.851 0.025-0.074 0.041-0.157 0.074-0.255h-0.297c-0.42 0-0.84 0.008-1.268-0.008-0.329 0-0.601-0.264-0.601-0.593 0-0.008 0-0.016 0-0.025 0-0.338 0.272-0.61 0.61-0.61 0.14-0.008 0.288 0 0.428 0h1.005c-1.507-2.784-2.982-5.502-4.448-8.229-0.016 0.008-0.041 0.016-0.058 0.025v7.067c0.066 0.033 0.132 0.066 0.189 0.099 0.923 0.453 1.301 1.565 0.848 2.479-0.453 0.923-1.565 1.301-2.479 0.848-0.486-0.239-0.84-0.675-0.98-1.203-0.222-0.84 0.173-1.713 0.947-2.1 0.173-0.091 0.231-0.181 0.231-0.371-0.008-2.191-0.008-4.382-0.008-6.573v-0.231c-0.025-0.008-0.041-0.016-0.066-0.016-1.474 2.726-2.949 5.461-4.431 8.196 0.033 0.008 0.074 0.016 0.107 0.025h1.17c0.47 0 0.758 0.239 0.75 0.626-0.008 0.371-0.288 0.61-0.741 0.61-0.461-0.025-0.923-0.025-1.425-0.025zM12.742 30.69h6.145v-2.619h-6.145v2.619zM15.798 26.811h3.575c0.437 0 0.75-0.272 0.758-0.667 0.008-0.379-0.28-0.634-0.741-0.634h-7.158c-0.453 0-0.733 0.231-0.741 0.601-0.008 0.395 0.313 0.692 0.758 0.692 1.186 0.008 2.372 0.008 3.55 0.008v0zM16.432 18.286c-0.008-0.329-0.272-0.601-0.601-0.61-0.346 0-0.626 0.272-0.626 0.618 0 0.329 0.272 0.601 0.601 0.61 0.346 0 0.626-0.272 0.626-0.618v0z"></path>
<path fill="#40975f" style="fill: var(--color1, #40975f)" d="M4.967 6.244c0.338 0.016 0.61 0.305 0.593 0.642s-0.305 0.61-0.642 0.593-0.61-0.305-0.593-0.642c0-0.008 0-0.008 0-0.016 0.033-0.329 0.313-0.577 0.642-0.577z"></path>
<path fill="#40975f" style="fill: var(--color1, #40975f)" d="M26.679 6.244c0.338-0.008 0.618 0.264 0.626 0.601s-0.264 0.618-0.601 0.626c-0.338 0.008-0.618-0.264-0.626-0.601 0-0.008 0-0.008 0-0.016 0.008-0.329 0.272-0.601 0.601-0.61z"></path>
</symbol>
<symbol id="icon-web-design" viewBox="0 0 25 32">
<path d="M23.984 11.547c0 5.063 0 10.121 0 15.184-0.141 0.497-0.461 0.812-0.954 0.954-6.881 0-13.758 0-20.638 0-0.057-0.020-0.117-0.036-0.17-0.049-0.711-0.19-1.184-0.618-1.418-1.313-0.032-0.093-0.061-0.182-0.093-0.275 0-6.667 0-13.333 0-20 0.129-0.449 0.291-0.885 0.687-1.16 0.291-0.198 0.63-0.319 0.954-0.477 3.556 0 7.123 0 10.679 0 0.012 0.012 0.024 0.024 0.036 0.032 1.107 0.303 1.608 0.958 1.608 2.105 0 1.273 0 2.545 0 3.818 0 0.081 0.004 0.158 0.012 0.263 0.121 0 0.218 0 0.315 0 2.558 0 5.123 0 7.681 0 0.699 0 1.042 0.242 1.277 0.897-0.004 0 0.012 0.008 0.024 0.020zM10.024 19.139c0 2.4 0 4.8 0 7.208 0 0.457 0.109 0.558 0.562 0.558 4.012 0 8.032 0 12.040 0 0.469 0 0.582-0.109 0.582-0.57 0-4.796 0-9.588 0-14.384 0-0.448-0.109-0.558-0.57-0.558-4.024 0-8.044 0-12.069 0-0.448 0-0.554 0.101-0.554 0.545 0.008 2.4 0.008 4.8 0.008 7.2zM9.232 23.794c0-0.659 0-1.293 0-1.931-0.226 0-0.424 0-0.63 0-0.61 0-0.901-0.291-0.901-0.905 0-1.192 0-2.396 0-3.588 0-0.659 0.279-0.933 0.937-0.933 0.202 0 0.4 0 0.594 0 0-0.541 0-1.038 0-1.556-0.105 0-0.194 0-0.287 0-1.814 0-3.62 0-5.43 0-0.554 0-0.861-0.299-0.861-0.832-0.008-1.265-0.008-2.525 0-3.794 0-0.485 0.319-0.8 0.8-0.8 2.824 0 5.649 0 8.473 0 0.461 0 0.772 0.299 0.8 0.752 0.004 0.125 0 0.255 0 0.388 0.404 0 0.776 0 1.143 0 0-0.776 0-1.539 0-2.303-4.133 0-8.246 0-12.376 0 0 5.168 0 10.335 0 15.495 2.59 0.008 5.152 0.008 7.737 0.008zM13.899 7.499c0-0.396 0.004-0.772 0-1.143-0.012-0.663-0.505-1.164-1.172-1.164-3.358-0.008-6.707-0.008-10.069 0-0.594 0-1.083 0.408-1.143 0.986-0.048 0.428-0.012 0.873-0.012 1.321 4.121 0 8.242 0 12.396 0zM9.232 26.129c-0.093 0-0.17 0-0.255 0-1.006 0-2.012 0-3.018 0-0.061 0-0.121 0-0.182 0-0.25-0.012-0.412-0.174-0.408-0.396 0.004-0.218 0.17-0.376 0.424-0.376 1.063 0 2.121 0 3.184 0 0.085 0 0.174 0 0.259 0 0-0.279 0-0.517 0-0.764-2.582 0-5.152 0-7.745 0 0 0.352 0 0.691 0 1.026 0 0.804 0.481 1.285 1.285 1.285 2.097 0 4.194 0 6.291 0 0.077 0 0.158 0 0.226 0-0.028-0.275-0.044-0.509-0.061-0.776zM11.947 10.242c-2.844 0-5.673 0-8.505 0 0 1.285 0 2.558 0 3.867 0.085-0.081 0.145-0.133 0.198-0.194 0.764-0.764 1.535-1.535 2.295-2.299 0.307-0.307 0.465-0.307 0.784 0 0.4 0.4 0.8 0.808 1.208 1.212 0.404-0.384 0.792-0.739 1.176-1.103 0.032-0.032 0.073-0.057 0.097-0.097 0.032-0.049 0.061-0.101 0.077-0.158 0.19-0.566 0.57-0.853 1.164-0.869 0.368-0.004 0.739 0 1.115 0 0.129 0 0.251 0 0.384 0 0.008-0.129 0.008-0.234 0.008-0.36zM4.646 14.085c1.119 0 2.263 0 3.39 0-0.57-0.57-1.139-1.139-1.693-1.689zM8.493 17.224c0 1.305 0 2.578 0 3.851 0.259 0 0.497 0 0.739 0 0-1.293 0-2.566 0-3.851-0.255 0-0.493 0-0.739 0zM8.545 13.321c0.242 0.246 0.473 0.485 0.687 0.703 0-0.404 0-0.848 0-1.337-0.263 0.246-0.497 0.465-0.687 0.634z"></path>
<path d="M11.96 22.638c0 0.097 0 0.182 0 0.259 0 0.541 0 1.075 0 1.612 0 0.287-0.141 0.444-0.372 0.448-0.242 0.008-0.4-0.158-0.4-0.448-0.008-0.614-0.008-1.224 0-1.842 0.004-0.497 0.327-0.804 0.82-0.804 0.606-0.008 1.212 0 1.818 0 0.283 0 0.465 0.154 0.465 0.38s-0.178 0.388-0.461 0.388c-0.618 0.008-1.232 0.008-1.871 0.008z"></path>
<path d="M11.96 18.372c0 0.594 0 1.151 0 1.709 0 0.097 0.004 0.202-0.012 0.299-0.032 0.198-0.158 0.307-0.36 0.315s-0.335-0.093-0.384-0.287c-0.016-0.073-0.024-0.154-0.024-0.226 0-0.57 0-1.131 0-1.705 0-0.578 0.307-0.885 0.885-0.885 0.586 0 1.184-0.004 1.77 0 0.327 0 0.521 0.242 0.42 0.517-0.065 0.186-0.214 0.263-0.404 0.263-0.541 0-1.075 0-1.612 0-0.081 0-0.166 0-0.279 0z"></path>
<path d="M11.96 14.101c0 0.602 0 1.16 0 1.717 0 0.097 0 0.202-0.012 0.295-0.032 0.202-0.166 0.311-0.36 0.315s-0.335-0.093-0.384-0.291c-0.016-0.073-0.016-0.154-0.016-0.222 0-0.57-0.008-1.135 0-1.705 0-0.578 0.315-0.881 0.885-0.885 0.586 0 1.184-0.008 1.77 0 0.335 0.004 0.529 0.267 0.412 0.537-0.073 0.178-0.218 0.238-0.404 0.238-0.541 0-1.075 0-1.612 0-0.085 0-0.166 0-0.279 0z"></path>
<path d="M13.83 23.984c0.162-0.242 0.303-0.461 0.448-0.675 0.279-0.412 0.55-0.832 0.828-1.244 0.145-0.214 0.364-0.267 0.545-0.145 0.186 0.121 0.238 0.352 0.105 0.558-0.505 0.764-1.006 1.527-1.523 2.283-0.17 0.25-0.416 0.267-0.638 0.057-0.242-0.238-0.485-0.481-0.719-0.723-0.17-0.174-0.174-0.412-0.020-0.562 0.162-0.158 0.384-0.158 0.566 0.024 0.133 0.129 0.255 0.271 0.408 0.428z"></path>
<path d="M13.818 19.729c0.121-0.182 0.214-0.315 0.303-0.457 0.327-0.493 0.655-0.982 0.982-1.475 0.145-0.214 0.36-0.267 0.545-0.145 0.194 0.121 0.238 0.356 0.093 0.578-0.497 0.752-0.994 1.495-1.495 2.242-0.182 0.271-0.432 0.291-0.667 0.065-0.238-0.23-0.473-0.465-0.703-0.707-0.174-0.182-0.182-0.408-0.024-0.566s0.38-0.158 0.562 0.020c0.141 0.133 0.259 0.279 0.404 0.444z"></path>
<path d="M13.818 15.455c0.073-0.101 0.121-0.17 0.162-0.234 0.364-0.545 0.727-1.099 1.091-1.644 0.17-0.251 0.396-0.315 0.594-0.174 0.194 0.133 0.218 0.356 0.053 0.598-0.485 0.727-0.97 1.463-1.459 2.19-0.202 0.295-0.444 0.319-0.699 0.073-0.222-0.222-0.448-0.448-0.671-0.675-0.19-0.194-0.206-0.416-0.049-0.582 0.162-0.17 0.4-0.158 0.598 0.040 0.129 0.125 0.246 0.259 0.38 0.408z"></path>
<path d="M18.776 13.721c0.424 0 0.849 0 1.273 0 0.279 0 0.436 0.145 0.436 0.384 0 0.23-0.166 0.388-0.436 0.388-0.865 0.004-1.741 0.004-2.606 0-0.267 0-0.436-0.158-0.44-0.388 0-0.23 0.17-0.384 0.436-0.388 0.448 0.004 0.897 0.004 1.337 0.004z"></path>
<path d="M18.752 17.988c0.432 0 0.861 0 1.293 0 0.279 0 0.436 0.141 0.44 0.376 0.008 0.242-0.162 0.396-0.448 0.4-0.861 0.004-1.721 0.004-2.59 0-0.279 0-0.457-0.17-0.448-0.408 0.008-0.222 0.178-0.368 0.457-0.368 0.432 0 0.865 0 1.297 0z"></path>
<path d="M18.727 23.022c-0.436 0-0.881 0.008-1.317 0-0.198-0.008-0.352-0.097-0.396-0.311-0.036-0.174 0.024-0.319 0.178-0.404 0.073-0.040 0.17-0.061 0.259-0.061 0.861-0.008 1.721-0.008 2.582 0 0.287 0 0.44 0.141 0.448 0.372 0.008 0.242-0.158 0.4-0.44 0.4-0.44 0.012-0.877 0.012-1.313 0.004v0z"></path>
<path d="M20.093 16.040c-0.242 0-0.485 0.008-0.719 0-0.263-0.004-0.436-0.17-0.424-0.4 0.004-0.218 0.174-0.372 0.424-0.376 0.489-0.004 0.982-0.004 1.471 0 0.263 0 0.416 0.145 0.424 0.376 0.008 0.234-0.158 0.388-0.416 0.4-0.008 0-0.012 0-0.024 0-0.25 0-0.493 0-0.735 0z"></path>
<path d="M20.113 19.539c0.242 0 0.485-0.004 0.719 0 0.263 0.008 0.42 0.145 0.42 0.372 0.004 0.226-0.154 0.396-0.4 0.4-0.501 0.004-1.014 0.004-1.515 0-0.242-0.008-0.412-0.182-0.408-0.4 0.004-0.214 0.17-0.364 0.408-0.372 0.263-0.008 0.525 0 0.776 0z"></path>
<path d="M20.097 23.806c0.246 0 0.497-0.004 0.752 0 0.259 0.008 0.412 0.154 0.412 0.384 0 0.222-0.158 0.384-0.412 0.388-0.493 0.008-0.982 0.008-1.479 0-0.263-0.004-0.436-0.174-0.432-0.4 0.008-0.218 0.17-0.364 0.432-0.372 0.012 0 0.032 0 0.040 0 0.234 0 0.461 0 0.687 0z"></path>
<path d="M21.867 17.988c0.376 0 0.558 0.113 0.566 0.368 0.008 0.263-0.19 0.4-0.566 0.4-0.093 0-0.182 0.004-0.275-0.012-0.198-0.036-0.339-0.214-0.327-0.4 0.012-0.194 0.166-0.339 0.376-0.36 0.073 0.004 0.154 0.004 0.226 0.004z"></path>
<path d="M21.834 14.509c-0.109-0.016-0.23-0.016-0.335-0.053-0.174-0.069-0.255-0.214-0.23-0.4 0.024-0.182 0.133-0.307 0.327-0.327 0.141-0.020 0.287-0.012 0.432-0.008 0.234 0.008 0.4 0.166 0.4 0.376 0.008 0.206-0.158 0.376-0.388 0.396-0.069 0.004-0.133 0-0.206 0 0 0.004 0 0.012 0 0.016z"></path>
<path d="M17.592 23.806c0.388 0 0.57 0.121 0.57 0.388-0.008 0.259-0.194 0.388-0.582 0.38-0.093 0-0.182 0.008-0.275-0.016-0.206-0.049-0.311-0.182-0.311-0.396 0-0.202 0.154-0.347 0.364-0.364 0.085 0.004 0.166 0.008 0.234 0.008z"></path>
<path d="M21.863 23.038c-0.105-0.012-0.214-0.012-0.315-0.036-0.182-0.049-0.279-0.19-0.275-0.372 0.008-0.194 0.109-0.335 0.311-0.364 0.158-0.024 0.315-0.016 0.473-0.012 0.226 0.012 0.376 0.17 0.376 0.376 0 0.202-0.145 0.364-0.372 0.388-0.069 0.008-0.133 0-0.206 0 0.008 0.012 0.008 0.012 0.008 0.020z"></path>
<path d="M17.576 16.040c-0.388 0-0.578-0.125-0.57-0.396 0-0.263 0.186-0.384 0.578-0.384 0.061 0 0.121 0 0.182 0 0.234 0.012 0.396 0.166 0.4 0.376 0.004 0.218-0.166 0.38-0.408 0.396-0.061 0.016-0.121 0.008-0.182 0.008z"></path>
<path d="M17.584 19.539c0.065 0 0.133-0.004 0.206 0 0.218 0.012 0.376 0.17 0.38 0.372 0.004 0.198-0.145 0.376-0.364 0.396-0.125 0.012-0.255 0.012-0.388 0.008-0.246-0.012-0.412-0.17-0.412-0.388s0.17-0.376 0.416-0.38c0.049-0.008 0.105-0.008 0.162-0.008v0z"></path>
<path d="M5.556 21.863c-0.303 0-0.606 0-0.901 0-0.275 0-0.436-0.145-0.444-0.376-0.004-0.242 0.166-0.396 0.449-0.396 0.606 0 1.208 0 1.814 0 0.275 0 0.44 0.145 0.44 0.376 0.004 0.234-0.17 0.396-0.449 0.396-0.303 0-0.606 0-0.909 0z"></path>
<path d="M5.576 19.539c0.303 0 0.606 0 0.905 0 0.267 0.008 0.436 0.158 0.428 0.388 0 0.226-0.162 0.38-0.42 0.38-0.622 0.008-1.257 0.008-1.879 0-0.246 0-0.412-0.17-0.404-0.396 0-0.23 0.158-0.376 0.416-0.376 0.319-0.004 0.638 0.004 0.954 0.004z"></path>
<path d="M5.572 17.988c0.307 0 0.618-0.008 0.933 0 0.246 0.004 0.4 0.145 0.412 0.364 0.012 0.222-0.145 0.4-0.396 0.404-0.638 0.008-1.273 0.008-1.911 0-0.246-0.008-0.404-0.174-0.4-0.4 0.004-0.218 0.158-0.364 0.404-0.364 0.319-0.012 0.634-0.004 0.958-0.004z"></path>
<path d="M5.572 16.436c0.303 0 0.606-0.004 0.909 0 0.275 0.008 0.436 0.158 0.436 0.388s-0.162 0.38-0.44 0.388c-0.606 0.008-1.212 0.008-1.818 0-0.291 0-0.457-0.158-0.449-0.4 0.004-0.23 0.162-0.372 0.449-0.372 0.307-0.008 0.61-0.004 0.913-0.004z"></path>
<path d="M3.426 21.479c-0.004 0.206-0.194 0.388-0.4 0.384-0.218-0.008-0.376-0.182-0.372-0.408 0.008-0.214 0.17-0.368 0.38-0.368 0.214 0.004 0.396 0.186 0.392 0.392z"></path>
<path d="M3.042 20.311c-0.214 0-0.38-0.178-0.38-0.396 0-0.214 0.158-0.372 0.368-0.376 0.214-0.004 0.396 0.166 0.4 0.376 0 0.206-0.182 0.396-0.388 0.396z"></path>
<path d="M3.426 16.836c-0.012 0.214-0.198 0.384-0.408 0.368-0.214-0.012-0.376-0.186-0.356-0.412 0.012-0.206 0.174-0.364 0.388-0.36s0.388 0.194 0.376 0.404z"></path>
<path d="M3.046 17.988c0.214 0.004 0.388 0.182 0.38 0.396-0.004 0.202-0.186 0.368-0.38 0.376-0.214 0.008-0.388-0.17-0.388-0.388 0.004-0.218 0.166-0.384 0.388-0.384z"></path>
<path d="M8.659 6.731c-0.19 0-0.376 0.004-0.57 0-0.242-0.004-0.388-0.158-0.396-0.38 0-0.218 0.154-0.38 0.388-0.388 0.388-0.012 0.772-0.012 1.16 0 0.234 0.008 0.388 0.178 0.384 0.396-0.008 0.218-0.154 0.364-0.4 0.376-0.186 0.004-0.376-0.004-0.566-0.004z"></path>
<path d="M6.323 6.731c-0.388 0-0.57-0.125-0.566-0.396 0.004-0.255 0.186-0.38 0.558-0.38 0.073 0 0.154-0.004 0.226 0.004 0.23 0.024 0.38 0.194 0.368 0.408-0.012 0.206-0.162 0.351-0.388 0.364-0.065 0-0.133 0-0.198 0z"></path>
</symbol>
</defs>
</svg>
