<svg xmlns="http://www.w3.org/2000/svg" width="434.682" height="397.345" viewBox="0 0 434.682 397.345">
  <g id="Group_21" data-name="Group 21" transform="translate(-36.781 -51.197)">
    <rect id="Rectangle_1" data-name="Rectangle 1" width="55.142" height="55.142" rx="9.95" transform="translate(67.371 224.87)" fill="#96fffa" opacity="0.58"/>
    <rect id="Rectangle_2" data-name="Rectangle 2" width="51.416" height="52.897" rx="9.411" transform="translate(103.2 155.195)" fill="#fcddfc"/>
    <rect id="Rectangle_3" data-name="Rectangle 3" width="25.708" height="26.448" rx="4.705" transform="translate(80.818 90.977)" fill="#fcddfc"/>
    <rect id="Rectangle_4" data-name="Rectangle 4" width="25.708" height="26.448" rx="4.705" transform="translate(243.817 227.402)" fill="#fcddfc"/>
    <rect id="Rectangle_5" data-name="Rectangle 5" width="25.708" height="26.448" rx="4.705" transform="translate(267.25 104.201)" fill="#fcddfc"/>
    <rect id="Rectangle_6" data-name="Rectangle 6" width="25.708" height="26.448" rx="4.705" transform="translate(413.26 100.928)" fill="#fcddfc"/>
    <rect id="Rectangle_7" data-name="Rectangle 7" width="16.59" height="17.068" rx="3.037" transform="translate(50.303 63.024)" fill="#fcddfc"/>
    <path id="Rectangle_8" data-name="Rectangle 8" d="M3.036,0H13.554A3.037,3.037,0,0,1,16.59,3.037v11a3.037,3.037,0,0,1-3.037,3.037H3.036A3.036,3.036,0,0,1,0,14.032v-11A3.036,3.036,0,0,1,3.036,0Z" transform="translate(198.75 71.558)" fill="#fcddfc"/>
    <path id="Rectangle_9" data-name="Rectangle 9" d="M3.036,0H13.554A3.036,3.036,0,0,1,16.59,3.036v11a3.037,3.037,0,0,1-3.037,3.037H3.037A3.037,3.037,0,0,1,0,14.032v-11A3.036,3.036,0,0,1,3.036,0Z" transform="translate(79.515 319.51)" fill="#fcddfc"/>
    <path id="Rectangle_10" data-name="Rectangle 10" d="M3.037,0H13.554A3.036,3.036,0,0,1,16.59,3.036v11a3.036,3.036,0,0,1-3.036,3.036H3.037A3.037,3.037,0,0,1,0,14.032v-11A3.037,3.037,0,0,1,3.037,0Z" transform="translate(412.801 394.623)" fill="#fcddfc"/>
    <path id="Rectangle_11" data-name="Rectangle 11" d="M3.036,0H13.554A3.036,3.036,0,0,1,16.59,3.036v11a3.037,3.037,0,0,1-3.037,3.037H3.037A3.037,3.037,0,0,1,0,14.032v-11A3.036,3.036,0,0,1,3.036,0Z" transform="translate(278.04 353.998)" fill="#fcddfc"/>
    <rect id="Rectangle_12" data-name="Rectangle 12" width="13.554" height="13.944" rx="2.481" transform="translate(412.817 152.131)" fill="#fcddfc"/>
    <rect id="Rectangle_13" data-name="Rectangle 13" width="13.554" height="13.944" rx="2.481" transform="translate(351.118 93.144)" fill="#96fffa" opacity="0.58"/>
    <rect id="Rectangle_14" data-name="Rectangle 14" width="13.554" height="13.944" rx="2.481" transform="translate(96.423 69.313)" fill="#96fffa" opacity="0.58"/>
    <rect id="Rectangle_15" data-name="Rectangle 15" width="13.554" height="13.944" rx="2.481" transform="translate(43.526 104.201)" fill="#96fffa" opacity="0.58"/>
    <rect id="Rectangle_16" data-name="Rectangle 16" width="13.554" height="13.944" rx="2.481" transform="translate(215.889 194.629)" fill="#96fffa" opacity="0.58"/>
    <rect id="Rectangle_17" data-name="Rectangle 17" width="13.554" height="13.944" rx="2.481" transform="translate(429.319 160.351)" fill="#96fffa" opacity="0.58"/>
    <path id="Rectangle_18" data-name="Rectangle 18" d="M3.036,0H13.554A3.037,3.037,0,0,1,16.59,3.037v11a3.037,3.037,0,0,1-3.037,3.037H3.037A3.037,3.037,0,0,1,0,14.032v-11A3.036,3.036,0,0,1,3.036,0Z" transform="translate(364.705 108.891)" fill="#fcddfc"/>
    <path id="Rectangle_19" data-name="Rectangle 19" d="M3.037,0H13.554A3.037,3.037,0,0,1,16.59,3.037v11a3.037,3.037,0,0,1-3.037,3.037H3.036A3.036,3.036,0,0,1,0,14.032v-11A3.037,3.037,0,0,1,3.037,0Z" transform="translate(198.282 124.198)" fill="#fcddfc"/>
    <path id="Rectangle_20" data-name="Rectangle 20" d="M3.037,0H13.554A3.036,3.036,0,0,1,16.59,3.036v11a3.036,3.036,0,0,1-3.036,3.036H3.037A3.037,3.037,0,0,1,0,14.032v-11A3.037,3.037,0,0,1,3.037,0Z" transform="translate(225.456 168.819)" fill="#fcddfc"/>
    <path id="Rectangle_21" data-name="Rectangle 21" d="M3.036,0H13.554A3.036,3.036,0,0,1,16.59,3.036v11a3.037,3.037,0,0,1-3.037,3.037H3.037A3.037,3.037,0,0,1,0,14.032v-11A3.036,3.036,0,0,1,3.036,0Z" transform="translate(441.371 185.887)" fill="#fcddfc"/>
    <circle id="Ellipse_1" data-name="Ellipse 1" cx="89.86" cy="89.86" r="89.86" transform="translate(269.946 201.858)" fill="#96fffa" opacity="0.58"/>
    <line id="Line_1" data-name="Line 1" y1="0.079" transform="translate(322.608 109.545)" fill="none"/>
    <g id="Group_1" data-name="Group 1" transform="translate(-675 -15)">
      <path id="Path_18" data-name="Path 18" d="M801.794,342.988c-10.586-11.041-31.295-28.689-21.645-46.006,11.84-21.245,52.45-14.86,71.191-9.46,17.047,4.912,33.489,14.954,29.684,35.233-1.594,8.494-8.609,14.231-10.843,22.184-3.8-1.371-9.143-.309-13.323-.526,1.454-5.6.475-11.883-3.9-15.923-6.556-6.049-24.771-14.6-33.983-11.436-12.547,4.311,3.676,24.442,7.772,29.846-5.488-.995-10.794.385-16.449.088" fill="#ccc2fe"/>
      <g id="Group_16" data-name="Group 16">
        <path id="Path_19" data-name="Path 19" d="M787.8,351.617H893.38a4.3,4.3,0,0,0,4.286-4.286h0a4.3,4.3,0,0,0-4.286-4.287H787.8a4.3,4.3,0,0,0-4.287,4.287h0A4.3,4.3,0,0,0,787.8,351.617Z" fill="#ccc2fe"/>
        <path id="Path_20" data-name="Path 20" d="M877.313,442.357h0a1.337,1.337,0,0,0,1.333-1.333v-92.36a1.337,1.337,0,0,0-1.333-1.333h0a1.337,1.337,0,0,0-1.334,1.333v92.36A1.337,1.337,0,0,0,877.313,442.357Z" fill="#ccc2fe"/>
        <path id="Path_21" data-name="Path 21" d="M820.705,442.357h0a1.337,1.337,0,0,0,1.333-1.333v-92.36a1.337,1.337,0,0,0-1.333-1.333h0a1.337,1.337,0,0,0-1.333,1.333v92.36A1.337,1.337,0,0,0,820.705,442.357Z" fill="#ccc2fe"/>
        <path id="Path_22" data-name="Path 22" d="M846.309,444.717h0a1.337,1.337,0,0,0,1.333-1.334v-92.36a1.337,1.337,0,0,0-1.333-1.333h0a1.337,1.337,0,0,0-1.333,1.333v92.36A1.337,1.337,0,0,0,846.309,444.717Z" fill="#ccc2fe"/>
        <path id="Path_23" data-name="Path 23" d="M793.834,442.357h0a1.337,1.337,0,0,0,1.334-1.333v-92.36a1.337,1.337,0,0,0-1.334-1.333h0a1.337,1.337,0,0,0-1.333,1.333v92.36A1.337,1.337,0,0,0,793.834,442.357Z" fill="#ccc2fe"/>
      </g>
    </g>
    <path id="Path_1" data-name="Path 1" d="M1000.24,315.568l1.084,1.983,1.983,1.084-1.983,1.084-1.084,1.983-1.084-1.983-1.983-1.084,1.983-1.084Z" transform="translate(-675 -15)" fill="#eef4f2"/>
    <g id="Group_2" data-name="Group 2" transform="translate(-675 -15)">
      <path id="Path_24" data-name="Path 24" d="M916.012,334.685,907,444.717l16-105.5h110l22.5,105.5-15.5-104,7-.5,28,104.5-26.809-110.032Z" fill="#ccc2fe" stroke="#ccc2fe" stroke-linecap="round" stroke-linejoin="round" stroke-width="2"/>
      <path id="Path_25" data-name="Path 25" d="M926.25,340.718l16,104-10-104Z" fill="#ccc2fe" stroke="#ccc2fe" stroke-linecap="round" stroke-linejoin="round" stroke-width="2"/>
      <path id="Path_26" data-name="Path 26" d="M1048.191,334.685H910.183c-1.751,0-3.183-.873-3.183-1.94h0c0-1.067,1.432-1.94,3.183-1.94h138.008c1.751,0,3.183.873,3.183,1.94h0C1051.374,333.812,1049.942,334.685,1048.191,334.685Z" fill="#8b77e8"/>
      <g id="Group_17" data-name="Group 17">
        <path id="Path_27" data-name="Path 27" d="M981.664,331.815h-27.8a2.993,2.993,0,0,1-2.985-2.985h0a2.994,2.994,0,0,1,2.985-2.986h27.8a2.994,2.994,0,0,1,2.985,2.986h0A2.993,2.993,0,0,1,981.664,331.815Z" fill="#b3a4f5"/>
        <rect id="Rectangle_35" data-name="Rectangle 35" width="66.956" height="50.347" rx="2.757" transform="translate(977.38 281.043)" fill="#ccc2fe"/>
        <path id="Path_28" data-name="Path 28" d="M1022.187,306.856a6.69,6.69,0,1,1-6.69-6.691A6.69,6.69,0,0,1,1022.187,306.856Z" fill="#eef4f2"/>
      </g>
    </g>
    <rect id="Rectangle_22" data-name="Rectangle 22" width="31.523" height="60" rx="12" transform="translate(172.412 272.031)" fill="#745cd4"/>
    <g id="Group_3" data-name="Group 3" transform="translate(-675 -15)">
      <path id="Path_29" data-name="Path 29" d="M832.527,263.031c-1.351-1.882-2.732-3.766-4.078-5.7-4.647-6.681-11.812-16.06-10.129-24.75a13.192,13.192,0,0,1,2.123-.908q.36-.126.774-.249c.008,0,.008-.009.017-.009,1.174-.365,2.577-.752,4.06-1.1a42.242,42.242,0,0,1,8.4-1.3,15.092,15.092,0,0,0,3.1-.83,63.407,63.407,0,0,0,5.955-2.278,28.179,28.179,0,0,0,7.041-5.151c4.771-4.788,6.717-10.222,6.762-12.745a43.292,43.292,0,0,1,.657-6.017l14.448.256c-.016,1.411-.075,2.7-.075,3.662.011,5.749,3.129,10.79,7.228,14.859a47.852,47.852,0,0,0,15.423,9.948c1.139.082,2.613.213,4.227.4,1.659.178,3.466.421,5.194.705.7.109,1.375.226,2.026.36.326.059.644.126.952.193h.017c.159.038.309.067.458.1.264.058.528.124.775.189a.259.259,0,0,1,.088.02c.281.075.545.149.8.224a2.882,2.882,0,0,1,.369.112c.246.074.475.157.686.231a10.2,10.2,0,0,1,4.576,3.113.257.257,0,0,1,.051.063,7.806,7.806,0,0,1,1.419,3.2c.648,3.28.18,7.163.447,11,.16,2.36-10.664,7.5-15.663,10.221a20.1,20.1,0,0,0-2.127,1.277c-1.927,1.455-3.82,3.008-5.618,4.659-.431.386-.863.791-1.277,1.2-4.813,4.673-8.809,10.1-10.754,16.442-.1.349-.216.733-.312,1.152-.038.139-.067.279-.105.427s-.067.288-.1.437c-.067.3-.134.611-.193.934-.477,2.41-.876,5.409-1.206,8.532-.055.586-.119,1.189-.174,1.784l-30.62-.543c-.007-.569-.023-1.14-.031-1.7-.046-1.368-.1-2.71-.193-4-.047-.807-.113-1.588-.2-2.352-.022-.281-.052-.553-.091-.825-.054-.448-.108-.879-.171-1.309-.039-.281-.087-.563-.135-.835s-.1-.536-.154-.8-.1-.519-.163-.774-.115-.493-.181-.731a36.764,36.764,0,0,0-7.632-14.008A62.789,62.789,0,0,0,832.527,263.031Z" fill="#eae9c5"/>
      <path id="Path_30" data-name="Path 30" d="M815.251,234.257a7.135,7.135,0,0,1,5.605-3.845c4.38-.746,8.855-1.173,13.17-2.11.74-.154,1.464-.331,2.188-.524,1-.26,1.977-.559,2.95-.906a31.8,31.8,0,0,0,13.9-9.883c.033-.043.062-.088.094-.131l23.779.422c.035.044.067.09.1.134a30.935,30.935,0,0,0,3.135,3.366c.592.541,1.193,1.075,1.811,1.577,1.211,1,2.474,1.937,3.739,2.791a3.339,3.339,0,0,1,.285.187q.766.5,1.534.978c.142.082.276.171.419.253.512.31,1.015.6,1.519.882.092.049.184.106.276.155.588.328,1.176.639,1.747.926.1.05.185.1.277.14,0,.008.009.008.009.008.462.222.907.444,1.353.642a.3.3,0,0,0,.076.033c.134.074.277.132.411.2.379.165.749.33,1.1.479.152.058.295.124.438.182.387.158.766.307,1.128.44a1.667,1.667,0,0,0,.524.112c1.168.084,2.624.213,4.215.384,1.76.182,3.68.422,5.506.708.743.116,1.462.239,2.155.363.346.061.684.131,1.03.2.169.035.321.061.482.1.279.052.566.121.827.188a.436.436,0,0,1,.093.018c.3.077.574.153.844.229a2.442,2.442,0,0,1,.4.11c.262.076.506.159.725.234a10.924,10.924,0,0,1,4.861,3.112.525.525,0,0,0,.058.065c.157.2.3.409.438.617.05.073.091.152.132.224a5.08,5.08,0,0,1,.262.472c.041.088.082.168.123.248.082.184.155.367.228.551a8.781,8.781,0,0,1,.319,1.09c.7,3.276.2,7.164.488,10.995a.892.892,0,0,1-.039.292c-.009.031-.018.055-.027.079a1,1,0,0,1-.132.274.3.3,0,0,0-.026.056,3.006,3.006,0,0,1-.27.359l-.026.023c-2.051,2.364-9.823,6-14.682,8.413-.128.069-.257.13-.385.191-.1.053-.2.1-.291.145-.256.13-.5.253-.727.375a20.308,20.308,0,0,0-2.261,1.275c-2.044,1.453-4.047,3-5.951,4.647-.456.388-.921.791-1.352,1.195-5.1,4.67-9.338,10.091-11.394,16.431-.108.347-.233.732-.334,1.15-.037.142-.073.284-.11.426s-.073.292-.1.442c-.073.292-.147.607-.2.931-.5,2.415-.929,5.409-1.273,8.531-.053.593-.124,1.194-.185,1.787-.2,1.961-.368,3.93-.512,5.8-.253,3.219-.433,6.146-.539,8.251.021.278.033.555.027.84l-.01.594c-.12,6.659-6.05,12-13.168,11.876l-7.356-.13c-6.119-.109-11.052-4.877-10.949-10.6,0,0,.022-1.187.013-1.188-.03-1.1-.042-2.329-.035-3.675.007-1.814.035-3.809.055-5.876.021-2.107.036-4.3-.01-6.463-.015-.571-.03-1.142-.037-1.7-.052-1.363-.112-2.711-.208-4q-.08-1.212-.212-2.356c-.029-.277-.057-.555-.095-.825-.06-.445-.12-.881-.188-1.31-.038-.278-.092-.564-.146-.834s-.1-.533-.164-.8c-.046-.263-.109-.517-.172-.772s-.119-.493-.191-.732c-1.949-6.577-6.675-11.531-11.77-16.216a80.386,80.386,0,0,1-12.836-14.983C818.89,248.23,812.837,239.323,815.251,234.257Z" fill="#eae9c5"/>
      <path id="Path_31" data-name="Path 31" d="M846.309,286.218c.047.316.094.64.126.96.07.579.131,1.169.192,1.769.038.365.067.74.1,1.115q.133,1.543.215,3.182c.1,1.735.159,3.555.211,5.4.007.759.022,1.53.038,2.3.046,2.922.032,5.884.01,8.729-.02,2.791-.048,5.486-.056,7.936-.007,1.818,0,3.476.036,4.964.009,0-.013,1.6-.013,1.6-.1,7.731,4.909,14.171,11.13,14.317l7.478.177c7.237.17,13.264-7.047,13.386-16.04l.011-.8c.005-.385-.007-.759-.028-1.134.108-2.843.291-6.8.548-11.144.147-2.521.321-5.18.52-7.828.063-.8.134-1.612.188-2.413.351-4.217.785-8.261,1.294-11.522.058-.437.133-.863.207-1.257.015-.105.034-.205.053-.309Z" fill="#745cd4"/>
      <path id="Path_32" data-name="Path 32" d="M849.692,220.966a21.111,21.111,0,0,0,29.243.014c-4.131-4.106-7.272-9.194-7.283-15,0-.973.058-2.272.075-3.695l-14.559-.258a43.9,43.9,0,0,0-.662,6.073C856.46,210.65,854.5,216.134,849.692,220.966Z" fill="#b3a4f5"/>
      <path id="Path_33" data-name="Path 33" d="M894.833,251.88l18.507,41.553a13.113,13.113,0,0,0,17.19,6.6,12.917,12.917,0,0,0,6.66-17.042l-18.507-41.552a13.016,13.016,0,0,0-9.23-7.4l-.083-.016a13.033,13.033,0,0,0-6.634.341l-.016.007c-.412.135-.822.288-1.227.466A12.933,12.933,0,0,0,894.618,242a12.905,12.905,0,0,0,.215,9.882Z" fill="#eae9c5"/>
      <path id="Path_34" data-name="Path 34" d="M919.482,278.86a13.921,13.921,0,0,1,18.489,6.484,13.7,13.7,0,0,1-6.54,18.33A13.886,13.886,0,0,1,925.392,305l.011.051-43.335,6.259-3.277-6.8,37.953-23.922A13.883,13.883,0,0,1,919.482,278.86Z" fill="#eae9c5"/>
      <path id="Path_35" data-name="Path 35" d="M890.6,298.869c2.014,2,2.778,4.743,2.076,8.136a22.549,22.549,0,0,1-.816,2.892l-9.794,1.415-3.277-6.8,10.281-6.48Q889.85,298.427,890.6,298.869Z" fill="#eae9c5"/>
      <path id="Path_36" data-name="Path 36" d="M880.589,304.829l1.456,5.861-16.905,6.195-10.853-1.749-.812-4.277,10.968-1.129,8.179-4.121-4.959-.778-6.944,1.715L859.7,304.4l10.138-2.992Z" fill="#ccc2fe"/>
      <path id="Path_37" data-name="Path 37" d="M816.683,233.295l-40.047,22.07a12.9,12.9,0,0,0-5.06,17.573,13.133,13.133,0,0,0,17.727,5.017l40.047-22.07a12.919,12.919,0,0,0,6.589-9.788c0-.028.006-.056.009-.083A12.732,12.732,0,0,0,835,239.5l-.009-.016c-.173-.394-.364-.784-.58-1.169a13.147,13.147,0,0,0-17.727-5.016Z" fill="#eae9c5"/>
      <path id="Path_38" data-name="Path 38" d="M791.836,260.1a13.682,13.682,0,0,1-4.822,18.846,13.935,13.935,0,0,1-19.01-4.78,13.589,13.589,0,0,1-1.887-5.841l-.05.016-10.249-42.209,6.535-3.857,27.5,35.28A13.826,13.826,0,0,1,791.836,260.1Z" fill="#eae9c5"/>
      <path id="Path_39" data-name="Path 39" d="M769.1,233.414c-1.82,2.171-4.51,3.176-7.983,2.794a23.139,23.139,0,0,1-2.979-.541l-2.317-9.54,6.535-3.857,7.449,9.557Q769.472,232.632,769.1,233.414Z" fill="#eae9c5"/>
      <path id="Path_40" data-name="Path 40" d="M762.194,224.074l-5.754,1.974-7.768-16.123.764-10.874,4.222-1.193,2.137,10.724,4.887,7.7.328-4.967-2.358-6.7,2.06-1.2,3.933,9.735Z" fill="#ccc2fe"/>
      <path id="Path_41" data-name="Path 41" d="M836.337,227.8l53.377.947v-.1c-.088-.043-.169-.094-.266-.145-.548-.3-1.112-.618-1.676-.956-.089-.051-.177-.11-.266-.161-.484-.287-.967-.591-1.458-.912-.136-.084-.265-.177-.4-.261q-.736-.494-1.472-1.011c-.088-.067-.177-.134-.273-.193-1.214-.883-2.426-1.848-3.588-2.886-.593-.519-1.17-1.07-1.738-1.63a31.281,31.281,0,0,1-3.007-3.482L852.54,216.6a30.812,30.812,0,0,1-13.368,10.255C838.237,227.217,837.295,227.528,836.337,227.8Z" fill="#d3d1a5"/>
      <path id="Path_42" data-name="Path 42" d="M834.426,228.327c.709-.154,1.4-.332,2.095-.526.954-.26,1.893-.56,2.824-.908a30.811,30.811,0,0,0,7.025-3.8l35.655.632c.627.49,1.26.962,1.895,1.409.1.058.184.122.272.187q.734.5,1.468.977c.136.082.264.171.4.253.489.309.971.6,1.453.881.088.049.176.106.265.155.562.327,1.124.638,1.671.925.1.049.177.1.265.139a.008.008,0,0,0,.008.008c.443.222.869.443,1.295.641a.315.315,0,0,0,.073.033c-.584-.066-1.175-.108-1.775-.143-14.351-.706-26.644,9.579-28.336,23.29l-.4-.022a26.938,26.938,0,0,0-25.677-23.75,5.033,5.033,0,0,0-.6-.01A2.847,2.847,0,0,1,834.426,228.327Z" fill="#d3d1a5"/>
      <path id="Path_43" data-name="Path 43" d="M863.123,272.552h0c.878.016,1.623-1.422,1.655-3.2l.8-44.594c.032-1.773-.661-3.236-1.539-3.251h0c-.879-.016-1.624,1.422-1.656,3.2l-.8,44.594C861.551,271.074,862.244,272.537,863.123,272.552Z" fill="#4a3e93"/>
      <path id="Path_44" data-name="Path 44" d="M864.093,224.417l.323,0a3.309,3.309,0,0,0,3.358-3.239h0a3.309,3.309,0,0,0-3.241-3.359l-.323-.005a3.309,3.309,0,0,0-3.358,3.239h0A3.31,3.31,0,0,0,864.093,224.417Z" fill="#4a3e93"/>
      <g id="Group_18" data-name="Group 18">
        <path id="Path_45" data-name="Path 45" d="M873.64,203.791l.581.021A2.22,2.22,0,0,0,876.6,201.8l.163-4.05a2.2,2.2,0,0,0-2.208-2.18l-.581-.021a2.219,2.219,0,0,0-2.377,2.014l-.163,4.049A2.2,2.2,0,0,0,873.64,203.791Z" fill="#b3a4f5"/>
        <path id="Path_46" data-name="Path 46" d="M854.189,202.814l.581.021a2.219,2.219,0,0,0,2.377-2.014l.163-4.049a2.2,2.2,0,0,0-2.208-2.181l-.581-.021a2.221,2.221,0,0,0-2.378,2.014l-.163,4.049A2.2,2.2,0,0,0,854.189,202.814Z" fill="#b3a4f5"/>
        <path id="Path_47" data-name="Path 47" d="M862.827,212.8h0c4.939.179,9.13-3.37,9.311-7.888l.68-16.89c.182-4.518-3.71-8.362-8.65-8.541h0c-4.939-.179-9.129,3.37-9.311,7.888l-.68,16.89C853.995,208.773,857.888,212.617,862.827,212.8Z" fill="#ccc2fe"/>
      </g>
      <path id="Path_48" data-name="Path 48" d="M850.835,216.858c.02,4.448,2.911,8.047,6.477,8.047s6.456-3.6,6.476-8.047Z" fill="#eae9c5"/>
      <path id="Path_49" data-name="Path 49" d="M863.788,216.858c.02,4.448,2.911,8.047,6.476,8.047s6.457-3.6,6.477-8.047Z" fill="#eae9c5"/>
    </g>
    <circle id="Ellipse_2" data-name="Ellipse 2" cx="2.427" cy="2.427" r="2.427" transform="translate(187.493 187.837)" fill="#4a3e93"/>
    <path id="Path_2" data-name="Path 2" d="M869.135,443.311h.3a4.679,4.679,0,0,0,4.71-4.62l.405-76.927a4.678,4.678,0,0,0-4.661-4.669l-.3,0a4.68,4.68,0,0,0-4.71,4.621l-.405,76.927A4.679,4.679,0,0,0,869.135,443.311Z" transform="translate(-675 -15)" fill="#745cd4"/>
    <path id="Path_3" data-name="Path 3" d="M892.823,439.686h.3a4.679,4.679,0,0,0,4.71-4.62l.405-76.927a4.678,4.678,0,0,0-4.661-4.669l-.3,0a4.68,4.68,0,0,0-4.71,4.621l-.405,76.927A4.68,4.68,0,0,0,892.823,439.686Z" transform="translate(-675 -15)" fill="#745cd4"/>
    <rect id="Rectangle_23" data-name="Rectangle 23" width="7.938" height="31.514" rx="3.405" transform="translate(175.593 325.18) rotate(-34.755)" fill="#745cd4"/>
    <path id="Rectangle_24" data-name="Rectangle 24" d="M3.637,0H4.3A3.636,3.636,0,0,1,7.938,3.636V32.044A3.637,3.637,0,0,1,4.3,35.681H3.637A3.637,3.637,0,0,1,0,32.044V3.637A3.637,3.637,0,0,1,3.637,0Z" transform="translate(193.004 324.68) rotate(-47.774)" fill="#745cd4"/>
    <path id="Path_4" data-name="Path 4" d="M876.706,448.4H866.517a3.691,3.691,0,0,1-3.68-3.68h0a3.691,3.691,0,0,1,3.68-3.681h10.189a3.691,3.691,0,0,1,3.681,3.681h0A3.691,3.691,0,0,1,876.706,448.4Z" transform="translate(-675 -15)" fill="#4a3e93"/>
    <path id="Path_5" data-name="Path 5" d="M900.706,443.368H890.517a3.691,3.691,0,0,1-3.68-3.681h0a3.691,3.691,0,0,1,3.68-3.68h10.189a3.691,3.691,0,0,1,3.681,3.68h0A3.691,3.691,0,0,1,900.706,443.368Z" transform="translate(-675 -15)" fill="#4a3e93"/>
    <circle id="Ellipse_3" data-name="Ellipse 3" cx="18.798" cy="18.798" r="18.798" transform="translate(381.202 187.714)" fill="#ffd359"/>
    <rect id="Rectangle_25" data-name="Rectangle 25" width="30.242" height="2.507" rx="1.254" transform="translate(173.917 201.218)" fill="#eae9c5"/>
    <path id="Path_6" data-name="Path 6" d="M872.5,196.552a10.484,10.484,0,0,1-4.729-10.687,16.032,16.032,0,0,1-5.012.691c-4.172.2-8.456.275-12-2.279-4.12-2.972-12.32-11.395-6.33-16.261,3.464-2.814,6.979-2.09,10.211.811,2.855,2.561,3.453,6.49,7.174,8.362,2.967,1.493,5.3.667,8.384,1.184,4.916.825,4.488,6.981,3.924,10.691C873.774,191.374,873.645,194.5,872.5,196.552Z" transform="translate(-675 -15)" fill="#4a3e93"/>
    <g id="Group_4" data-name="Group 4" transform="translate(-675 -15)">
      <rect id="Rectangle_36" data-name="Rectangle 36" width="66.5" height="66.5" rx="12" transform="translate(731.333 149.718)" fill="#ff75fe"/>
      <path id="Path_50" data-name="Path 50" d="M788.741,150.092c-11.175,20.92-20.583,43.2-39.958,58.054a80.089,80.089,0,0,1-10.626,6.875,11.864,11.864,0,0,0,5.176,1.2h42.5a12.035,12.035,0,0,0,12-12v-42.5A12.037,12.037,0,0,0,788.741,150.092Z" fill="#ff75fe" opacity="0.56" style="mix-blend-mode: multiply;isolation: isolate"/>
      <text id="JS" transform="translate(744.666 195.545)" fill="#fff" font-size="30.037" font-family="SegoeUI, Segoe UI"><tspan x="0" y="0">J</tspan><tspan y="0" font-size="21.203">S</tspan></text>
    </g>
    <g id="Group_5" data-name="Group 5" transform="translate(-675 -15)">
      <rect id="Rectangle_37" data-name="Rectangle 37" width="55.142" height="55.142" rx="9.95" transform="translate(802.044 87.545)" fill="#70e5ff"/>
      <path id="Path_51" data-name="Path 51" d="M849.647,87.855c-9.266,17.347-17.068,35.82-33.133,48.138a66.4,66.4,0,0,1-8.812,5.7,9.847,9.847,0,0,0,4.293.993h35.241a9.98,9.98,0,0,0,9.95-9.951V97.5A9.98,9.98,0,0,0,849.647,87.855Z" fill="#ff75fe" opacity="0.56" style="mix-blend-mode: multiply;isolation: isolate"/>
      <text id="HTML" transform="translate(805.771 120.751)" fill="#fff" font-size="16.798" font-family="SegoeUI, Segoe UI"><tspan x="0" y="0">HTML</tspan></text>
    </g>
    <g id="Group_6" data-name="Group 6" transform="translate(-675 -15)">
      <path id="Rectangle_38" data-name="Rectangle 38" d="M8.962,0H40.7a8.962,8.962,0,0,1,8.962,8.962V40.7A8.962,8.962,0,0,1,40.7,49.661H8.961A8.961,8.961,0,0,1,0,40.7V8.962A8.962,8.962,0,0,1,8.962,0Z" transform="translate(1048.533 192.353)" fill="#70e5ff"/>
      <path id="Path_52" data-name="Path 52" d="M1091.405,192.632c-8.345,15.623-15.371,32.26-29.84,43.354a59.813,59.813,0,0,1-7.936,5.134,8.858,8.858,0,0,0,3.866.894h31.738a8.988,8.988,0,0,0,8.962-8.961V201.314A8.989,8.989,0,0,0,1091.405,192.632Z" fill="#ff75fe" opacity="0.56" style="mix-blend-mode: multiply;isolation: isolate"/>
      <text id="_" data-name="&lt;/&gt;" transform="translate(1057.398 222.183)" fill="#fff" font-size="17.936" font-family="SegoeUI, Segoe UI"><tspan x="0" y="0">&lt;/&gt;</tspan></text>
    </g>
    <g id="Group_7" data-name="Group 7" transform="translate(-675 -15)">
      <path id="Rectangle_39" data-name="Rectangle 39" d="M8.272,0h29.3a8.272,8.272,0,0,1,8.272,8.272v29.3a8.271,8.271,0,0,1-8.271,8.271H8.272A8.272,8.272,0,0,1,0,37.567V8.272A8.272,8.272,0,0,1,8.272,0Z" transform="translate(885.832 124.684)" fill="#ffd359"/>
      <path id="Path_53" data-name="Path 53" d="M925.4,124.941c-7.7,14.421-14.187,29.777-27.542,40.017a55.281,55.281,0,0,1-7.325,4.739,8.179,8.179,0,0,0,3.568.825H923.4a8.3,8.3,0,0,0,8.272-8.272V132.955A8.3,8.3,0,0,0,925.4,124.941Z" fill="#ff75fe" opacity="0.56" style="mix-blend-mode: multiply;isolation: isolate"/>
      <text id="CSS" transform="translate(889.579 154.616)" fill="#fff" font-size="19.843" font-family="SegoeUI, Segoe UI"><tspan x="0" y="0">CSS</tspan></text>
    </g>
    <path id="Path_7" data-name="Path 7" d="M979.631,223.092H921.884a5.585,5.585,0,0,1-5.569-5.57h0a5.585,5.585,0,0,1,5.569-5.569h57.747a5.586,5.586,0,0,1,5.57,5.569h0A5.586,5.586,0,0,1,979.631,223.092Z" transform="translate(-675 -15)" fill="#ccc2fe"/>
    <path id="Path_8" data-name="Path 8" d="M1129.988,311.785h-57.747a5.586,5.586,0,0,1-5.57-5.569h0a5.586,5.586,0,0,1,5.57-5.57h57.747a5.586,5.586,0,0,1,5.569,5.57h0A5.585,5.585,0,0,1,1129.988,311.785Z" transform="translate(-675 -15)" fill="#ccc2fe"/>
    <path id="Path_9" data-name="Path 9" d="M984.952,203.813H937.718a6.065,6.065,0,0,1-6.047-6.047h0a6.065,6.065,0,0,1,6.047-6.048h47.234A6.066,6.066,0,0,1,991,197.766h0A6.065,6.065,0,0,1,984.952,203.813Z" transform="translate(-675 -15)" fill="#ccc2fe"/>
    <path id="Path_10" data-name="Path 10" d="M1135.6,291.669h-47.234a6.066,6.066,0,0,1-6.048-6.048h0a6.065,6.065,0,0,1,6.048-6.047H1135.6a6.065,6.065,0,0,1,6.048,6.047h0A6.066,6.066,0,0,1,1135.6,291.669Z" transform="translate(-675 -15)" fill="#ccc2fe"/>
    <path id="Path_11" data-name="Path 11" d="M1072.093,267.441h-18.186a5.925,5.925,0,0,1-5.907-5.908h0a5.924,5.924,0,0,1,5.907-5.907h18.186a5.924,5.924,0,0,1,5.907,5.907h0A5.925,5.925,0,0,1,1072.093,267.441Z" transform="translate(-675 -15)" fill="#8b77e8"/>
    <path id="Path_12" data-name="Path 12" d="M1110.735,267.441H1092.55a5.926,5.926,0,0,1-5.908-5.908h0a5.925,5.925,0,0,1,5.908-5.907h18.185a5.924,5.924,0,0,1,5.907,5.907h0A5.925,5.925,0,0,1,1110.735,267.441Z" transform="translate(-675 -15)" fill="#8b77e8"/>
    <path id="Path_13" data-name="Path 13" d="M1133.759,241.361h-18.186a5.924,5.924,0,0,1-5.907-5.907h0a5.924,5.924,0,0,1,5.907-5.907h18.186a5.924,5.924,0,0,1,5.907,5.907h0A5.924,5.924,0,0,1,1133.759,241.361Z" transform="translate(-675 -15)" fill="#ccc2fe"/>
    <path id="Path_14" data-name="Path 14" d="M1031.28,178.858h-18.186a5.924,5.924,0,0,1-5.907-5.907h0a5.924,5.924,0,0,1,5.907-5.907h18.186a5.924,5.924,0,0,1,5.907,5.907h0A5.924,5.924,0,0,1,1031.28,178.858Z" transform="translate(-675 -15)" fill="#ccc2fe"/>
    <rect id="Rectangle_26" data-name="Rectangle 26" width="30" height="11.814" rx="5.907" transform="translate(292.701 151.859)" fill="#ccc2fe"/>
    <path id="Path_15" data-name="Path 15" d="M1105.189,377.533H1087a5.925,5.925,0,0,1-5.907-5.908h0a5.925,5.925,0,0,1,5.907-5.907h18.186a5.925,5.925,0,0,1,5.907,5.907h0A5.925,5.925,0,0,1,1105.189,377.533Z" transform="translate(-675 -15)" fill="#ccc2fe"/>
    <rect id="Rectangle_27" data-name="Rectangle 27" width="30" height="11.814" rx="5.907" transform="translate(330.838 176.951)" fill="#8b77e8"/>
    <path id="Path_16" data-name="Path 16" d="M1048.764,159.909h-18.185a5.925,5.925,0,0,1-5.907-5.907h0a5.925,5.925,0,0,1,5.907-5.908h18.185a5.926,5.926,0,0,1,5.908,5.908h0A5.926,5.926,0,0,1,1048.764,159.909Z" transform="translate(-675 -15)" fill="#8b77e8"/>
    <rect id="Rectangle_28" data-name="Rectangle 28" width="30" height="11.814" rx="5.907" transform="translate(426.642 305.763)" fill="#8b77e8"/>
    <rect id="Rectangle_29" data-name="Rectangle 29" width="41.822" height="43.027" rx="7.655" transform="translate(311.056 352.305)" fill="#fcddfc"/>
    <g id="Group_8" data-name="Group 8" transform="translate(-675 -15)">
      <g id="Group_19" data-name="Group 19">
        <rect id="Rectangle_40" data-name="Rectangle 40" width="46.522" height="46.522" rx="8.395" transform="translate(957.59 84.052)" fill="#ff75fe"/>
        <path id="Path_54" data-name="Path 54" d="M997.751,84.313c-7.817,14.636-14.4,30.221-27.953,40.614a56.094,56.094,0,0,1-7.435,4.81,8.3,8.3,0,0,0,3.622.837h29.732a8.419,8.419,0,0,0,8.4-8.4V92.447A8.422,8.422,0,0,0,997.751,84.313Z" fill="#ff75fe" opacity="0.56" style="mix-blend-mode: multiply;isolation: isolate"/>
      </g>
      <text id="PHP" transform="translate(961.335 118.928)" fill="#fff" font-size="18.211" font-family="SegoeUI, Segoe UI"><tspan x="0" y="0">PHP</tspan></text>
    </g>
    <g id="Group_9" data-name="Group 9" transform="translate(-675 -15)">
      <path id="Rectangle_41" data-name="Rectangle 41" d="M8.272,0h29.3a8.271,8.271,0,0,1,8.271,8.271v29.3a8.272,8.272,0,0,1-8.272,8.272H8.271A8.271,8.271,0,0,1,0,37.567V8.272A8.272,8.272,0,0,1,8.272,0Z" transform="translate(968.081 217.39)" fill="#ffd359"/>
      <path id="Path_55" data-name="Path 55" d="M1007.652,217.648c-7.7,14.42-14.188,29.776-27.543,40.016a55.179,55.179,0,0,1-7.325,4.739,8.183,8.183,0,0,0,3.568.826h29.295a8.3,8.3,0,0,0,8.272-8.272V225.662A8.3,8.3,0,0,0,1007.652,217.648Z" fill="#ff75fe" opacity="0.56" style="mix-blend-mode: multiply;isolation: isolate"/>
      <g id="Group_20" data-name="Group 20">
        <text id="_2" data-name="{" transform="translate(977.691 249.84)" fill="#fff" font-size="25.734" font-family="SegoeUI, Segoe UI"><tspan x="0" y="0">{</tspan></text>
        <text id="_3" data-name="{" transform="matrix(-1, 0, 0, 1, 1004.309, 249.839)" fill="#fff" font-size="26" font-family="SegoeUI, Segoe UI"><tspan x="0" y="0">{</tspan></text>
      </g>
    </g>
    <path id="Path_17" data-name="Path 17" d="M1091.45,445.391H885.5a.753.753,0,0,0-.751.752h0a.753.753,0,0,0,.751.751H1091.45a.753.753,0,0,0,.751-.751h0A.754.754,0,0,0,1091.45,445.391Z" transform="translate(-675 -15)" fill="#8b77e8"/>
    <rect id="Rectangle_30" data-name="Rectangle 30" width="63.202" height="1.503" rx="0.415" transform="translate(306.479 436.464)" fill="#ccc2fe"/>
    <rect id="Rectangle_31" data-name="Rectangle 31" width="63.202" height="1.503" rx="0.415" transform="translate(374.495 436.464)" fill="#ccc2fe"/>
    <rect id="Rectangle_32" data-name="Rectangle 32" width="63.202" height="1.503" rx="0.415" transform="translate(236.662 436.464)" fill="#ccc2fe"/>
    <rect id="Rectangle_33" data-name="Rectangle 33" width="136.337" height="1.503" rx="0.609" transform="translate(279.662 440.715)" fill="#ccc2fe"/>
    <rect id="Rectangle_34" data-name="Rectangle 34" width="136.337" height="1.503" rx="0.609" transform="translate(242.032 447.04)" fill="#ccc2fe"/>
    <g id="Group_10" data-name="Group 10" transform="translate(-675 -15)">
      <path id="Path_56" data-name="Path 56" d="M802.044,424.718H778.2V357.094" fill="none" stroke="#96fffa" stroke-miterlimit="10" stroke-width="2"/>
      <circle id="Ellipse_4" data-name="Ellipse 4" cx="2.625" cy="2.625" r="2.625" transform="translate(775.028 353.469)" fill="#96fffa"/>
      <circle id="Ellipse_5" data-name="Ellipse 5" cx="2.625" cy="2.625" r="2.625" transform="translate(799.419 422.093)" fill="#96fffa"/>
    </g>
    <g id="Group_11" data-name="Group 11" transform="translate(-675 -15)">
      <path id="Path_57" data-name="Path 57" d="M1143.838,427.03h-23.845V359.405" fill="none" stroke="#96fffa" stroke-miterlimit="10" stroke-width="2"/>
      <circle id="Ellipse_6" data-name="Ellipse 6" cx="2.625" cy="2.625" r="2.625" transform="translate(1116.822 355.78)" fill="#96fffa"/>
      <circle id="Ellipse_7" data-name="Ellipse 7" cx="2.625" cy="2.625" r="2.625" transform="translate(1141.213 424.405)" fill="#96fffa"/>
    </g>
    <g id="Group_12" data-name="Group 12" transform="translate(-675 -15)">
      <circle id="Ellipse_8" data-name="Ellipse 8" cx="2.625" cy="2.625" r="2.625" transform="translate(742.041 306.522)" fill="#96fffa"/>
      <circle id="Ellipse_9" data-name="Ellipse 9" cx="2.625" cy="2.625" r="2.625" transform="translate(716.791 352.898)" fill="#96fffa"/>
      <path id="Path_58" data-name="Path 58" d="M744.666,310.468v45.626H720.5" fill="none" stroke="#96fffa" stroke-miterlimit="10" stroke-width="2"/>
    </g>
    <g id="Group_13" data-name="Group 13" transform="translate(-675 -15)">
      <circle id="Ellipse_10" data-name="Ellipse 10" cx="2.625" cy="2.625" r="2.625" transform="translate(737.031 192.142)" fill="#96fffa"/>
      <circle id="Ellipse_11" data-name="Ellipse 11" cx="2.625" cy="2.625" r="2.625" transform="translate(711.781 238.518)" fill="#96fffa"/>
      <path id="Path_59" data-name="Path 59" d="M739.656,196.088v45.626H715.49" fill="none" stroke="#96fffa" stroke-miterlimit="10" stroke-width="2"/>
    </g>
    <g id="Group_14" data-name="Group 14" transform="translate(-675 -15)">
      <circle id="Ellipse_12" data-name="Ellipse 12" cx="2.625" cy="2.625" r="2.625" transform="translate(965.509 91.447)" fill="#96fffa"/>
      <circle id="Ellipse_13" data-name="Ellipse 13" cx="2.625" cy="2.625" r="2.625" transform="translate(919.133 66.197)" fill="#96fffa"/>
      <path id="Path_60" data-name="Path 60" d="M966.813,94.072H921.187V69.906" fill="none" stroke="#96fffa" stroke-miterlimit="10" stroke-width="2"/>
    </g>
    <g id="Group_15" data-name="Group 15" transform="translate(-675 -15)">
      <circle id="Ellipse_14" data-name="Ellipse 14" cx="2.625" cy="2.625" r="2.625" transform="translate(1098.998 74.22)" fill="#96fffa"/>
      <circle id="Ellipse_15" data-name="Ellipse 15" cx="2.625" cy="2.625" r="2.625" transform="translate(1073.748 120.596)" fill="#96fffa"/>
      <path id="Path_61" data-name="Path 61" d="M1101.623,78.166v45.626h-24.166" fill="none" stroke="#96fffa" stroke-miterlimit="10" stroke-width="2"/>
    </g>
  </g>
</svg>
