<?xml version="1.0" encoding="utf-8"?>
<!-- Generator: Adobe Illustrator 17.1.0, SVG Export Plug-In . SVG Version: 6.00 Build 0)  -->
<!DOCTYPE svg PUBLIC "-//W3C//DTD SVG 1.1//EN" "http://www.w3.org/Graphics/SVG/1.1/DTD/svg11.dtd">
<svg version="1.1" id="Layer_1" xmlns="http://www.w3.org/2000/svg" xmlns:xlink="http://www.w3.org/1999/xlink" x="0px" y="0px"
	 viewBox="0 0 612 792" enable-background="new 0 0 612 792" xml:space="preserve">
<g>
	<g>
		<path d="M199,687.9c-53.7,0-107.4,0-161.1,0c-11.6-3.5-19.2-11-22.7-22.7c0-11.3,0-22.7,0-34c6,0,12.2,0,18.8,0c0-2.7,0-5,0-7.3
			c0-25-0.2-49.9,0-74.9c0-14.1,7.1-24.5,19.4-28.1c4.1-1.2,8.5-1.5,12.9-1.7c10.9-0.2,21.8,0,33.4,0c0-34.6,0-68.5,0-102.8
			c2.7,0,4.8,0,7,0c9.8,0,19.7,0.2,29.5-0.2c1.5,0,3.9-0.9,4.5-2.1c2.7-5.3,5-10.7,7.7-16.8c-22.5,0-44.8,0-67.6,0
			c0-15.7,0-31,0-46.6c-12.2,0-24,0-35.7,0c-10,0-18.6-3.6-24.3-11.9c-2.3-3.2-3.6-7-5.3-10.4c0-66.1,0-132.3,0-198.4
			c3.5-11.6,11-19.2,22.7-22.7c34.8,0,69.6,0,104.3,0c14.1,4.7,22.7,13.6,22.7,29.3c0,61.5,0,123.2,0,184.8
			c0,17.2-11.8,29-29.2,29.5c-10.1,0.2-20.4,0-30.5,0c-1.8,0-3.6,0.2-5.4,0.3c0,9.4,0,18.1,0,27.5c2.4,0,4.4,0,6.5,0
			c13.9,0,28-0.2,41.9,0c11.3,0.2,22.7,0.9,32.8-5.6c0.8-0.5,1.8-0.8,2.7-0.9c3.8-0.5,5.6-2.9,7.1-6.2
			c14.1-30.5,46.4-47.8,79.5-42.3c6.5,1.1,12.7,3.2,19.1,4.7c0.5-0.5,0.9-0.9,1.2-1.4c20.7-27.8,52-38.9,83.3-29.5
			c33.4,10.1,53.4,41.1,53.2,70.6c0,1.7,2,3.9,3.6,5c6.8,4.4,13.8,8.3,20.7,12.6c1.2,0.8,2.6,2.1,3.8,2.3
			c12.2,0.2,24.5,0.2,36.9,0.2c0-31.5,0-62.5,0-93.9c-15.6,0-30.7,0-46,0c0-6.4,0-12.1,0-18.4c6,0,11.8,0,17.8,0
			c0-6.5,0-12.4,0-18.9c-8.9,0-17.4,0-25.9,0c-18.1-0.2-29.8-11.6-29.8-29.8c0-30.1,0-60,0-90.1c0-3,0.3-6,0.9-8.9
			c2.9-11.5,11.2-17.4,21.8-20.9c47.2,0,94.5,0,141.7,0c11.6,3.5,19.2,11,22.7,22.7c0,34.8,0,69.6,0,104.3
			c-7.7,18.4-14.4,22.8-34.9,22.8c-7,0-13.8,0-20.7,0c0,6.7,0,12.7,0,19.1c6.2,0,12.1,0,18,0c0,6.4,0,12.1,0,18.4
			c-15.4,0-30.7,0-46.6,0c0,37.7,0,74.9,0,112.5c-14.8,0-29,0-43.4,0c2,6.5,3.9,12.4,5.9,18.9c18.6,0,37.2,0,56.4,0
			c0,31.2,0,61.9,0,93c22.2,0,43.9,0,65.6,0c0,56.3,0,112.7,0,168.9c-49.9,0-99.8,0-149.7,0c0-56.1,0-112.1,0-168.8
			c22.1,0,43.6,0,65,0c0-25.3,0-49.9,0-74.6c-12.7,0-25,0-37.4,0c-0.5,1.5-0.9,3-1.4,4.4c-7,30.4-32.1,51.4-63.4,51.6
			c-69.4,0.5-138.7,0.3-208.1,0c-30.1-0.2-55.5-21.6-62.3-51c-1.1-4.7-1.5-9.5-2.3-14.2c-6.2,0-11.9,0-17.8,0c0,28,0,55.7,0,83.9
			c2.3,0,4.4,0,6.4,0c15.7,0,31.3-0.2,47,0c18.9,0.2,30.2,11.6,30.4,30.5c0,25.1,0,50.2,0,75.5c0,2,0,4.1,0,6.8c6.7,0,12.7,0,18.8,0
			c0,10.4,0.3,20-0.2,29.6c-0.3,7.7-3.5,14.5-9.5,19.2C207.8,683.7,203.2,685.5,199,687.9z M297.3,355.4c-3.3-2-6-3.6-8.8-5.3
			c-32.7-19.5-72.7-4.2-83.8,32.2c-1.4,4.2-3.2,5.9-7.6,6.4c-27.7,3.2-46.1,29.2-40.2,56.4c4.7,21.6,23.1,36.4,46.3,36.7
			c26.8,0.3,53.7,0.2,80.5,0c42.3,0,84.7,0.3,127-0.3c23.3-0.3,42.6-19.1,44.6-41.9c2.1-23.7-13.5-45.1-36.6-50.2
			c-3.9-0.9-8-1.5-11.9-2.3c4.1-37.7-8.2-61.5-36.4-70.9c-12.2-4.1-24.5-4.1-36.7,0.3C315.1,323.2,304.1,336.9,297.3,355.4z
			 M52.9,631.2c43.7,0,87,0,130.5,0c0.2-1.1,0.5-1.8,0.5-2.6c0-26.6,0.2-53.2,0-80c0-7.4-3.8-10.6-11.6-10.6c-35.8,0-71.8,0-107.7,0
			c-8.8,0-11.8,3.2-11.8,12.1c0,25.3,0,50.7,0,75.9C52.6,627.7,52.9,629.4,52.9,631.2z M427.2,201c9.7,0,18.8,0,27.7,0
			c38.7,0,77.4,0,116.3,0c3,0,6,0.8,6-4.2c-0.2-20.3,0-40.4-0.2-60.6c0-6.7-3.5-9.8-10.4-10c-5.1-0.2-10.1,0-15.3,0
			c-37.2,0-74.4,0-111.8,0c-8.5,0-12.2,2.7-12.4,9.8C427.1,157.3,427.2,178.6,427.2,201z M146.1,256.8c0-31.2,0-61.9,0-92.9
			c-37.4,0-74.6,0-111.8,0c0,31.2,0,61.9,0,92.9C71.5,256.8,108.6,256.8,146.1,256.8z M146.4,276.5c-37.8,0-74.9,0-112.2,0
			c0,15.7-0.2,31,0.2,46.3c0.2,6,3.8,9.2,10,9.2c30.7,0.2,61.5,0.2,92.2,0c5.9,0,9.7-3.2,9.8-8.8
			C146.5,307.6,146.4,292.2,146.4,276.5z M576.9,538.5c-37.5,0-74.6,0-111.9,0c0,18.6,0,36.7,0,55.2c37.5,0,74.6,0,111.9,0
			C576.9,575.3,576.9,557.1,576.9,538.5z M465,613.2c-0.2,1.8-0.3,3.5-0.3,5.1c0,15,0.2,29.8-0.2,44.8c-0.2,4.7,1.4,6,6,6
			c33.6-0.2,67.3-0.2,100.9-0.2c1.8,0,3.6-0.2,5.1-0.3c0-18.9,0-37.2,0-55.5C539.3,613.2,502.4,613.2,465,613.2z M34.5,650.7
			c-1.7,14.4,0.9,18.6,15.7,18.6c46-0.5,91.8-0.2,137.8-0.2c2.1,0,4.2,0,6.2-0.2c5-0.6,7.9-3.6,8.2-8.6c0.3-3.2,0-6.4,0-9.7
			C146.2,650.7,90.4,650.7,34.5,650.7z M577.1,219.9c-50.4,0-99.8,0-149.3,0c-2.3,14.4,1.1,18.4,14.8,18.6c25,0,49.8,0,74.7,0
			c15.9,0,31.8,0,47.5,0c9.1,0,12.1-3.2,12.2-12.4C577.2,224.3,577.1,222.3,577.1,219.9z M34,144.3c37.7,0,74.9,0,112.4,0
			c0-3.2,0.2-6,0-8.8c-0.5-6-3.8-9.4-9.8-9.4c-31-0.2-62-0.2-93,0c-5.9,0-9.1,3.3-9.5,9.2C33.9,138.1,34,141,34,144.3z M483.8,275.7
			c12.7,0,24.6,0,36.9,0c0-6.2,0-12.1,0-18.1c-12.4,0-24.6,0-36.9,0C483.8,263.6,483.8,269.4,483.8,275.7z"/>
		<path fill="#FFFFFF" d="M38,107.2c-11.6,3.5-19.2,11-22.7,22.7c0-7.6,0-15.1,0-22.7C22.8,107.2,30.4,107.2,38,107.2z"/>
		<path fill="#FFFFFF" d="M595.8,129.9c-3.5-11.6-11-19.2-22.7-22.7c7.6,0,15.1,0,22.7,0C595.8,114.8,595.8,122.4,595.8,129.9z"/>
		<path fill="#FFFFFF" d="M15.3,665.3c3.5,11.6,11,19.2,22.7,22.7c-7.6,0-15.1,0-22.7,0C15.3,680.4,15.3,672.8,15.3,665.3z"/>
		<path fill="#FFFFFF" d="M517.3,238.5c-25,0-49.8,0-74.7,0c-13.6,0-17.1-4.1-14.8-18.6c49.4,0,99.1,0,149.3,0c0,2.4,0,4.2,0,6.2
			c-0.2,9.2-3.2,12.2-12.2,12.4"/>
		<path fill="#FFFFFF" d="M520.7,257.6c0,6,0,11.9,0,18.1c-12.2,0-24.2,0-36.9,0c0-6.2,0-12.1,0-18.1"/>
		<path d="M71.8,294.8c12.4,0,24.3,0,36.7,0c0,6,0,11.8,0,18.1c-12.2,0-24.3,0-36.7,0C71.8,307,71.8,301.3,71.8,294.8z"/>
		<path d="M558.2,575.3c-12.4,0-24.3,0-36.7,0c0-6,0-11.9,0-18.3c12.2,0,24.3,0,36.7,0C558.2,563.2,558.2,568.9,558.2,575.3z"/>
		<path d="M501.9,557.1c0,6.2,0,12.1,0,18.1c-6,0-11.8,0-17.8,0c0-5.9,0-11.8,0-18.1C489.7,557.1,495.4,557.1,501.9,557.1z"/>
		<path d="M483.8,632c12.4,0,24.3,0,36.7,0c0,6,0,11.9,0,18.1c-12.2,0-24.3,0-36.7,0C483.8,644.1,483.8,638.3,483.8,632z"/>
		<path d="M558.2,650.1c-6,0-11.8,0-18.4,0c0-5.3-0.2-10.7,0.2-16c0-0.9,1.8-2.3,2.9-2.3c5-0.3,10-0.2,15.4-0.2
			C558.2,638,558.2,643.8,558.2,650.1z"/>
	</g>
</g>
</svg>
