<?xml version="1.0" encoding="utf-8"?>
<!-- Generator: Adobe Illustrator 17.1.0, SVG Export Plug-In . SVG Version: 6.00 Build 0)  -->
<!DOCTYPE svg PUBLIC "-//W3C//DTD SVG 1.1//EN" "http://www.w3.org/Graphics/SVG/1.1/DTD/svg11.dtd">
<svg version="1.1" id="Layer_1" xmlns="http://www.w3.org/2000/svg" xmlns:xlink="http://www.w3.org/1999/xlink" x="0px" y="0px"
	 viewBox="0 0 612 792" enable-background="new 0 0 612 792" xml:space="preserve">
<g>
	<g>
		<path d="M201,686.9c-21.1-3.2-36.3-16-50.1-31c-6-6.6-12.8-12.8-19.1-19.1C100.9,605.9,70,575,39.1,544.1
			c-28.8-28.8-28.8-68.1-0.2-96.8c12.9-13.1,26-26,39.9-39.9c22.7,23.2,45.5,46.1,68.7,69.4c-7.8,8-15.4,15.5-23,23
			c-4.5,4.5-9.2,8.9-13.5,13.5c-3.8,3.9-4.4,9.2-0.9,12.8c10.4,10.7,21.2,21.1,32.4,32.1c1.5-4.1,2.7-7.8,4.1-11.4
			c8.9-23.8,25.9-38.2,50.9-42.9c18.8-3.6,37.6-6.9,56.6-10.2c1.5-0.3,2.9-0.8,5.9-1.5c-1.7-2.6-2.4-5-4.2-6.2
			c-21.2-14-34.9-33.1-41.3-57.8c-0.5-1.5-2.3-3.3-3.9-3.9c-17.6-6.6-26.5-19.1-26.5-37.8c0-20.6,0-41.4,0-62
			c0.2-62.8,45.2-113.7,107.3-121.6c66.1-8.4,128.7,42.3,134.3,108.5c0.5,6,0.8,12,0.8,18.1c0,34.2,0,68.5,0,102.7
			c0,19.4-11.6,31.6-30.7,30.9c-10.7-0.5-19,1.4-25.6,10.5c-3.8,5.1-10.1,8.3-15.2,12.5c-1.7,1.4-2.6,3.5-4.5,6.3
			c11.7,2.3,22.1,4.1,32.4,6c11.6,2.1,23.3,3.9,34.9,6.6c22,5.3,37.6,18.8,45.5,39.9c8,21.5,14.8,43.4,22,65.2c0.2,0.5,0,1.1,0,2.3
			c-65.9,0-131.7,0-199,0c5.4,5,9.9,9.2,14.9,13.7c-19,17-36.7,33.3-55,49.1c-8.3,7.2-19,9.5-29.4,11.9
			C211.5,686.9,206.3,686.9,201,686.9z M231.3,557.2c11,11,21.5,22,32.5,32.5c2.1,2.1,5.7,3.6,8.7,3.6c60.4,0.2,120.7,0.2,181.1,0.2
			c2,0,3.9-0.2,6.5-0.3c-4.7-14-8.7-27.3-13.5-40.2c-6.3-17.3-18.8-27.6-37-31c-19.7-3.6-39.6-7.1-59.3-10.8c-3.5-0.6-5.6,0.2-8,2.6
			c-11,11.1-22,22.1-33.1,33.1c-1.2,1.2-2.7,2.4-4.2,3.8c-12.5-12.6-24.7-25-37-37c-1.7-1.7-5-2.9-7.2-2.4
			c-20.2,3.3-40.3,6.9-60.5,10.8c-17.9,3.5-30.1,13.9-36.4,31c-2,5.4-4.1,11-5.4,16.6c-0.5,2,0.5,5.1,1.8,6.6
			c4.5,5.1,9.5,9.6,14.3,14.5c7.5,7.5,11,7.7,19,0.5C206,580.1,218.3,568.8,231.3,557.2z M406.6,355.5c0-16.1,1.8-31.9-0.3-47.1
			c-5.9-40.2-29.1-68.2-67.3-81.8c-38.4-13.5-73.5-5.4-103.7,21.8c-32.1,29.1-35.4,67-31.9,107.2c2.9-1.1,5.6-2.1,8.4-3.3
			c0.2-3.3,0.3-6.6,0.5-10.5c18.1,0.6,35.2-1.7,51.5-9c16.3-7.4,29.1-19.1,41.4-32.2c12.2,13.1,25,24.8,41.4,32.2
			c16.4,7.4,33.7,9.5,51.8,9.2c0,3.9,0,7.1,0,10.4C401.5,353.5,404.2,354.6,406.6,355.5z M305.5,444.3c2.7,0,4.7,0,6.8,0
			c17.5,0,34.9-0.2,52.5,0.2c4.1,0,6.3-1.2,7.5-4.8c2.1-6.5,5.6-12.8,6-19.3c1.2-19.1,1.2-38.2,1.4-57.5c0-1.1-2.6-2.7-4.2-3
			c-7.2-1.7-14.8-2.7-22-4.7c-18.2-5.1-34-14.9-46.8-26.8c-12.2,7.5-23.2,15.8-35.7,21.4c-12.5,5.6-26.3,8.3-40.3,12.3
			c0,14.9-0.6,31.2,0.2,47.3c1.4,29.5,15.4,51.8,42,64.7c25.9,12.6,51.3,9.9,75.4-6c1.7-1.2,3.3-2.6,4.8-3.9
			c-0.2-0.5-0.5-0.8-0.6-1.2c-15.5,0-31,0-46.8,0C305.5,456.7,305.5,451,305.5,444.3z M54.7,458.5c-23.3,19.7-24.8,50-3.2,71.8
			c18.5,18.7,37.2,37.2,55.9,55.9c22.7,22.7,45.3,45.6,68.2,68.2c20.8,20.5,53.6,18.2,70.5-4.2c-14-14.3-28-28.5-42.2-42.8
			c-13.7,10.7-28.5,10.5-39.7-0.6c-22.1-22-44.3-44-66.1-66.4c-3.5-3.6-6-8.6-7.7-13.4c-3.2-10.1,0.6-18.8,6.8-26.2 M219.4,593.2
			c14.6,14.6,28.6,28.6,42.9,42.9c3.2-3,6.9-6.6,10.2-9.6c-14.3-14.5-28.3-28.5-42.6-42.8C226.3,586.9,222.4,590.4,219.4,593.2z
			 M111.4,486.3c2.9-2.9,6-6,8.6-8.6c-14.3-14.3-28.3-28.5-41.6-41.7c-2.9,2.6-6.3,5.4-9.3,8 M333.2,496.1
			c-18.8,5.6-36.3,5.3-53.3,0.8c8.7,8.9,17.6,17.6,26,26.2C314.2,514.9,323.1,506.2,333.2,496.1z M391.4,443.7
			c14.8,2.3,18.5-3,15.7-22.7c-3.8,2-8.7,2.9-10.4,5.7C393.8,431.8,393.1,438,391.4,443.7z M212.1,404.1c0-5.7,0-10.7,0-15.8
			c0-5,0-9.9,0-15.1C201,377.6,199.2,397.1,212.1,404.1z M399,373.4c0,10.2,0,20.2,0,30.4C411.3,396.9,409.7,378.1,399,373.4z"/>
		<path d="M572.4,108.7c1.4,0.6,2.6,1.4,3.9,2c10.8,4.7,17.5,12.6,17.8,24.5c0.5,25.7,0.5,51.5,0,77.2
			c-0.2,14.2-10.4,24.7-24.5,26.5c-1.7,0.2-3.5,0.6-5.1,0.3c-16.9-2.6-30.7,3.5-44.4,12.8c-20.6,14.2-42.2,26.8-63.4,40
			c-1.4,0.9-2.9,1.7-5.4,3.2c3.2-19,6.3-37,9.5-55.9c-7.1,0-13.9,0-20.5,0c-21.4,0-32.4-11-32.4-32.2c0-21.1,0.5-42.2-0.2-63.2
			c-0.6-17.3,5.6-29.5,22.6-35.1C477.6,108.7,525,108.7,572.4,108.7z M476.8,256.6c1.1-0.2,1.5-0.2,1.8-0.3
			c11.3-7.1,23.2-13.2,33.9-21.4c15.2-11.6,31.6-16.7,50.7-14.6c9.3,1.1,12.5-2.9,12.5-12.2c0-22.4,0-44.7,0-67.1
			c0-11-2.6-13.5-13.7-13.5c-37.2,0-74.5,0-111.7,0c-4.7,0-9.3-0.2-14.2,0c-6.2,0.3-9.6,3.5-9.6,9.5c-0.2,24.7-0.2,49.2,0,73.9
			c0,6.3,3.6,9.5,9.9,9.6c1.8,0,3.8,0,5.6,0c13.2,0,26.6,0,40.5,0C480.7,233,478.8,244.5,476.8,256.6z"/>
		<path d="M71.2,339.1c8.1-4.8,16-9.5,24.2-14.5c3.3,5.4,6.3,10.5,9.6,16c-18.4,11-36.1,21.7-54.5,32.8
			c-11-18.2-21.7-36.1-32.7-54.5c5.3-3.2,10.2-6.2,16-9.6c5.7,9.5,11.4,18.8,17.5,28.8c22.7-85.5,73.3-146.8,154.2-181.1
			c57.5-24.5,116.7-26.2,177.2-8.6c-1.8,6-3.6,11.7-5.4,17.5c-85.1-22.7-162-8.1-229.7,48.3C109.9,245.4,72.3,308.1,71.2,339.1z"/>
		<path d="M534.3,320.3c-5.3,8.7-10.4,17.2-16,26.3c-5.3-3.2-10.4-6-16-9.5c11-18.2,21.7-36.3,32.7-54.7
			c18.4,11,36.3,21.8,54.5,32.8c-3.3,5.6-6.5,10.7-9.6,16c-9-5.4-17.5-10.4-26.8-16c26.6,90.2,11.7,172.1-45,247.2
			c-5.3-4.2-9.8-8-14.8-11.9c33.1-42,51.3-89.4,53.7-142.4C548.8,376.6,542.6,337,534.3,320.3z"/>
		<path fill="#FFFFFF" d="M212.1,404.1c-12.9-7.1-11.1-26.3,0-30.9c0,5.3,0,10.1,0,15.1C212.1,392.1,212.1,397.5,212.1,404.1z"/>
		<path fill="#FFFFFF" d="M399,403.8c0-10.1,0-20,0-30.4"/>
		<path d="M556.7,146.4c0,6,0,11.9,0,17.9c-37.2,0-74.1,0-111.4,0c0-6.2,0-11.9,0-17.9C482.4,146.4,519.1,146.4,556.7,146.4z"/>
		<path d="M519.4,183.7c0,6.2,0,11.9,0,17.9c-24.8,0-49.2,0-74.1,0c0-6.2,0-11.9,0-17.9C470,183.7,494.4,183.7,519.4,183.7z"/>
		<path d="M538.7,201.6c0-6,0-11.7,0-17.9c5.9,0,11.6,0,17.8,0c0,5.7,0,11.6,0,17.9C550.7,201.6,545,201.6,538.7,201.6z"/>
	</g>
</g>
</svg>
