<?xml version="1.0" encoding="utf-8"?>
<!-- Generator: Adobe Illustrator 17.1.0, SVG Export Plug-In . SVG Version: 6.00 Build 0)  -->
<!DOCTYPE svg PUBLIC "-//W3C//DTD SVG 1.1//EN" "http://www.w3.org/Graphics/SVG/1.1/DTD/svg11.dtd">
<svg version="1.1" id="Layer_1" xmlns="http://www.w3.org/2000/svg" xmlns:xlink="http://www.w3.org/1999/xlink" x="0px" y="0px"
	 viewBox="0 0 612 792" enable-background="new 0 0 612 792" xml:space="preserve">
<g>
	<g>
		<path d="M118.5,690c-6.4-1.5-13-2.7-19.2-4.6C47.1,670.4,12.2,620.7,15.4,566c3.2-54.3,43.6-99.4,97-108.4
			c13-2.1,25.8-2.3,38.7-0.2c2.1,0.3,5.3-0.6,6.9-2.1c69.2-69.4,138.6-138.8,208-208.2c1.4-1.4,2.3-4.3,2-6.4
			c-9.6-65.3,30.8-122.3,95.6-134.7c2.7-0.5,5.5-1.1,8.2-1.7c7.6,0,15.3,0,22.9,0c4.3,0.9,8.5,1.7,12.7,2.6c4.7,1.1,9.5,2,11.3,7.5
			c1.7,5.6-1.4,9.3-5,13c-18.3,18.1-36.3,36.3-54.6,54.4c-2.6,2.4-3.1,4.6-2,7.9c4.6,13.1,9,26.2,13.3,39.5c1.1,3.4,2.7,4.9,5.9,5.9
			c12.8,4.1,25.8,8.2,38.4,12.8c4.1,1.5,6.4,0.8,9.3-2.3c18.3-18.6,36.8-36.9,55.2-55.4c3.1-3.1,6.4-5.3,11.1-3.8
			c4.6,1.5,6.4,5,7.3,9.3c0.6,3.2,1.5,6.3,2.3,9.3c0,11.4,0,22.9,0,34.3c-0.5,1.2-0.9,2.4-1.2,3.7c-11.1,61.6-70.2,103.9-131.9,94.2
			c-4.7-0.8-7.6,0.2-10.8,3.5c-11.4,11.7-23,23.3-34.8,34.8c-3.8,3.8-8.1,7.3-12.7,11.4c6.4,6.1,11.6,11.1,16.6,16.2
			c12.4,12.4,12.4,12.4,1.4,25.8c-4,4.9-3.8,10.8,0.5,14.9c4,4,9.8,4.3,14.5,0.8c1.1-0.8,2-1.8,2.9-2.7c7.8-7.6,11.7-7.6,19.5,0.2
			c37.4,37.4,74.7,74.4,111.8,112.1c6.9,7,12.2,15.4,17.2,23.9c3.2,5.5,4.6,11.9,6.7,18c0,10.2,0,20.6,0,30.8
			c-0.5,1.2-0.9,2.4-1.4,3.7c-8.1,28.4-26.1,47.3-54.1,56.4c-3.2,1.1-6.4,1.8-9.8,2.7c-8.4,0-16.8,0-25.2,0
			c-0.5-0.3-0.9-0.8-1.4-0.9c-17.7-3.2-32.2-12-44.7-24.7c-36.6-36.9-73.5-73.5-110.3-110.4c-1.2-1.2-2.4-2.4-3.5-3.7
			c-3.7-4.3-3.7-9.2,0-13.4c2-2.3,4.4-4.3,6.1-6.7c3.1-4.1,2.3-10.1-1.2-13.6c-3.7-3.7-9.8-4.3-14.2-1.2c-1.4,0.9-2.6,2.3-3.8,3.5
			c-7.5,7.3-11.4,7.3-18.8,0c-6.6-6.6-13-13.3-19.7-20.3c-16,16-31,31.4-46.4,46.4c-3.7,3.5-4.9,6.9-4.1,11.9
			c8.7,58.9-29.3,115.4-87.1,129.6c-4.9,1.2-9.9,2.3-14.8,3.4C136.8,690,127.6,690,118.5,690z M580.9,217.8c-0.8-0.6-1.7-1.4-2.4-2
			c-0.9,1.8-1.5,4.1-2.9,5.6c-14.6,14.8-29.4,29.4-43.9,44.2c-4.3,4.3-8.5,5.6-14.3,3.5c-17.8-6.1-35.7-12.2-53.5-17.8
			c-5.3-1.7-8.2-4.9-9.9-9.9c-5.6-17.5-11.4-35.1-17.5-52.5c-2.3-6.4-0.9-11.1,4-15.9c14.9-14.5,29.4-29.3,44.1-43.9
			c1.4-1.4,2.6-2.7,3.8-4.3c-0.3-0.5-0.5-0.9-0.8-1.4c-7.3,0.8-14.8,0.9-22.1,2.3c-55.5,11.4-88.1,61.3-76.9,117
			c1.1,5.3,0.3,9.5-3.7,13.4C312,329,239.3,401.7,166.5,474.5c-3.7,3.7-7.6,4.7-12.5,3.7c-5.2-0.9-10.5-2-15.7-2.4
			c-61.6-5.2-113.8,50.9-104.2,112.1c8.8,55.7,60.1,92.4,115.3,82.5c54.3-9.6,89.7-63,77.9-117.7c-1.2-5.9-0.2-10.5,4.3-14.9
			c72.3-72.1,144.6-144.3,216.7-216.6c4.4-4.4,8.7-5.6,14.8-4.3c50.9,11,100.5-18.9,114.5-68.8C580.3,238.1,581.7,228,580.9,217.8z
			 M396.2,402.2c-27.8,27.9-55.5,55.7-83,83.4c4.4,4.6,9.3,9.6,14.2,14.5c16.3-9,29.6-8.4,40.4,1.8c11.1,10.5,12.2,23.3,3.5,40.9
			c37.7,37.7,75.3,75.3,111.9,111.9c27.3-27.1,55.1-54.9,82.4-82c-37.2-37.1-74.7-74.6-112.4-112.1c-14.2,8.8-28.8,8.7-39.2-2.1
			c-4.4-4.6-7.6-11-9.3-17.1c-2.4-8.8,0.8-17.2,6.1-24.4C405.7,411.8,400.8,406.8,396.2,402.2z M502.7,666.9
			c16.5,8.2,42.5,3.2,59.2-11.9c17.4-15.7,23.8-41.5,15.7-63.1"/>
		<path d="M66.9,104.3c21,12.2,41.9,24.6,63.3,36.3c7.5,4.1,12.4,9.2,13.3,17.7c2.1,20.7,12.8,36,27.9,50.2
			c33.9,32.2,66.3,65.7,99.3,98.7c1.5,1.5,3.2,2.7,4.6,3.8c-5,4.9-9.6,9.2-14.5,13.7c-0.5-0.5-2-1.8-3.5-3.2
			c-40-39.8-79.8-79.8-119.6-119.7c-2.9-2.9-5-7-6.4-11.1c-2.7-9.2-4.7-18.5-7.2-27.6c-0.5-1.7-1.4-3.8-2.7-4.6
			c-18.6-10.8-37.2-21.4-55.4-31.7c-9.8,9.8-19.2,19.1-29,28.8c10.4,18.1,21,36.8,31.7,55.4c0.8,1.4,2.9,2.3,4.6,2.9
			c4.1,1.2,8.4,2.7,12.7,3.2c15.6,1.8,26.8,10.2,37.7,21.4c35.5,36.4,71.7,72.1,107.8,108.1c1.5,1.5,3.4,2.6,5.3,4.1
			c-5.5,5-10.1,9.2-16,14.6c-0.6-1.1-1.7-3.4-3.2-4.9c-38.6-38.7-77.3-77.5-116.1-115.9c-2.4-2.4-5.8-4.3-9.2-5.2
			c-9.6-2.9-19.7-4.7-29.3-7.8c-3.5-1.1-7.3-3.8-9-6.9c-12.7-21.5-24.9-43.2-37.4-64.8c-2.9-5-2.7-9.8,1.5-14
			c12.5-12.5,25-25,37.7-37.5c1.5-1.4,3.4-2.4,5-3.7C63.1,104.3,65.1,104.3,66.9,104.3z"/>
		<path fill="#FFFFFF" d="M534.7,690c3.2-0.9,6.6-1.7,9.8-2.7c28.2-9.2,46.2-28.1,54.1-56.4c0.3-1.2,0.9-2.4,1.4-3.7
			c0,20.9,0,41.9,0,62.8C578.1,690,556.5,690,534.7,690z"/>
		<path d="M131.6,514.4c9.3,0,18.6,0.2,28.1,0c5,0,8.5,2,11.1,6.4c9,15.3,18.1,30.3,27.3,45.6c2.7,4.6,2.7,8.8-0.2,13.3
			c-9.2,14.9-18.1,30-27,45.1c-2.7,4.7-6.6,6.9-12.2,6.9c-17.8-0.2-35.8-0.2-53.7,0c-5.3,0-9-2-11.7-6.6
			c-9-15.3-18.1-30.5-27.3-45.6c-2.7-4.6-2.7-8.7,0-13.3c9.2-14.9,18.1-29.9,27-45c2.9-4.9,6.7-6.9,12.2-6.9
			C114.1,514.6,122.8,514.4,131.6,514.4z M132.1,611.4c0,0.2,0,0.3,0,0.6c5.9,0,11.9-0.3,17.7,0.2c4.3,0.3,7-0.9,9-4.9
			c2.7-5.5,6.3-10.5,9.3-15.7c3.7-6.1,9.9-12.2,9.9-18.1c0-6.3-6.3-12.5-9.9-18.8c-4-6.7-6.7-15.9-12.7-19.2
			c-6.1-3.5-15.6-1.2-23.5-1.2c-7.8,0-17.1-2.4-23,1.1c-6.1,3.5-9,12.7-13.1,19.5c-3.7,5.9-9.9,12.2-9.9,18.1
			c0.2,6.3,6.3,12.5,10.1,18.8c4,6.7,6.7,16,12.7,19.2C114.8,614,124.1,611.4,132.1,611.4z"/>
		<path d="M207.1,510.3c-4.1-4-8.5-8.2-12.5-12c71.4-71.4,142.7-142.7,214.1-214.1c4,4,8.2,8.2,12.4,12.4
			C349.7,367.7,278.3,439.1,207.1,510.3z"/>
		<path d="M409.6,510.9c3.8-3.7,8.2-7.9,12.5-12c32,32,64.2,64.2,96.7,96.7c-4.3,4-8.8,8.1-13,11.7
			C474.4,575.6,442.1,543.2,409.6,510.9z"/>
	</g>
</g>
</svg>
