<?xml version="1.0" encoding="utf-8"?>
<!-- Generator: Adobe Illustrator 17.1.0, SVG Export Plug-In . SVG Version: 6.00 Build 0)  -->
<!DOCTYPE svg PUBLIC "-//W3C//DTD SVG 1.1//EN" "http://www.w3.org/Graphics/SVG/1.1/DTD/svg11.dtd">
<svg version="1.1" id="Layer_1" xmlns="http://www.w3.org/2000/svg" xmlns:xlink="http://www.w3.org/1999/xlink" x="0px" y="0px"
	 viewBox="0 0 612 792" enable-background="new 0 0 612 792" xml:space="preserve">
<g>
	<g>
		<path d="M422.2,105.3c5.9,2.3,12,4.4,17.9,7c2.6,1.1,4.7,3.2,7.4,5.2c-4.4,5-8.5,9.6-12.9,14.6c-7.8-6.7-16.9-7.3-26.3-7.3
			c-67,0.2-134,0.6-201.1-0.2c-20.5-0.3-38.1,12-34.5,39.1c51.4,0,102.9,0,154.7,0c0,6.7,0,12.8,0,19.3c-51.5,0-102.9,0-154.7,0
			c0,17.6,0,34.5,0,52c6.1-0.9,12.2-1.8,18.8-2.9c0-9.7,0-19.3,0-29.2c6.7,0,12.8,0,19.5,0c0,9.7,0,19.3,0,28.4
			c11.8,2.2,23,3.4,30.5,7.4c48.9,17.9,77.4,52.9,85.1,104.4c0.6,4,1.8,5.5,5.9,5.3c7.9-0.3,15.8-0.2,24.2-0.2c0,6.5,0,12.6,0,19.5
			c-8.2,0-16.3,0.2-24.3-0.2c-3.8-0.2-5.3,1.1-5.8,4.9c-7.6,60.3-52.3,104.3-112.6,111.1c-0.8,0.2-1.4,0.3-2.7,0.6
			c0,9.4,0,18.8,0,28.7c-6.7,0-12.8,0-19.6,0c0-8.2-0.2-16.4,0-24.5c0-3.2-0.6-4.7-4.3-5c-60.6-7.1-105.6-52.9-111.9-113.2
			c0-0.6-0.3-1.1-0.5-2.4c-9.4,0-19,0-28.9,0c0-6.7,0-12.8,0-19.5c9.6,0,19.1,0,27.5,0c3.8-13.5,6.4-26.4,11.1-38.4
			c12.2-30.4,33.6-52.4,63.2-66.4c3.8-1.8,4.9-3.8,4.7-7.8c-0.2-25.8-0.2-51.7,0-77.5c0-28.6,12.9-45.3,40.6-52.6
			c0.3-0.2,0.6-0.5,0.9-0.6C270.2,105.3,346.2,105.3,422.2,105.3z M191.6,252.7c-41.5-4.9-98.6,52-96.2,95.7c5.9,0,11.9,0,17.8,0
			c0,6.8,0,12.8,0,19.3c-6.2,0-12,0-18.5,0c3.3,29.2,15.5,52.9,38.3,72.8c0.2-29.5,12.2-50.8,36.5-65c-24.6-23.9-18.8-55.2-2.9-71.3
			c18.2-18.2,47.3-19.5,66.6-2.4c21.7,19,21.9,45.9,0.2,74c24.3,14.1,36,35.7,36.3,64.7c22.5-19.8,35-43.3,38-72.8
			c-6.7,0-12.6,0-18.5,0c0-6.8,0-12.8,0-19.5c6.2,0,12.2,0,18.2,0c-4.1-55.2-52.4-94.4-96.4-95.9c0,5.9,0,11.9,0,17.9
			c-6.7,0-12.8,0-19.3,0C191.6,264.2,191.6,258.5,191.6,252.7z M211.1,465.8c10.3-2.9,19.8-5,28.7-7.9c10.2-3.3,10.2-3.8,10-14.1
			c0-3.2,0.2-6.5-0.2-9.7c-1.4-18.4-9.9-32.7-26.4-41c-16.7-8.5-33.6-7.6-49.2,2.7c-16.6,10.9-22.3,27.4-21.7,46.7
			c0.5,11.9,0,12.2,11.1,16c8.8,2.9,17.9,4.9,28,7.4c0-7.6,0-13.5,0-19.3c6.7,0,12.8,0,19.3,0C211.1,452.4,211.1,458,211.1,465.8z
			 M172.3,338.7c0,16.1,12.8,28.9,28.9,29c16.3,0.2,29.5-12.9,29.5-29c0-15.8-13.1-29-29-29.2C185.4,309.4,172.3,322.4,172.3,338.7z
			"/>
		<path d="M598.8,341.3c-14.7,17.5-29.2,35.3-44.2,52.4c-32.4,37.1-65,73.7-97.4,110.6c-1.7,2-3,4.9-3.5,7.4
			c-5.9,36.6-32.4,59.9-69.3,60.3c-21.3,0.3-42.6,0-63.8,0c-6.8,0-10.8-2.4-11.9-7.4c-1.4-5.8,1.8-9.1,6.5-11.9
			c8.5-5.2,12.6-12.8,12.6-22.8c0-12.5-0.9-25.1,3.5-37.2c9.7-26.9,28.9-42.4,57.1-46.7c2-0.3,4.3-0.9,5.6-2.1
			c17.3-15,34.5-30.2,51.2-45.1c0-33.1,0-65.8,0-98.8c6.1,0,12,0,18.8,0c0,26.9,0,53.6,0,81.9c4-3.5,6.8-5.9,9.6-8.4
			c24.3-21.4,49.1-42.4,72.9-64.6c17.6-16.4,44.4-9.7,51.7,10.5c0.2,0.3,0.5,0.5,0.8,0.8C598.8,327.6,598.8,334.5,598.8,341.3z
			 M444.5,489c0.8-0.8,1.7-1.8,2.7-2.9c31.5-35.6,62.8-71.1,94.2-106.7c11.9-13.4,23.7-26.7,35.4-40.1c5.9-6.8,4.7-15.2-2.6-18.7
			c-5.5-2.7-10-0.8-14.4,3.2c-38.4,34-77.1,68.1-115.7,102.1c-11.2,9.9-22.5,19.8-33.4,29.5C422,466.8,433.1,477.8,444.5,489z
			 M341.8,552.4c2.3,0.2,3.3,0.3,4.6,0.3c14.7-0.2,29.6,0.5,44.4-0.5c22-1.4,39.8-18.2,43.2-40.1c0.3-2.1-0.6-5.3-2.1-6.8
			c-12.2-12.5-24.5-24.9-37.1-37.1c-1.5-1.5-4.7-2.6-6.8-2.3c-10.2,1.7-19,6.2-26.3,13.5c-9.9,10-14.3,22-14.3,36
			C347,527.8,348.5,540.2,341.8,552.4z"/>
		<path d="M194.2,688.9c-7.8-3.5-15.8-6.4-22.9-10.8c-4.7-2.9-8.2-8.2-12.9-13.1c6.4-3.8,11.7-6.8,17.5-10.2
			c8.1,13.1,20.4,14.7,34.2,14.7c67-0.3,134-0.2,201.1-0.2c21.4,0,33.1-11.6,33.1-33c0-8.2,0-16.3,0-25.1c-58.5,0-116.4,0-174.8,0
			c0-6.7,0-12.8,0-19.5c57.9,0,116,0,174.5,0c0-13.2,0-25.7,0-38.6c6.7,0,12.8,0,19.8,0c0,2.3,0,4.6,0,6.8c0,25.1,0,50.2,0,75.2
			c0,28.9-12.9,45.6-40.9,52.9c-0.3,0.2-0.6,0.5-0.9,0.6C346.2,688.9,270.2,688.9,194.2,688.9z"/>
		<path d="M464.4,280.5c-34.3,0-68.7,0-103,0c-11.2,0-14.1-2.9-14.1-14.1c0-36.3,0-72.5,0-108.8c0-10.2,3.2-13.4,13.2-13.4
			c69.1,0,138.1,0,207.3,0c9.7,0,12.9,3.2,12.9,12.9c0,36.6,0,73.3,0,109.9c0,10.3-3,13.4-13.7,13.4
			C532.7,280.5,498.5,280.5,464.4,280.5z M561.1,163.9c-64.9,0-129.3,0-194.2,0c0,32.4,0,64.3,0,96.7c64.7,0,129.3,0,194.2,0
			C561.1,228.2,561.1,196.5,561.1,163.9z"/>
		<path d="M152.7,543c0-16.3,0-32.1,0-48.2c6.7,0,12.8,0,19.3,0c0,15.8,0,31.6,0,48.2c2.4,0,4.4,0,6.4,0c19.8,0,39.5,0,59.3,0
			c9,0,12.3,3.3,12.3,12.5c0,24.2,0,48.2,0,72.3c0,9-3.3,12.3-12.5,12.3c-69.5,0-139.1,0-208.5,0c-9.4,0-12.5-3.2-12.5-12.8
			c0-23.9,0-47.9,0-71.7c0-9.3,3.3-12.6,12.8-12.6c38.8,0,77.5,0,116.3,0C147.6,543,149.7,543,152.7,543z M36,620.3
			c64.9,0,129.5,0,194.2,0c0-19.3,0-38.4,0-57.4c-64.9,0-129.5,0-194.2,0C36,582.2,36,600.9,36,620.3z"/>
		<path d="M74.9,241.4c-15.3,0-30.7,0-46.2,0c-9,0-12.3-3.3-12.3-12.5c0-24.2,0-48.2,0-72.3c0-9,3.5-12.5,12.5-12.5
			c30.5,0,61.1,0,91.8,0c9.1,0,12.5,3.2,12.5,12.3c0,24.3,0,48.6,0,72.9c0,8.8-3.3,12-12.2,12C105.6,241.4,90.3,241.4,74.9,241.4z
			 M113.4,164.1c-26,0-51.5,0-77.2,0c0,19.5,0,38.3,0,57.4c26,0,51.5,0,77.2,0"/>
		<path d="M317.8,631.1c0,6.2,0,12.3,0,18.7c-6.4,0-12.3,0-18.7,0c0-6.2,0-12.3,0-18.7C305,631.1,311.2,631.1,317.8,631.1z"/>
		<path d="M386,222.3c52.1,0,103.5,0,155.3,0c0,6.2,0,12.3,0,18.8c-2.1,0.2-4,0.3-5.8,0.3c-47.7,0-95.3,0-143,0.2
			c-5.2,0-7.3-1.2-6.7-6.5C386.3,231.1,386,227,386,222.3z"/>
		<path d="M541.3,202.1c-32.1,0-64.1,0-96.5,0c0-6.2,0-12.2,0-18.7c32.1,0,64,0,96.5,0C541.3,189.6,541.3,195.7,541.3,202.1z"/>
		<path d="M386.3,183.4c13.1,0,25.5,0,38.3,0c0,6.4,0,12.3,0,18.7c-12.8,0-25.4,0-38.3,0C386.3,195.9,386.3,189.9,386.3,183.4z"/>
		<path d="M124,582.2c29,0,57.8,0,86.8,0c0,6.2,0,12.3,0,18.7c-28.9,0-57.6,0-86.8,0C124,594.9,124,588.9,124,582.2z"/>
		<path d="M104,582.3c0,6.2,0,12.2,0,18.4c-16,0-31.9,0-48.2,0c0-5.9,0-12,0-18.4C71.6,582.3,87.5,582.3,104,582.3z"/>
		<path d="M93.8,202.4c-12.8,0-25.1,0-38,0c0-6.2,0-12.5,0-18.8c12.6,0,25.1,0,38,0C93.8,189.6,93.8,195.7,93.8,202.4z"/>
	</g>
</g>
</svg>
