<?xml version="1.0" encoding="utf-8"?>
<!-- Generator: Adobe Illustrator 17.1.0, SVG Export Plug-In . SVG Version: 6.00 Build 0)  -->
<!DOCTYPE svg PUBLIC "-//W3C//DTD SVG 1.1//EN" "http://www.w3.org/Graphics/SVG/1.1/DTD/svg11.dtd">
<svg version="1.1" id="Layer_1" xmlns="http://www.w3.org/2000/svg" xmlns:xlink="http://www.w3.org/1999/xlink" x="0px" y="0px"
	 viewBox="0 0 612 792" enable-background="new 0 0 612 792" xml:space="preserve">
<g>
	<g>
		<path d="M593.6,285.8c0,125.3,0,250.5,0,375.8c-3.5,12.3-11.4,20.1-23.6,23.6c-170.3,0-340.5,0-510.8,0c-1.4-0.5-2.9-0.9-4.2-1.2
			c-17.6-4.7-29.3-15.3-35.1-32.5c-0.8-2.3-1.5-4.5-2.3-6.8c0-165,0-330,0-495c3.2-11.1,7.2-21.9,17-28.7
			c7.2-4.9,15.6-7.9,23.6-11.8c88,0,176.3,0,264.3,0c0.3,0.3,0.6,0.6,0.9,0.8c27.4,7.5,39.8,23.7,39.8,52.1c0,31.5,0,63,0,94.5
			c0,2,0.1,3.9,0.3,6.5c3,0,5.4,0,7.8,0c63.3,0,126.8,0,190.1,0c17.3,0,25.8,6,31.6,22.2C592.9,285.3,593.3,285.5,593.6,285.8z
			 M248.1,473.7c0,59.4,0,118.8,0,178.4c0,11.3,2.7,13.8,13.9,13.8c99.3,0,198.8,0,298,0c11.6,0,14.4-2.7,14.4-14.1
			c0-118.7,0-237.3,0-356c0-11.1-2.7-13.8-14.1-13.8c-99.6,0-199.1,0-298.7,0c-11.1,0-13.7,2.5-13.7,13.5
			C248.1,354.9,248.1,414.3,248.1,473.7z M228.5,588.9c0-16.3,0-32,0-47.8c-5.6,0-10.5,0-15.6,0c-15.1,0-22.3-7.2-22.3-22.4
			c0-29.5,0-59.3,0-88.8c0-16.3,6.9-23.1,23.2-23.1c5,0,9.9,0,14.7,0c0-13.4,0-25.7,0-38.5c-2.6,0-4.8,0-7.1,0
			c-44.9,0-89.6,0-134.4,0c-13.7,0-21.3-7.4-21.3-20.6c-0.2-31.3-0.2-62.5,0-93.9c0-12,7.9-19.8,19.8-19.8c69.9,0,139.8,0,209.7,0
			c11.4,0,19.1,7.4,19.8,18.6c0.1,3.1,0,6.3,0,9.6c10,0,19.2,0,28.3,0c0-19.2,0-38.1,0-57c-102.3,0-204.1,0-306.3,0
			c0,127.9,0,255.8,0,383.5C101.1,588.9,164.5,588.9,228.5,588.9z M344,185.6c0-9.8,0.1-19.1,0-28.3c-0.3-16.4-12.5-28.8-29-28.8
			c-83.1-0.2-166-0.2-249.2,0c-14.7,0-26.8,10.1-28.3,24.4c-1.2,10.6-0.3,21.6-0.3,32.7C139.2,185.6,241.2,185.6,344,185.6z
			 M228.5,646.7c-2.3,0-4.2,0-6.3,0c-24.9,0-49.8,0-74.7,0c-1.5,0-3,0-4.5,0c-6.2-0.3-10.2-4.3-10.1-9.8c0.1-5.4,4.2-9.3,10.5-9.3
			c26.3,0,52.5,0,78.8,0c2.1,0,4.3,0,6.4,0c0-6.9,0-12.8,0-18.9c-63.9,0-127.5,0-191.7,0c0,8.7,0,17.1,0,25.4
			c0,19.9,11.9,31.8,31.8,31.8c51.9,0,103.8,0,155.7,0c1.9,0,3.9,0,5.6,0C229.3,659.1,228.9,653.3,228.5,646.7z M295.7,253.5
			c-70.4,0-140.4,0-210.5,0c0,31.8,0,63.3,0,95.7c2.1-2,3.6-3.3,4.9-4.8c18.9-18.9,38-38,56.8-56.9c7.6-7.6,11.5-7.6,19.4,0
			c9.9,9.9,19.8,20,29.9,30c10-9.5,19.6-18.3,29.1-27.3c0.8-0.8,1.8-1.4,2.4-2.4c0.8-1.2,1.5-2.5,1.9-3.9
			c4.7-14,14.1-21.1,28.8-21.5c9.1-0.1,18.3,0,27.6,0c3.2,0,6.2,0,9.5,0C295.7,259.2,295.7,256.6,295.7,253.5z M115,348.6
			c27.7,0,56,0,83.9,0c-14.1-14.1-28.2-28.2-41.9-41.8 M210.2,426.3c0,32.3,0,63.8,0,95.3c6.4,0,12.3,0,18.3,0c0-32,0-63.5,0-95.3
			C222.2,426.3,216.3,426.3,210.2,426.3z M211.5,329.7c6,6.1,11.7,12,17,17.4c0-10,0-21,0-33.1C222,320.1,216.2,325.5,211.5,329.7z"
			/>
		<path d="M296,560.3c0,2.4,0,4.5,0,6.4c0,13.4,0,26.6,0,39.9c0,7.1-3.5,11-9.2,11.1c-6,0.2-9.9-3.9-9.9-11.1
			c-0.2-15.2-0.2-30.3,0-45.6c0.1-12.3,8.1-19.9,20.3-19.9c15-0.2,30,0,45,0c7,0,11.5,3.8,11.5,9.4s-4.4,9.6-11.4,9.6
			C327,560.3,311.8,560.3,296,560.3z"/>
		<path d="M296,454.7c0,14.7,0,28.5,0,42.3c0,2.4,0.1,5-0.3,7.4c-0.8,4.9-3.9,7.6-8.9,7.8c-5,0.2-8.3-2.3-9.5-7.1
			c-0.4-1.8-0.6-3.8-0.6-5.6c0-14.1,0-28,0-42.2c0-14.3,7.6-21.9,21.9-21.9c14.5,0,29.3-0.1,43.8,0c8.1,0,12.9,6,10.4,12.8
			c-1.6,4.6-5.3,6.5-10,6.5c-13.4,0-26.6,0-39.9,0C300.9,454.7,298.8,454.7,296,454.7z"/>
		<path d="M296,349c0,14.9,0,28.7,0,42.5c0,2.4,0,5-0.3,7.3c-0.8,5-4.1,7.7-8.9,7.8s-8.3-2.3-9.5-7.2c-0.4-1.8-0.4-3.8-0.4-5.5
			c0-14.1-0.2-28.1,0-42.2c0-14.3,7.8-21.8,21.9-21.9c14.5,0,29.3-0.2,43.8,0c8.3,0.1,13.1,6.6,10.2,13.3c-1.8,4.4-5.4,5.9-10,5.9
			c-13.4,0-26.6,0-39.9,0C300.8,349,298.8,349,296,349z"/>
		<path d="M342.3,593.6c4-6,7.5-11.4,11.1-16.7c6.9-10.2,13.6-20.6,20.5-30.8c3.6-5.3,9-6.6,13.5-3.6c4.6,3,5.9,8.7,2.6,13.8
			c-12.5,18.9-24.9,37.8-37.7,56.5c-4.2,6.2-10.3,6.6-15.8,1.4c-6-5.9-12-11.9-17.8-17.9c-4.2-4.3-4.3-10.2-0.5-13.9
			c4-3.9,9.5-3.9,14,0.6C335.5,586.2,338.5,589.7,342.3,593.6z"/>
		<path d="M342,488.3c3-4.5,5.3-7.8,7.5-11.3c8.1-12.2,16.2-24.3,24.3-36.5c3.6-5.3,8.9-6.6,13.5-3.6c4.8,3,5.9,8.8,2.3,14.3
			c-12.3,18.6-24.6,37-37,55.5c-4.5,6.7-10.7,7.2-16.5,1.6c-5.9-5.7-11.7-11.5-17.4-17.5c-4.3-4.5-4.5-10.1-0.6-14
			c3.9-3.9,9.4-3.9,13.9,0.5C335.5,480.6,338.4,484.2,342,488.3z"/>
		<path d="M342,382.5c1.8-2.5,3-4.2,4-5.8c9-13.5,18-27.2,27-40.7c4.2-6.2,9.8-7.8,14.7-4.3c4.8,3.3,5.4,8.8,1.3,14.8
			c-12,18-24,36.2-36.1,54.2c-5,7.3-11,7.9-17.3,1.8c-5.5-5.5-11.1-11.1-16.6-16.7c-4.7-4.8-5.1-10.3-1.2-14.4c4-4.2,9.9-3.9,14.8,1
			C335.8,375.5,338.7,378.8,342,382.5z"/>
		<path d="M464.7,339.6c10.5,0,21,0,31.5,0c6.9,0,10.8,3.6,10.8,9.5c0,5.7-4.1,9.6-10.8,9.6c-21.4,0.1-43.1,0.1-64.5,0
			c-6.6,0-10.8-3.9-10.9-9.6c0-5.7,4.2-9.5,10.8-9.6C442.7,339.6,453.8,339.6,464.7,339.6z"/>
		<path d="M464.1,445.2c10.7,0,21.3,0,32,0c6.9,0,10.8,3.5,10.9,9.3c0.2,6-4,9.8-11.1,9.9c-21.3,0.1-42.6,0.1-64.1,0
			c-6.9,0-11.3-4.2-11.1-10.1c0.2-5.5,4.4-9.1,11.3-9.1C442.7,445.2,453.4,445.2,464.1,445.2z"/>
		<path d="M463.5,569.8c-10.8,0-21.8,0.2-32.6,0c-4.9-0.2-8.7-2.4-9.8-7.7c-0.9-4.3,0.6-7.9,4.4-10c1.8-1,4.2-1.5,6.4-1.5
			c21.3-0.2,42.6-0.2,63.9,0c7.1,0,10.9,3.5,11.1,9.2c0.2,6-3.9,9.9-10.9,9.9C485.1,570,474.3,570,463.5,569.8L463.5,569.8z"/>
		<path d="M497.3,397c-6,0-12,0.2-17.8,0c-6.5-0.1-10.8-4.2-10.5-9.9c0.1-5.4,4.3-9.2,10.5-9.3c12.1-0.1,24.3-0.1,36.4,0
			c6.5,0,10.3,3.6,10.5,9.3c0.2,5.8-3.9,9.6-10.3,9.9c-0.2,0-0.3,0-0.6,0C509.3,397,503.3,397,497.3,397z"/>
		<path d="M497.8,483.6c6,0,12-0.1,17.8,0c6.5,0.2,10.4,3.6,10.4,9.2c0.1,5.6-3.8,9.8-9.9,9.9c-12.4,0.1-25.1,0.1-37.5,0
			c-6-0.2-10.2-4.5-10.1-9.9c0.1-5.3,4.2-9,10.1-9.2C485.1,483.4,491.6,483.6,497.8,483.6z"/>
		<path d="M497.4,589.2c6.1,0,12.3-0.1,18.6,0c6.4,0.2,10.2,3.8,10.2,9.5c0,5.5-3.9,9.5-10.2,9.6c-12.2,0.2-24.3,0.2-36.6,0
			c-6.5-0.1-10.8-4.3-10.7-9.9c0.2-5.4,4.2-9,10.7-9.2c0.3,0,0.8,0,1,0C486.2,589.2,491.8,589.2,497.4,589.2z"/>
		<path d="M541.2,445.2c9.3,0,13.8,2.8,14,9.1c0.2,6.5-4.7,9.9-14,9.9c-2.3,0-4.5,0.1-6.8-0.3c-4.9-0.9-8.4-5.3-8.1-9.9
			c0.3-4.8,4.1-8.4,9.3-8.9C537.4,445.2,539.4,445.2,541.2,445.2z"/>
		<path d="M540.4,359.1c-2.7-0.4-5.7-0.4-8.3-1.3c-4.3-1.7-6.3-5.3-5.7-9.9c0.6-4.5,3.3-7.6,8.1-8.1c3.5-0.5,7.1-0.3,10.7-0.2
			c5.8,0.2,9.9,4.1,9.9,9.3c0.2,5.1-3.9,9.3-9.6,9.8c-1.7,0.1-3.3,0-5.1,0C540.4,358.8,540.4,359,540.4,359.1z"/>
		<path d="M435.4,589.2c9.6,0,14.1,3,14.1,9.6c-0.2,6.4-4.8,9.6-14.4,9.4c-2.3,0-4.5,0.2-6.8-0.4c-5.1-1.2-7.7-4.5-7.7-9.8
			c0-5,3.8-8.6,9-9C431.7,589.1,433.7,589.2,435.4,589.2z"/>
		<path d="M541.1,570.2c-2.6-0.3-5.3-0.3-7.8-0.9c-4.5-1.2-6.9-4.7-6.8-9.2c0.2-4.8,2.7-8.3,7.7-9c3.9-0.6,7.8-0.4,11.7-0.3
			c5.6,0.3,9.3,4.2,9.3,9.3c0,5-3.6,9-9.2,9.6c-1.7,0.2-3.3,0-5.1,0C541.1,570,541.1,570,541.1,570.2z"/>
		<path d="M435,397c-9.6,0-14.3-3.1-14.1-9.8c0-6.5,4.6-9.5,14.3-9.5c1.5,0,3,0,4.5,0c5.8,0.3,9.8,4.1,9.9,9.3
			c0.1,5.4-4.1,9.4-10.1,9.8C438,397.2,436.5,397,435,397z"/>
		<path d="M435.2,483.6c1.6,0,3.3-0.1,5.1,0c5.4,0.3,9.3,4.2,9.4,9.2c0.1,4.9-3.6,9.3-9,9.8c-3.1,0.3-6.3,0.3-9.6,0.2
			c-6.1-0.3-10.2-4.2-10.2-9.6s4.2-9.3,10.3-9.4C432.4,483.6,433.8,483.6,435.2,483.6L435.2,483.6z"/>
		<path d="M137.5,541.1c-7.5,0-15,0-22.3,0c-6.8,0-10.8-3.6-11-9.3c-0.1-6,4.1-9.8,11.1-9.8c15,0,29.9,0,44.9,0
			c6.8,0,10.9,3.6,10.9,9.3c0.1,5.8-4.2,9.8-11.1,9.8C152.5,541.1,145,541.1,137.5,541.1z"/>
		<path d="M138,483.6c7.5,0,15,0,22.4,0c6.6,0.2,10.8,3.9,10.6,9.6c0,5.6-4,9.4-10.4,9.4c-15.4,0.2-31.1,0.2-46.5,0
			c-6.1,0-10.2-4.2-10-9.8c0-5.7,3.9-9.3,10.3-9.3C122.3,483.4,130.2,483.6,138,483.6z"/>
		<path d="M137.9,445.2c7.6,0,15.3-0.2,23.1,0c6.1,0.1,9.9,3.6,10.2,9c0.3,5.5-3.6,9.9-9.8,10c-15.8,0.2-31.5,0.2-47.3,0
			c-6.1-0.2-10-4.3-9.9-9.9c0.1-5.4,3.9-9,10-9C122.1,445,129.9,445.2,137.9,445.2z"/>
		<path d="M137.9,406.8c7.5,0,15-0.1,22.5,0c6.8,0.2,10.8,3.9,10.8,9.6s-4,9.4-10.9,9.6c-15,0.2-30,0.2-45,0
			c-7.2,0-11.3-3.9-11.1-9.9c0.1-5.7,4-9.2,11.1-9.2C122.9,406.7,130.4,406.8,137.9,406.8z"/>
		<path d="M84.8,531.6c-0.1,5.1-4.8,9.6-9.9,9.5c-5.4-0.2-9.3-4.5-9.2-10.1c0.2-5.3,4.2-9.1,9.4-9.1C80.4,522,84.9,526.5,84.8,531.6
			z"/>
		<path d="M75.3,502.7c-5.3,0-9.4-4.4-9.4-9.8c0-5.3,3.9-9.2,9.1-9.3c5.3-0.1,9.8,4.1,9.9,9.3C84.9,498,80.4,502.7,75.3,502.7z"/>
		<path d="M84.8,416.7c-0.3,5.3-4.9,9.5-10.1,9.1c-5.3-0.3-9.3-4.6-8.8-10.2c0.3-5.1,4.3-9,9.6-8.9S85.1,411.5,84.8,416.7z"/>
		<path d="M75.4,445.2c5.3,0.1,9.6,4.5,9.4,9.8c-0.1,5-4.6,9.1-9.4,9.3c-5.3,0.2-9.6-4.2-9.6-9.6C65.9,449.3,69.9,445.2,75.4,445.2z
			"/>
		<path d="M214.3,166.6c-4.7,0-9.3,0.1-14.1,0c-6-0.1-9.6-3.9-9.8-9.4c0-5.4,3.8-9.4,9.6-9.6c9.6-0.3,19.1-0.3,28.7,0
			c5.8,0.2,9.6,4.4,9.5,9.8c-0.2,5.4-3.8,9-9.9,9.3C223.7,166.8,219,166.6,214.3,166.6z"/>
		<path d="M156.5,166.6c-9.6,0-14.1-3.1-14-9.8c0.1-6.3,4.6-9.4,13.8-9.4c1.8,0,3.8-0.1,5.6,0.1c5.7,0.6,9.4,4.8,9.1,10.1
			c-0.3,5.1-4,8.7-9.6,9C159.8,166.6,158.1,166.6,156.5,166.6z"/>
	</g>
</g>
</svg>
