<?xml version="1.0" encoding="utf-8"?>
<!-- Generator: Adobe Illustrator 17.1.0, SVG Export Plug-In . SVG Version: 6.00 Build 0)  -->
<!DOCTYPE svg PUBLIC "-//W3C//DTD SVG 1.1//EN" "http://www.w3.org/Graphics/SVG/1.1/DTD/svg11.dtd">
<svg version="1.1" id="Ellipse_6_xA0_Image_1_" xmlns="http://www.w3.org/2000/svg" xmlns:xlink="http://www.w3.org/1999/xlink"
	 x="0px" y="0px" viewBox="0 0 707 774" enable-background="new 0 0 707 774" xml:space="preserve">
<path fill="#F2F6FB" d="M375,775c-4.3,0-8.7,0-13,0c-24.7-8.3-45-23.3-61.7-42.7c-38.8-45.3-58.8-98.9-67.7-157.2
	c-2.7-17.6-4.3-35.4-4-53.2c0.6-37.1,7.6-73,20.4-108c14.1-38.7,33.3-74.5,58.7-106.8c34.8-44.3,77.4-78.6,129.6-100.6
	c27.1-11.4,55.2-18.7,84.4-21.6c44.4-4.4,87.7,1.5,130,15.7c2.8,1,5.7,1.9,8.5,2.9c2,0.7,3.3,0.5,3.3-2c0-8,0.1-16-0.1-24
	c-0.1-2.7-2-3.5-4.2-4.2c-14.7-5.1-29.7-8.7-44.9-11.9c-26.9-5.7-54.2-7-81.5-5.7c-27.5,1.3-54.5,6.5-80.8,15.2
	c-21.4,7.1-42.1,15.8-61.7,27.1c-23.5,13.5-45,29.6-64.9,48c-36,33.2-63.9,72.3-85.3,116.1c-17.7,36.3-30.6,74.2-36.3,114.4
	c-2.9,20-4.4,40.1-3.4,60.3c2.1,43.2,9.9,85.3,25.9,125.7c11.6,29.3,26.5,56.7,46.3,81.3c6.8,8.4,14.2,16.3,22.3,23.6
	c1.3,1.2,3.5,2.4,2.8,4.3c-0.8,2.3-3.4,1.9-5.2,1.8c-14-1-27.8-3-41.6-5.2c-30.8-5-61-12.5-90.5-22.9c-2-0.7-4.2-1.2-5.9-2.7
	c-3.4-5.6-5.5-11.7-7.8-17.8c-10.7-28.3-18.3-57.5-23.6-87.2c-3.3-18.7-5.4-37.6-6.9-56.5c-1.2-16-0.7-32-0.8-47.9
	c-0.1-21.4,2.7-42.5,5.8-63.6c6-40.3,17.2-79.1,33.6-116.3c17.5-39.6,40.3-75.8,69.3-108.1c11.3-12.5,23.2-24.4,34.6-36.7
	c15.9-17.1,31.3-34.6,48.1-50.8c21.5-20.7,44.1-40.2,70.5-54.6c16.9-9.2,34.7-16.3,52.6-23.2c27-10.3,54.8-17.9,83.2-23.1
	c5.2-1,10.5-2,15.8-1.6c10.7,4.3,20.7,9.9,30.4,16.1c22.7,14.6,44.7,30.3,64.9,48.2c41.6,36.7,67.7,82.1,76.7,137.1
	c3.6,22.4,5.5,44.9,5.8,67.6c0.4,26,0.4,51.9,0.3,77.9c-0.1,23.5-0.4,46.9-1.1,70.4c-0.6,19.8-1.1,39.6-2.1,59.3
	c-0.9,18.6-0.3,37.3-3.7,55.7c-5.9,31.1-19.5,58.2-40.2,82c-11.5,13.3-24.8,24.6-38.9,34.9c-2.2,1.6-4.4,3-7,3.7
	c-20.2,1.3-40.3,0.1-60.2-3.3c-41.8-7-79.7-23.2-111.7-51.2c-32-28-53.9-62.7-64.6-104.2c-4.7-18.3-7.2-36.8-8.4-55.7
	c-1.7-26.9,1-53.2,7.2-79.2c8.3-34.8,22.7-66.9,46.6-94c27.1-30.7,60.7-49.4,101.7-54c27.3-3.1,53.4,1.8,78.5,12.7
	c21,9.1,39.9,21.3,56.9,36.6c0.7,0.7,1.4,1.4,2.9,1.7c0.8-4.5,0.3-9,0.3-13.4c0.1-6.2,0-12.3,0-18.5c0-3.1-1.2-5.3-3.7-7.1
	c-31.4-22.5-65.9-37-104.5-40.8c-33.8-3.3-65.9,3.6-96.2,19c-43.8,22.2-73.4,57.6-93.5,101.7c-11.9,26.1-19.4,53.6-22.9,82
	c-2.9,23.7-3.2,47.4-0.8,71.2c2.9,28.6,9.8,56.1,21.3,82.4c9.6,22,22.9,41.6,38.7,59.7c19.4,22.3,42.5,39.7,68.6,53.4
	c19.4,10.2,39.8,17.9,61.3,22.5c7.3,1.6,14.6,3.4,22.1,4.4c2,0.3,5-0.1,5.1,3.4c-1.4,2.1-3.8,2.7-5.9,3.5
	c-33.1,13.2-67.3,21.9-102.4,27.8c-24.2,4.1-48.5,6-72.9,5.8C376.9,774.5,375.9,774.3,375,775z"/>
<path fill="#F2F6FB" d="M473,34c-7,3.2-14.5,4.4-21.8,6.7c-19.2,6.1-38,12.9-56.5,20.8c-17.1,7.4-33.8,15.5-49.5,25.7
	c-11.4,7.5-22,15.9-32.6,24.5c-18.1,14.8-34.1,31.7-50.3,48.5c-15.7,16.3-30.7,33.2-46.4,49.4c-15.2,15.7-29.6,32.3-42.2,50.3
	c-13,18.4-24.6,37.7-34.9,57.9c-4.3,8.4-7.1,17.5-12.8,25.1c3-12.9,6-25.8,7.5-39c0.5-4.6,1.3-9.2,1.5-13.8
	c0.7-24.8-0.2-49.5-6-73.7c-4.4-18.6-10.1-36.8-17.4-54.5c-8.5-20.7-19.7-40-29.9-59.8c-5.6-10.8-7.5-22.5-5-34.4
	c3.4-16.2,14.6-26.9,28.1-35.2c21.1-13.1,44.7-19.3,68.8-23.7c18.3-3.3,36.7-5,55.2-6.2c20.1-1.3,40.3-1.1,60.4-0.5
	c15.2,0.4,30.4,1.9,45.5,3.4c20.3,2,40.4,5,60.4,8.5c20,3.6,39.9,8.2,59.5,13.9C460.8,29.8,466.9,32,473,34z"/>
<path fill="#F2F6FB" d="M108,390c1,5.8-1.8,10.9-3.3,16.1c-6.8,22.8-11.2,46-14.4,69.4c-1.6,11.6-2.8,23.3-3.5,35.1
	c-0.8,13.1-2,26.2-1.6,39.3c0.7,21.3,1.4,42.7,4.5,63.9c2.2,14.7,3.9,29.5,7.1,44.1c4.4,20.8,9.6,41.3,16.4,61.5
	c0.5,1.5,1.7,2.9,0.8,4.7c-10.2-4.1-19.5-9.9-28.9-15.6c-20.2-12.3-39-26.5-55.2-43.9C15.4,648.8,4.7,631,2.3,609.4
	c-1.6-14.1,0.1-28.1,4.8-41.7c9.4-27.3,24.8-51.4,40.4-75.4c19.7-30.3,40.1-60.3,56.3-92.8C105.3,396.4,106.6,393.2,108,390z"/>
</svg>
