<?xml version="1.0" encoding="utf-8"?>
<!-- Generator: Adobe Illustrator 17.1.0, SVG Export Plug-In . SVG Version: 6.00 Build 0)  -->
<!DOCTYPE svg PUBLIC "-//W3C//DTD SVG 1.1//EN" "http://www.w3.org/Graphics/SVG/1.1/DTD/svg11.dtd">
<svg version="1.1" id="Layer_1" xmlns="http://www.w3.org/2000/svg" xmlns:xlink="http://www.w3.org/1999/xlink" x="0px" y="0px"
	 viewBox="0 0 625.3 652" enable-background="new 0 0 625.3 652" xml:space="preserve">
<g>
	<g>
		<path fill="#FEFEFE" d="M-23.7,376.5c0-119,0-238-0.1-357c0-3.7,0.8-4.6,4.6-4.6c218.7,0.1,437.3,0.1,656,0c3.7,0,4.6,0.8,4.6,4.6
			c-0.1,238-0.1,476,0,714c0,3.7-0.8,4.6-4.6,4.6c-218.7-0.1-437.3-0.1-656,0c-3.7,0-4.6-0.8-4.6-4.6
			C-23.6,614.5-23.7,495.5-23.7,376.5z M425.3,70.1c-0.5-3.2-1.9-6.1-3.4-9c-2.4-5.3-5.2-10.4-8.6-15.2
			c-14.8-20.4-34.3-31.7-60.1-29.8c-14.9,1.1-28.7,6.7-42.5,12.2c-21.1,8.3-40.9,19.1-60.3,30.8c-1.4-1.8-3.4-1.2-5.1-1.1
			c-12.3,0.7-24.6,2.1-36.7,4.4c-9.8,1.9-19.8,2.9-29.2,6.6c-2.9-0.1-5.7,0.1-8,2c-1.1,0.1-2.4,0-3.4,0.3c-9.2,3-18.6,5.9-27.6,9.3
			C131,84.2,122,88.2,113.3,93c-2.7,0.7-4.9,2.3-7,4c-2.8,0.1-4.8,2.2-7,3.6c-13.8,8.7-27.4,17.7-38,30.4c-2.7,2.3-5.9,4.2-7,8
			c-9.1,7.5-14.3,17.9-19.3,28c-9.7,19.6-13,40.9-13.6,62.5c-0.7,25.2-0.7,50.4,2.9,75.4c0.7,5,1.3,10,2,15c1.1,7.5,2,15.1,3.4,22.5
			c3.8,21.3,8.6,42.5,14.6,63.3c3.5,12.2,6.5,24.6,12,36.2c0.3,3.4-0.4,6.6-1.1,9.8c-2.9,12.3-2.5,24.7-0.4,37
			c4.4,25.5,16.3,47.4,32.5,67.2c10.1,12.5,21.5,23.8,34.4,33.5c4.2,3.2,7.8,7.8,13.6,8.5c1.1,1,2.2,2,3.4,2.9
			c6.3,4.7,12.7,9.3,20.6,11.2c3.2,4.4,8.1,5.7,13,7c2.9,2.7,6.7,3.7,10.2,5c32.4,12.7,65.8,19.4,100.8,18.1
			c16.4-0.6,32.3-2.6,48-7.2c21.1-6.3,40.1-16.4,56.3-31.7c9.6-9,15.8-20.4,22.7-31.3c24.4-16.7,46.4-36.3,67.9-56.6
			c11.9-11.2,23.5-22.6,34-35.1c3.7-4.4,8.7-7.8,11.1-13.3c2.5-2.3,6-3.8,6-8c2.7-0.2,4-2.3,5.4-4.1c13.4-17,26.9-34,39.3-51.8
			c17-24.5,32.5-49.7,44.2-77.1c3.4-8,7.1-16.1,8-25c1.5-2.5,1.5-5.3,2-8c1.7-12.7,1.9-25.5-0.3-38.1c-3.5-20.2-11.7-38.5-22.9-55.7
			c-10.8-16.7-24.4-31-38.8-44.4c-4.3-4-8.2-8.7-14-10.8c-2.2-2.1-4.3-4.5-6.7-6.4c-7.4-5.9-15.4-10.8-23.5-15.7
			c-15.5-9.5-31.4-18.4-48.3-25.2c-4.1-1.7-7.9-4.2-12.5-4.7c-10.5-5.1-21.4-9.2-32.7-12C427.5,76.7,426.4,73.4,425.3,70.1z"/>
		<path fill="#EEECF5" d="M410.3,572c-6.9,10.9-13.1,22.3-22.7,31.3c-16.2,15.3-35.2,25.4-56.3,31.7c-15.6,4.7-31.6,6.6-48,7.2
			c-35,1.2-68.4-5.4-100.8-18.1c-3.5-1.4-7.3-2.4-10.2-5c3.4-0.2,6.5-1.4,9.5-2.8c7.6-3.5,12.8-13.1,11.3-20.4
			c-1.9-8.8-6.2-16.4-12.4-22.9c-11.3-11.8-25.1-19.6-40.3-24.9c-12.2-4.2-24.5-8.9-37.8-4.3c-2.9,1-3.5-1.4-4.4-3.5
			c-4.7-12.4-8.3-25.1-10.2-38.3c-3-21.1,2.2-38,20.8-50.4c23.9-15.9,50.3-25.4,77.7-32.5c25.3-6.6,51-11.2,77-14.2
			c19.6-2.2,39.2-4,58.8-4.9c4.3-0.2,8.6-0.5,12.9-1.2c13.1-1.9,26.1-3.9,39.1-6.8c-0.2,1.9,0.8,3.5,1.6,5.2
			c5.4,12.1,11.3,24,16,36.4c10,26.3,19.3,52.9,24,80.8c1.8,10.5,1.8,21,0.7,31.7C415.7,555,412.2,563.3,410.3,572z"/>
		<path fill="#F3F3F4" d="M410.3,572c1.8-8.7,5.3-17,6.3-26c1.1-10.6,1.1-21.1-0.7-31.7c-4.7-27.9-14-54.5-24-80.8
			c-4.7-12.4-10.6-24.3-16-36.4c-0.7-1.7-1.8-3.2-1.6-5.2c18.8-4.2,37.4-9.2,55.5-15.5c27.2-9.4,53.6-20.8,78-36.2
			c22.5-14.2,42.6-30.5,55.1-54.7c1.1-2.1,2.6-3,4.8-2.5c15.1,3.2,30.2,5.7,44.7,11.3c4.8,1.9,8.4,6,13.7,6.6c-1,8.9-4.6,16.9-8,25
			c-11.7,27.4-27.2,52.7-44.2,77.1c-12.4,17.8-25.9,34.8-39.3,51.8c-1.4,1.8-2.7,3.9-5.4,4.1c-5.9,0.7-11.8,1.4-17.7,2
			c-16.1,1.5-32.2,3.6-48,6.8c-10.9,2.2-21.6,2.6-32.1-1.9c-2.7-1.1-5.7-1.8-8.6-2.6c-2.7-0.8-3,1.4-3.6,3c-0.5,1.5-1.6,3.4,1,4
			c9,2.1,17.4,6.4,26.9,6.6c7.6,0.2,14.7-1.9,22.1-2.9c18-2.6,36-4.8,54-7.1c-2.4,5.5-7.4,8.9-11.1,13.3
			c-10.5,12.5-22.1,23.9-34,35.1C456.8,535.7,434.7,555.3,410.3,572z"/>
		<path fill="#515EFB" d="M250.4,59.1c19.4-11.7,39.2-22.5,60.3-30.8c13.8-5.4,27.6-11.1,42.5-12.2c25.7-1.9,45.3,9.4,60.1,29.8
			c3.4,4.7,6.2,9.8,8.6,15.2c-13-0.3-22.1,6.1-28.4,16.9c-1.6,2.7-2.9,5.6-4.1,8.5c-6.3,15.4-10.2,31.6-14,47.7
			c-5.6,23.9-17.4,43.6-37.3,58.3c-15.6,11.5-32.6,20.6-50.3,28.3c-7.7,3.4-15.2,7.5-23.6,9.2c-5-4.1-10.2-8-15.1-12.3
			c-16.9-15-32.2-31.4-43-51.5c-7.8-14.6-12.4-29.8-8.9-46.6c2.8-13.2,10.6-23.5,19.6-33.1C226.9,76,238.8,67.7,250.4,59.1z"/>
		<path fill="#EEECF5" d="M87.3,556c-16.2-19.8-28.1-41.7-32.5-67.2c-2.1-12.3-2.5-24.7,0.4-37c0.8-3.2,1.4-6.5,1.1-9.8
			c1.7-0.6,1.8-2.2,2.3-3.6c2.6-7.4,6.2-14.4,10.2-21.1c13.7-23.5,31.4-44,50.3-63.4c13-13.3,26.9-25.6,42.1-36.4
			c13.7-9.8,27.8-18.7,43.1-25.7c9.1-4.2,18.7-6.5,28-9.8c0.9,0.3,2,0.5,2.8,0.9c8.7,5,17.9,7.1,27.9,7.2c9.5,0.1,18.8-1.1,28.3-1.1
			c0.5,1.4,1.8,1.8,3,2.5c12.6,7.1,23,17,32.4,27.7c11.8,13.3,21.8,28,30.7,43.4c4.2,7.3,9.1,14.3,11.9,22.4
			c-0.6,0.3-1.2,0.6-1.8,0.8c-27.6,6-55.7,6.9-83.7,9.1c-15,1.2-29.9,3.2-44.8,5.4c-22.6,3.4-44.9,8.1-66.8,14.7
			c-24.7,7.4-48.6,16.6-69.9,31.8c-15.6,11.1-23.5,25.9-22.9,44.8c0.5,18.6,5.6,36.3,12.5,53.4C94,550.3,92.7,553.5,87.3,556z"/>
		<path fill="#F3F3F4" d="M428.6,80c11.3,2.9,22.2,6.9,32.7,12c7.4,6.9,15.4,13,23.5,19c10.5,7.6,21.3,14.7,33.3,19.7
			c14.1,6,26.6,13.9,35.4,26.8c8.4,12.3,10.5,26.3,10.7,40.8c0.2,9.3-0.3,18.6-0.8,27.9c-0.4,8.8-1,17.6-1.5,26.3
			c-0.4,5.9,0.2,11.9-1.6,17.8c-1,3.3-2.4,4.1-5.8,3.5c-10.8-1.8-21.6-3.2-32.4-4.7c-12.8-1.8-25.6-3.2-38.3-5.3
			c-14.7-2.5-29.5-3.8-44.4-4.5c-15.6-0.7-31.1,0-46.7,1.6c-21,2.1-41.6,5.9-62,10.9c-19,4.6-38,9-57.4,11.2
			c-22.3,2.6-39.8-7.3-55.5-21.7c-2.5-2.3-0.8-3.2,1.3-4.1c15.2-6.6,30.6-12.8,46.3-18.4c1.9-0.7,4.4-1,4.8-3.8
			c0.9,0.4,1.7,0.8,2.6,1.2c9.6,7.2,19.9,13.3,31.2,17.5c10.3,3.9,21.1,4.6,32,2.7c19.6-3.3,36-12.9,49.5-27
			C426,187.2,439.5,137,428.6,80z"/>
		<path fill="#F3F3F4" d="M24.3,305c-3.5-25-3.5-50.3-2.9-75.4C22,208,25.4,186.6,35,167c5-10.1,10.2-20.5,19.3-28
			c15.6-0.5,31.2,1.7,46.8,1c6-0.2,12,0.1,18-0.1c3.1-0.1,4.8,1.1,6.2,3.8c3.7,7.2,7.6,14.4,11.7,21.4c9.8,17.2,20.3,33.9,31.8,49.9
			c9.4,13.1,19.4,25.7,30.1,37.6c3.6,4,1.8,5.2-1.9,7c-25.2,12.1-49,26.7-73,40.8c-15.6,9.2-31.2,18.5-48.5,24.2
			c-5.9,2-12.2,3.6-18.5,2.9c-12.7-1.5-21.8-8.8-28.9-19C27.1,307.2,26.6,305.2,24.3,305z"/>
		<path fill="#FAFAFA" d="M24.3,305c2.2,0.2,2.8,2.2,3.8,3.7c7.1,10.2,16.2,17.5,28.9,19c6.3,0.7,12.5-0.9,18.5-2.9
			c17.3-5.7,32.9-15,48.5-24.2c24-14.2,47.8-28.7,73-40.8c3.7-1.8,5.5-3,1.9-7c-10.8-11.9-20.8-24.5-30.1-37.6
			c-11.5-16.1-22-32.8-31.8-49.9c-4-7.1-8-14.2-11.7-21.4c-1.4-2.7-3-4-6.2-3.8c-6,0.2-12-0.1-18,0.1c-15.6,0.6-31.2-1.5-46.8-1
			c1.1-3.8,4.3-5.7,7-8c2.1,0.4,4.1,1.1,6.3,1c15.7-0.7,31.4,1.2,47.2,0.1c3.7-0.3,5-1.1,3.2-4.5c-5.2-9.7-7.8-20.4-11.7-30.6
			c2.1-1.7,4.3-3.3,7-4c2.9,12.3,7.9,23.9,13.2,35.4c1.1,2.3,2.1,3.4,5.2,2.9c3.9-0.7,7.9-0.6,11.8-1.3c10.8-1.9,21.6-3.6,30.9-10.1
			c8.4-5.9,11.2-13.3,8.9-23.3c-2.1-9.5-8.2-17-12.1-25.6c2.3-1.9,5.1-2.1,8-2c2.6,5.2,5.4,10.3,7.8,15.5
			c9.7,21.3,4.1,38.1-17.8,46.8c-9.7,3.9-19.9,6.1-30.4,6.6c-6.9,0.3-7.6,1.3-4.4,7.2c11,20.7,22.9,40.8,36.4,60
			c11,15.6,22.6,30.7,35.7,44.6c2.3,2.5,4.1,3.1,7.6,1.5c16.4-7.5,33.3-14,50.3-20.3c2.3,0.9,4.2,2.3,6,4c-0.4,2.8-2.9,3.1-4.8,3.8
			c-15.7,5.5-31,11.7-46.3,18.4c-2.1,0.9-3.8,1.8-1.3,4.1c15.7,14.4,33.2,24.3,55.5,21.7c19.4-2.3,38.4-6.6,57.4-11.2
			c20.4-5,41-8.7,62-10.9c15.6-1.6,31.2-2.4,46.7-1.6c14.8,0.7,29.7,2,44.4,4.5c12.7,2.1,25.5,3.6,38.3,5.3
			c10.8,1.5,21.6,3,32.4,4.7c3.3,0.5,4.8-0.3,5.8-3.5c1.8-5.8,1.2-11.9,1.6-17.8c0.5-8.7,1.1-17.6,1.5-26.3
			c0.5-9.3,0.9-18.6,0.8-27.9c-0.3-14.4-2.3-28.5-10.7-40.8c-8.8-12.9-21.3-20.8-35.4-26.8c-11.9-5.1-22.8-12.2-33.3-19.7
			c-8.2-5.9-16.2-12.1-23.5-19c4.6,0.5,8.4,3,12.5,4.7c16.9,6.8,32.8,15.7,48.3,25.2c8,4.9,16.1,9.8,23.5,15.7
			c2.4,1.9,4.5,4.2,6.7,6.4c0,1.9,1.5,2.9,2.6,4.1c2.6,3,5.5,5.6,7.6,9.2c7.4,13,9.2,27.3,9.5,41.7c0.3,14.4-0.5,28.9-1.8,43.2
			c-0.9,9.9,0.1,19.9-2.6,29.6c-0.8,2.9,0.4,3.8,3.4,4.4c14.3,2.8,28.6,5.3,42.4,10.5c5.1,1.9,9.4,5.8,15,6.4c-0.5,2.7-0.5,5.5-2,8
			c-5.3-0.6-8.9-4.8-13.7-6.6c-14.5-5.6-29.7-8.1-44.7-11.3c-2.2-0.5-3.7,0.4-4.8,2.5c-12.5,24.2-32.6,40.5-55.1,54.7
			c-24.5,15.4-50.8,26.8-78,36.2c-18.1,6.3-36.8,11.2-55.5,15.5c-12.9,2.9-26,4.9-39.1,6.8c-4.3,0.6-8.6,1-12.9,1.2
			c-19.7,0.9-39.3,2.6-58.8,4.9c-26,3-51.7,7.6-77,14.2c-27.4,7.2-53.8,16.6-77.7,32.5C90.3,463.9,85,480.8,88,501.9
			c1.9,13.2,5.5,25.9,10.2,38.3c0.8,2.1,1.4,4.5,4.4,3.5c13.3-4.7,25.6,0.1,37.8,4.3c15.2,5.3,29.1,13,40.3,24.9
			c6.2,6.5,10.5,14.1,12.4,22.9c1.5,7.3-3.7,16.8-11.3,20.4c-3,1.4-6.1,2.7-9.5,2.8c-4.9-1.3-9.8-2.6-13-7c3.3,0,6.7,0.4,10-0.1
			c13.2-1.9,20.2-9.6,13.6-22.8c-1.8-3.6-4-6.8-6.7-9.8C163,564.8,146,557,127.5,552.1c-6.4-1.7-12.8-4.4-19.8-1.8
			c-3.6,1.3-3.9,3-2.2,5.9c2.4,4.2,4.7,8.4,7.1,12.5c6.2,10.8,14.3,20.2,22.8,29.3c-5.8-0.8-9.4-5.3-13.6-8.5
			c-12.9-9.6-24.3-20.9-34.4-33.5c5.4-2.5,6.7-5.7,4.6-10.9c-6.9-17.2-12-34.8-12.5-53.4c-0.5-19,7.3-33.7,22.9-44.8
			c21.3-15.2,45.2-24.4,69.9-31.8c21.9-6.6,44.2-11.4,66.8-14.7c14.9-2.2,29.8-4.2,44.8-5.4c28-2.3,56.1-3.1,83.7-9.1
			c0.6-0.1,1.2-0.5,1.8-0.8c1-0.1,2,0,3-0.2c16-3.6,31.9-7.8,47.5-12.9c30.8-10.1,60.6-22.7,88-40.3c14.4-9.3,27.7-19.9,38.6-33.3
			c3.6-4.4,6.5-9.2,8.9-14.3c0.7-1.5,1.2-2.7-1.3-3.1c-9.3-1.2-18.6-2.7-28-4c-13.1-1.8-26.2-3.4-39.3-5.4
			c-14.6-2.2-29.2-4.4-43.9-4.5c-14.9-0.1-29.9-0.7-44.8,0.7c-14.3,1.4-28.6,3.3-42.6,6.2c-13.8,2.9-27.5,5.8-41.2,9.3
			c-7.6,2-15.7,2.4-23,5.7c-9.4,0.1-18.8,1.2-28.3,1.1c-10-0.1-19.3-2.2-27.9-7.2c-0.8-0.5-1.9-0.6-2.8-0.9
			c-7.2-5.8-14.4-11.5-21.6-17.4c-2-1.6-3.6-1.5-5.9-0.5c-23.1,11.1-45.1,24.1-67.2,36.9c-19.6,11.4-38.6,24.1-60.5,31
			c-14.4,4.5-28.2,4.7-41.3-4.5c-3.4-2.4-5.3-6.5-9.7-7.5C25.7,315,25,310,24.3,305z"/>
		<path fill="#515EFB" d="M428.6,80c10.9,57-2.6,107.2-43,149.4c-13.5,14.1-30,23.7-49.5,27c-10.8,1.8-21.6,1.1-32-2.7
			c-11.3-4.2-21.6-10.2-31.2-17.5c0.9-0.5,1.7-1,2.6-1.4c17-7.2,33.7-14.9,49.7-24.2c30.5-17.6,51.1-42.2,58.4-77.4
			c3.4-16.2,7.6-32.4,14.6-47.6c6.1-13.1,13.3-17.3,27-15.5C426.4,73.4,427.5,76.7,428.6,80z"/>
		<path fill="#F3F3F4" d="M26.3,320c4.4,1,6.3,5.2,9.7,7.5c13,9.2,26.9,9,41.3,4.5c21.9-6.9,40.9-19.6,60.5-31
			c22.1-12.8,44.1-25.8,67.2-36.9c2.2-1.1,3.9-1.2,5.9,0.5c7.1,5.9,14.4,11.6,21.6,17.4c-9.4,3.2-19,5.6-28,9.8
			c-15.3,7.1-29.4,15.9-43.1,25.7c-15.1,10.9-29.1,23.2-42.1,36.4c-18.9,19.4-36.6,39.9-50.3,63.4c-3.9,6.7-7.6,13.7-10.2,21.1
			c-0.5,1.4-0.7,3-2.3,3.6c-5.5-11.6-8.5-24-12-36.2c-6-20.8-10.8-42-14.6-63.3C28.4,335.1,27.4,327.5,26.3,320z"/>
		<path fill="#F3F3F4" d="M264.3,231c-17,6.3-33.8,12.8-50.3,20.3c-3.5,1.6-5.3,0.9-7.6-1.5c-13.1-13.9-24.7-29-35.7-44.6
			c-13.5-19.2-25.4-39.3-36.4-60c-3.2-6-2.5-6.9,4.4-7.2c10.5-0.5,20.8-2.8,30.4-6.6c21.8-8.7,27.5-25.5,17.8-46.8
			c-2.4-5.3-5.2-10.4-7.8-15.5c9.4-3.6,19.4-4.7,29.2-6.6c12.1-2.3,24.4-3.7,36.7-4.4c1.7-0.1,3.7-0.7,5.1,1.1
			c-11.6,8.6-23.5,16.9-33.5,27.5c-9,9.6-16.8,19.9-19.6,33.1c-3.5,16.7,1.1,32,8.9,46.6c10.7,20.1,26,36.6,43,51.5
			c4.9,4.3,10.1,8.2,15.1,12.3C264.3,230.4,264.3,230.7,264.3,231z"/>
		<path fill="#F3F3F4" d="M628.3,293c-5.6-0.6-9.9-4.4-15-6.4c-13.8-5.2-28.1-7.7-42.4-10.5c-3.1-0.6-4.3-1.5-3.4-4.4
			c2.7-9.7,1.7-19.8,2.6-29.6c1.3-14.3,2-28.8,1.8-43.2c-0.3-14.4-2.1-28.8-9.5-41.7c-2-3.5-5-6.2-7.6-9.2c-1.1-1.2-2.6-2.2-2.6-4.1
			c5.8,2.1,9.8,6.8,14,10.8c14.5,13.4,28,27.7,38.8,44.4c11.1,17.2,19.3,35.5,22.9,55.7C630.2,267.5,630,280.3,628.3,293z"/>
		<path fill="#F3F3F4" d="M171.3,71c4,8.6,10,16.2,12.1,25.6c2.3,10-0.5,17.4-8.9,23.3c-9.3,6.5-20.1,8.2-30.9,10.1
			c-3.9,0.7-8,0.6-11.8,1.3c-3.1,0.5-4.2-0.5-5.2-2.9c-5.2-11.5-10.2-23.1-13.2-35.4c8.7-4.8,17.7-8.8,26.9-12.3
			c9.1-3.4,18.4-6.3,27.6-9.3C169,71,170.2,71.1,171.3,71z"/>
		<path fill="#EEECF5" d="M135.3,598c-8.5-9.1-16.6-18.5-22.8-29.3c-2.4-4.2-4.7-8.4-7.1-12.5c-1.7-2.9-1.3-4.6,2.2-5.9
			c7-2.6,13.4,0.1,19.8,1.8c18.5,5,35.5,12.7,48.8,27.3c2.7,3,4.9,6.2,6.7,9.8c6.6,13.2-0.4,20.9-13.6,22.8c-3.3,0.5-6.6,0.1-10,0.1
			c-7.9-1.9-14.3-6.4-20.6-11.2C137.5,600,136.5,599,135.3,598z"/>
		<path fill="#B3BAFD" d="M264.3,231c0-0.3-0.1-0.6-0.1-0.9c8.4-1.7,15.9-5.8,23.6-9.2c17.7-7.8,34.7-16.8,50.3-28.3
			c19.9-14.7,31.7-34.5,37.3-58.3c3.8-16.1,7.6-32.3,14-47.7c1.2-2.9,2.5-5.8,4.1-8.5c6.3-10.8,15.4-17.2,28.4-16.9
			c1.5,2.9,2.8,5.7,3.4,9c-13.7-1.8-21,2.4-27,15.5c-7,15.2-11.2,31.3-14.6,47.6c-7.3,35.2-28,59.8-58.4,77.4
			c-16,9.3-32.7,17-49.7,24.2c-0.9,0.4-1.7,0.9-2.6,1.4c-0.9-0.4-1.7-0.8-2.6-1.2C268.6,233.3,266.6,231.9,264.3,231z"/>
		<path fill="#F3F3F4" d="M106.3,97c3.9,10.2,6.6,20.9,11.7,30.6c1.8,3.4,0.5,4.2-3.2,4.5c-15.7,1.1-31.4-0.8-47.2-0.1
			c-2.2,0.1-4.2-0.6-6.3-1c10.6-12.7,24.2-21.7,38-30.4C101.5,99.2,103.5,97.2,106.3,97z"/>
		<path fill="#FAFAFA" d="M523.3,467c-18,2.3-36,4.5-54,7.1c-7.4,1-14.5,3.1-22.1,2.9c-9.5-0.2-17.9-4.5-26.9-6.6
			c-2.5-0.6-1.5-2.5-1-4c0.6-1.7,0.9-3.8,3.6-3c2.9,0.8,5.8,1.5,8.6,2.6c10.5,4.4,21.2,4.1,32.1,1.9c15.9-3.2,31.9-5.4,48-6.8
			c5.9-0.5,11.8-1.3,17.7-2C529.4,463.2,525.9,464.7,523.3,467z"/>
		<path fill="#F3F3F4" d="M291.3,289c7.3-3.3,15.3-3.7,23-5.7c13.6-3.5,27.4-6.4,41.2-9.3c14.1-2.9,28.3-4.8,42.6-6.2
			c15-1.4,29.9-0.8,44.8-0.7c14.7,0.1,29.3,2.3,43.9,4.5c13.1,2,26.2,3.6,39.3,5.4c9.3,1.3,18.6,2.7,28,4c2.5,0.3,2,1.5,1.3,3.1
			c-2.4,5.1-5.4,9.9-8.9,14.3c-10.9,13.4-24.2,24.1-38.6,33.3c-27.4,17.6-57.1,30.2-88,40.3c-15.6,5.1-31.5,9.2-47.5,12.9
			c-1,0.2-2,0.1-3,0.2c-2.9-8-7.7-15-11.9-22.4c-8.9-15.4-18.9-30.1-30.7-43.4c-9.5-10.7-19.8-20.6-32.4-27.7
			C293.1,290.8,291.9,290.4,291.3,289z"/>
	</g>
</g>
</svg>
