<?xml version="1.0" encoding="utf-8"?>
<!-- Generator: Adobe Illustrator 17.1.0, SVG Export Plug-In . SVG Version: 6.00 Build 0)  -->
<!DOCTYPE svg PUBLIC "-//W3C//DTD SVG 1.1//EN" "http://www.w3.org/Graphics/SVG/1.1/DTD/svg11.dtd">
<svg version="1.1" id="Layer_1" xmlns="http://www.w3.org/2000/svg" xmlns:xlink="http://www.w3.org/1999/xlink" x="0px" y="0px"
	 viewBox="0 0 384.4 383.9" enable-background="new 0 0 384.4 383.9" xml:space="preserve">
<g id="prototyping" transform="translate(-5.2 -0.8)">
	<g id="Group_1">
		<path id="Path_1" d="M5.4,345.7V53.2c0.3-0.8,0.6-1.6,0.8-2.4c3.8-17.5,19-30.1,36.9-30.5C63.9,19.9,81.2,36.1,82,56.9
			c0.2,4.7,0,9.4,0,14.2h153.7c0-10.7-0.1-21.1,0-31.4c0.3-17.9,14-31.9,31.4-32.2c18.3-0.3,32.2,13.7,32.6,32.8c0.2,9,0,18,0,27
			c0,1.3,0.1,2.6,0.2,4.1h4.5c15.2,0,30.5-0.2,45.7,0.1c16.8,0.3,29,8.2,36,23.6c1.4,3.1,2.1,6.6,3.1,9.9v240
			c-0.2,0.3-0.4,0.6-0.4,1c-6,22.9-18.8,32.7-42.6,32.7H47.5c-1.7,0-3.5,0-5.2-0.1c-16.2-0.7-30.2-11.4-35.1-26.9
			C6.5,349.7,6,347.7,5.4,345.7z M235.7,84.2H86.9c-4.8,0-4.8,0-4.8,4.9v221.6c0.1,1.7,0,3.5-0.2,5.2c-0.4,2.7-2.6,4.8-5.3,5
			c-2.8,0.5-5.6-1.1-6.6-3.8c-0.4-1.2-0.7-2.4-0.7-3.7C68.1,299,56.9,288.5,43.1,289c-14.2,0.5-24.8,11.6-24.9,26.2
			c-0.1,7.7,0,15.5,0,23.2c0,16.6,10.8,27.4,27.5,27.4H349c16.9,0,27.6-10.8,27.6-27.7V112c0-17.2-10.6-27.8-27.8-27.9h-49v4.2
			c0,10.9,0.1,21.7-0.1,32.6c-0.2,2.5,1,4.8,3.1,6.1c18.9,13.3,37.6,26.8,56.5,40.2c2.9,1.8,4.6,5,4.5,8.4
			c-0.1,32.9-0.1,65.7,0,98.6c0.2,3.3-1.4,6.4-4.2,8.2c-28.9,20.6-57.8,41.2-86.6,61.8c-4.2,3-6.2,3-10.5-0.1
			c-28.9-20.6-57.7-41.3-86.6-61.8c-3-2.1-4.1-4.6-4.1-8.2c0.2-10.6-0.1-21.2,0.1-31.9c0.2-2.6-1.1-5.1-3.2-6.6
			c-23.1-18.3-46.1-36.8-69.2-55.1c-3.2-2.6-4.7-5.4-4.7-9.5c0.2-17.4,0.1-34.7,0.1-52.1c-0.1-1.5,0.1-3,0.4-4.5
			c0.9-3.3,4.4-5.3,7.7-4.4c2.1,0.6,3.8,2.2,4.4,4.4c0.3,1.5,0.5,3,0.4,4.5c0,16.1,0.1,32.2,0,48.4c-0.2,2.1,0.8,4.2,2.5,5.4
			c19.7,15.6,39.3,31.3,58.9,47c0.8,0.6,1.8,1.2,2.7,1.7c0-15.4,0.1-30.3-0.1-45.1c-0.1-4.2,1.4-6.9,4.8-9.4
			c18.9-13.3,37.6-26.8,56.5-40.2c1.9-1.4,2.8-2.8,2.7-5.2c-0.2-5.5-0.1-11-0.1-16.5V84.2z M69.1,285.5c0.1-1.4,0.2-2.5,0.2-3.5
			V60.1c0.1-2.4-0.1-4.8-0.6-7.1C65.8,40.4,54,31.8,41.6,33.2C28,34.6,18.2,45.4,18.2,59.3v223.4c0,0.9,0.2,1.8,0.3,2.9
			C35.5,273.1,52.1,273.2,69.1,285.5z M184.6,248.7c0,7.6,0.1,14.4-0.1,21.1c-0.1,2.4,0.8,3.8,2.8,5.2c22,15.6,43.9,31.3,65.9,47
			c4.9,3.5,9.7,6.9,14.5,10.4c0.7-0.4,1.1-0.7,1.5-0.9c26.5-18.9,53.1-37.9,79.5-56.9c1.3-1.2,2.1-2.8,2.2-4.6
			c0.1-26.6,0.1-53.2,0.1-79.8v-3.3c-0.7,0.3-1.4,0.6-2,1.1c-15.8,11.2-31.5,22.4-47.2,33.8c-1.1,0.8-1.8,2.8-1.9,4.4
			c-0.6,5.7,0,11.7-1.6,17c-5.5,18.4-11.8,36.6-17.8,54.8c-2.3,7-6.7,10.6-12.9,10.5c-6-0.1-10.2-3.6-12.5-10.5
			c-5.1-15.6-10.1-31.3-15.5-46.9c-2.8-8-4.7-16-3.9-24.5c0.3-2.7-0.9-4.3-3-5.8c-10.7-7.5-21.4-15.2-32.1-22.8
			c-5.1-3.7-10.3-7.3-15.9-11.3c-0.1,1.1-0.2,1.5-0.2,1.9c0,13.9-0.1,27.7,0.1,41.6c0.2,1.5,0.9,2.9,2.1,3.9
			c4.6,3.9,9.4,7.5,14,11.3c3.3,2.8,3.9,6.7,1.5,9.6c-2.4,2.8-6,3-9.4,0.4C190.3,253.3,187.8,251.3,184.6,248.7z M248.8,231.1h12.6
			v-79.8c0-1.5,0.1-3,0.3-4.5c0.6-3.4,3.9-5.6,7.3-5c2.8,0.5,4.8,2.8,5.1,5.6c0.1,1.4,0.2,2.7,0.1,4.1V231h12.6V97.1
			c-4.2,0.2-8.1,0.2-12.7,0.2v4.4c0,6.7,0.1,13.5,0,20.2c-0.1,4.3-2.4,6.9-6.1,7c-3.8,0.1-6.5-2.6-6.6-7c-0.1-4.5,0-9,0-13.5V97.3
			h-12.6 M189.2,173.9c15.7,11.2,30.8,22,46.2,33v-66C219.9,152,204.8,162.7,189.2,173.9L189.2,173.9z M346.4,173.9
			c-15.6-11.2-30.7-21.9-46.3-33V207C315.7,195.8,330.8,185,346.4,173.9L346.4,173.9z M286.8,58.5c0-7.1,0.3-13.9-0.1-20.6
			c-0.5-9.2-7.8-16.7-17-17.5c-8.7-1-18,4.2-19.9,13c-1.7,8.1-1.3,16.7-1.9,25.1H286.8z M267.4,294c0.3,0,0.5,0,0.8,0.1
			c5.4-16.5,10.8-32.9,16.3-49.5h-33.3C256.6,261.3,262,277.7,267.4,294z M286.7,84V71.7h-37.9V84"/>
		<path id="Path_13" d="M146.4,135.6c6.1,0,12.2-0.1,18.3,0c4.2,0.1,7,2.5,7.1,6.1c0.1,3.7-2.7,6.6-7,6.6c-12.3,0.1-24.7,0.1-37,0
			c-4.4,0-7.1-2.7-7-6.6c0.1-3.7,2.6-6.1,6.9-6.1C133.9,135.5,140.1,135.6,146.4,135.6z"/>
		<path id="Path_14" d="M184.8,109.9c6,0,12-0.1,17.9,0c4.8,0.1,7.5,2.6,7.4,6.5c-0.1,3.8-2.8,6.2-7.4,6.3
			c-12.1,0.1-24.2,0.1-36.3,0c-4.8,0-7.5-2.6-7.4-6.6c0.1-3.8,2.7-6.1,7.3-6.2L184.8,109.9z"/>
		<path id="Path_15" d="M133.4,110c2.4,0,4.8-0.2,7.1,0c3.1,0.2,5.6,2.8,5.7,5.9c0.1,3-2,6.1-5.2,6.3c-5.1,0.4-10.2,0.4-15.3,0
			c-3.3-0.2-5.2-3.2-5-6.4c0-3.1,2.5-5.7,5.6-5.9C128.7,109.9,131.1,110,133.4,110z"/>
	</g>
</g>
</svg>
