<?xml version="1.0" encoding="utf-8"?>
<!-- Generator: Adobe Illustrator 17.1.0, SVG Export Plug-In . SVG Version: 6.00 Build 0)  -->
<!DOCTYPE svg PUBLIC "-//W3C//DTD SVG 1.1//EN" "http://www.w3.org/Graphics/SVG/1.1/DTD/svg11.dtd">
<svg version="1.1" id="Layer_1" xmlns="http://www.w3.org/2000/svg" xmlns:xlink="http://www.w3.org/1999/xlink" x="0px" y="0px"
	 viewBox="0 0 384 383.8" enable-background="new 0 0 384 383.8" xml:space="preserve">
<g id="speed" transform="translate(-8.7 -0.8)">
	<g id="Group_2">
		<path id="Path_18" d="M8.7,196.5c1-7.1,1.7-14.3,3-21.4c9.2-50.3,34.5-90.9,75.4-121.3c37.1-27.6,79.2-40,125.2-37
			c59.5,3.9,107.3,30.5,143.1,78.2c21.9,29.2,33.9,62.3,36.7,98.7c0.1,1,0.4,1.9,0.6,2.9v23.2c-1,7.4-1.8,14.8-3,22.2
			c-4.3,25-13.8,48.9-27.7,70.2c-0.9,1.2-2.3,1.9-3.8,2c-6.2,0.2-12.5,0.2-18.7,0c-1.3,0-2.6-0.5-3.6-1.3
			c-10.1-9.9-20-19.9-29.8-29.6c5.1-5,10-9.9,15.2-15c9.1,9.2,18.9,19,28.9,29.1c17.3-29.6,25.6-60.9,24.5-95.1h-39.6v-21.4h37
			c-0.8-21.5-20.1-65-35.7-81.1c-9,9-17.9,18-26.7,26.8c-5.3-5.3-10.1-10.2-15-15.2c9-8.9,18.2-18,27.4-27.1
			c-19.2-25.4-85.3-53.6-115-49.4v43.9h-21.4V34.7C145.6,38.4,111.2,54,81.6,81.3c9.2,9.2,18.2,18.1,27,26.9
			c-5,5.1-9.8,9.9-14.7,14.8c-8.6-8.7-17.4-17.6-26.6-26.8c-20.2,24.2-33.5,53.4-38.5,84.5h36.1v21.4H26.7
			c-1.2,34.3,7.2,65.6,24.5,95.3c10.6-9.2,20.9-18.2,31.6-27.5c4.6,5.2,9.1,10.5,14.2,16.3c-1,0.6-2,1.2-2.9,2
			c-9.2,8-18.4,16.1-27.7,24.1c-1.4,1.1-3.1,1.7-4.9,1.8c-6,0.2-12,0-18,0.1c-1.8,0.2-3.6-0.8-4.5-2.4
			C22.1,285.3,11.9,255,9.4,223.7c-0.1-1.3-0.4-2.7-0.7-4V196.5z"/>
		<path id="Path_19" d="M115.3,368.8v-21.4H286v21.4H115.3z"/>
		<path id="Path_20" d="M161,184.9c2.4-2.4,4.6-4.4,6.9-6.7c5.1,3.7,10.3,7.4,15.4,11.1c7.4,5.3,14.7,10.7,22.2,16
			c1.2,0.8,2.6,1.4,4,1.6c8.7,1.2,14.8,9.1,13.6,17.8c-1.2,8.7-9.1,14.8-17.8,13.6c-6.8-0.9-12.3-6.1-13.5-12.9
			c-0.3-1.7-1.1-3.2-2.1-4.6c-8.6-10.9-17.3-21.7-26-32.5C162.8,187.3,162,186.2,161,184.9z"/>
	</g>
</g>
</svg>
