<?xml version="1.0" encoding="utf-8"?>
<!-- Generator: Adobe Illustrator 17.1.0, SVG Export Plug-In . SVG Version: 6.00 Build 0)  -->
<!DOCTYPE svg PUBLIC "-//W3C//DTD SVG 1.1//EN" "http://www.w3.org/Graphics/SVG/1.1/DTD/svg11.dtd">
<svg version="1.1" id="Layer_1" xmlns="http://www.w3.org/2000/svg" xmlns:xlink="http://www.w3.org/1999/xlink" x="0px" y="0px"
	 viewBox="0 0 384.2 384" enable-background="new 0 0 384.2 384" xml:space="preserve">
<g id="vector" transform="translate(-8.6 -0.7)">
	<g id="Group_3">
		<path id="Path_22" d="M153.5,384.7c-4.1-2.2-5.4-5.6-5.3-10.2c0.2-12.7,0.1-25.5,0.1-38.2c-8.8-3.8-14.1-10.2-14.9-19.6
			c-0.7-8.5,2.7-15.4,9.8-20.2c2.1-1.4,2.4-2.5,1.5-4.8c-8.4-22.1-16.7-44.4-25.2-66.5c-1.4-3.4-1.1-7.2,0.8-10.3
			c24.4-44.4,48.7-88.9,72.9-133.4c1.7-3.1,3.7-5.7,7.6-5.7s5.9,2.6,7.6,5.7c24.3,44.5,48.6,89,72.9,133.4c1.9,3.1,2.2,6.9,0.8,10.3
			c-8.4,22-16.7,44.1-25.1,66.1c-0.9,2.5-0.8,3.7,1.6,5.4c10.1,7,12.7,20.9,5.7,31c-2.1,3-4.9,5.5-8.2,7.2c-0.9,0.5-1.8,0.9-2.9,1.4
			c0,12.7-0.2,25.4,0.1,38.2c0.1,4.6-1.3,8-5.3,10.2H153.5z M208.4,199.2l2.4,1.2c11.1,5.5,15.7,19,10.2,30.1
			c-5.5,11.1-19,15.7-30.1,10.2c-5.9-2.9-10.2-8.2-11.8-14.6c-2.7-10.2,2.2-20.8,11.6-25.5c2.2-1.1,2.7-2.3,2.7-4.5
			c-0.1-26.5,0-53,0-79.5v-2.4c-0.2-0.1-0.5-0.1-0.7-0.2c-18,32.9-35.9,65.7-54.1,99c6.2,0,11.7-0.1,17.2,0c4.1-0.1,7.5,3.2,7.6,7.3
			c0,0.5,0,0.9-0.1,1.4c-0.7,3.7-3.6,6.1-7.8,6.2c-6.1,0.1-12.1,0-18.4,0c0.2,1,0.3,1.5,0.4,1.9c7.6,20.1,15.2,40.1,22.7,60.2
			c0.9,2.5,2.4,2.4,4.3,2.4c24.2,0,48.5-0.1,72.7,0.1c2.7,0,3.9-0.7,4.8-3.3c7.1-19.2,14.4-38.3,21.6-57.4c0.4-1.1,0.8-2.3,1.3-3.8
			h-17.7c-5.4,0-8.8-3-8.8-7.6c0-4.5,3.4-7.4,8.9-7.4h15.9c-18.2-33.4-36.2-66.2-54.1-99.1l-0.6,0.3
			C208.4,142.5,208.4,170.8,208.4,199.2L208.4,199.2z M237.9,369.6v-31.9h-74.4v31.9H237.9z M239.6,322.5c2.2,0,4.5,0.1,6.7-0.1
			c3.3-0.3,6-2.2,6.3-5.4c0.2-2.6-0.6-5.2-2.2-7.3c-1.2-1.5-4.2-2.1-6.4-2.1c-14.3-0.2-28.8-0.1-43.3-0.1h-20.6c-8,0-16-0.1-24,0
			c-4.6,0.1-7.8,3.2-7.9,7.3c-0.1,4.3,3.2,7.5,7.9,7.7 M208.2,220.5c0-4.1-3.3-7.5-7.4-7.5s-7.5,3.3-7.5,7.4c0,4,3.2,7.4,7.2,7.5
			c4.1,0.1,7.6-3.1,7.7-7.2C208.2,220.6,208.2,220.6,208.2,220.5z"/>
		<path id="Path_23" d="M392.7,27l-0.9,2.4c-3.4,12-15.9,18.9-27.9,15.4c-6.1-1.7-11.1-6-13.9-11.6l-1.2-2.4h-74.6
			c2.1,1,3.2,1.6,4.3,2.1c13.1,5.8,25.4,13.4,36.6,22.4c4.3,3.5,5.1,7.8,2.1,11.4c-2.9,3.6-7.3,3.7-11.6,0.2
			c-23.9-19.2-51.4-29.8-81.4-34.5c-0.3,0-0.7,0.1-1,0.2c0,1.8,0.1,3.7,0,5.5c-0.2,4.3-3,7.4-7.3,7.5c-10.1,0.1-20.2,0.1-30.4,0
			c-4.3-0.1-7-3.2-7.2-7.5c-0.1-1.8,0-3.7,0-5.8c-30.3,4.7-57.7,15.1-81.7,34c-2,1.6-4.4,2.7-6.9,3.1c-3.2,0.3-5.6-1.8-6.7-5
			c-1.1-3.4,0-6.1,2.6-8.3c9.9-8.2,20.8-15.2,32.4-20.8c2.8-1.3,5.6-2.6,9.2-4.3H52.6c-3.2,7.3-8.3,12.3-16.2,14.2
			c-11.1,2.6-22.3-3.6-26.1-14.3c-0.5-1.3-0.9-2.6-1.4-3.9v-7.5c2.6-9.9,8.8-16.2,18.7-18.7h7.5c8,2.2,14.3,6.7,17.3,14.7h125.7
			c0.2-5.6-1.2-11.7,5.3-14.8h34.5c6.6,3.1,5,9.5,5.3,14.9h125.7c3.1-8.2,9.3-12.7,17.4-14.9h7.5c9.9,2.6,16.1,8.9,18.7,18.7
			C392.7,22,392.7,24.5,392.7,27z M193.5,15.8v14.7H208V15.8H193.5z M31.1,15.8c-4,0.1-7.2,3.4-7.3,7.4c0,4.1,3.3,7.5,7.4,7.5
			c4.1,0,7.5-3.3,7.5-7.4c0-0.1,0-0.3,0-0.4C38.5,18.9,35.1,15.7,31.1,15.8z M377.7,23.4c0.1-4-3.1-7.4-7.1-7.6
			c-4.2-0.1-7.6,3.1-7.8,7.3c-0.1,4,3.1,7.4,7.1,7.6C374.1,30.8,377.5,27.6,377.7,23.4z"/>
		<path id="Path_24" d="M8.7,171c2.8-4.2,2.8-4.2,15.9-5.5c2.1-9,3.6-18.2,6.5-26.8c3.8-11,8.6-21.7,13.4-32.4
			c2.3-5.3,6.7-6.9,10.8-4.8s5.1,6.6,2.4,11.6c-7.9,14.5-13.4,30.1-16.4,46.3c-0.4,2-0.6,3.9-1,6.3c2,0,3.9-0.1,5.7,0
			c4.5,0.2,7.6,3.1,7.6,7.6c0.1,10,0.1,20,0,30c0.1,4-3.1,7.3-7.1,7.4c-0.1,0-0.2,0-0.3,0c-10,0.1-20,0-30,0c-3.7,0-5.8-2.4-7.6-5.2
			C8.7,194,8.7,182.5,8.7,171z M23.9,195.4h14.7v-14.5H23.9C23.9,185.9,23.9,190.6,23.9,195.4z"/>
		<path id="Path_25" d="M392.7,205.5c-2.2,4-5.6,5.5-10.2,5.3c-8.6-0.3-17.2-0.1-25.8-0.1c-6.2,0-8.9-2.8-8.9-8.9v-26.2
			c0-7.4,2.4-9.8,9.9-9.8c1.1,0,2.2-0.1,3.4-0.2c-2.4-17.3-7.8-34-15.8-49.5c-0.8-1.6-1.7-3.1-2.4-4.6c-1.7-4-0.3-8.1,3.2-9.9
			c3.4-1.9,7.7-0.7,9.7,2.7c0.1,0.1,0.2,0.3,0.2,0.4c3.9,7.8,8.1,15.6,10.9,23.8c4,12,6.9,24.4,10.5,37.3c4.7,0.7,11.8-2.1,15.4,5.3
			C392.7,182.5,392.7,194,392.7,205.5z M377.4,195.6v-14.7h-14.5v14.7L377.4,195.6z"/>
		<path id="Path_28" fill="#FFFFFF" d="M27.5,0.7C17.6,3.3,11.4,9.6,8.7,19.5V0.8C15,0.7,21.2,0.7,27.5,0.7z"/>
		<path id="Path_29" fill="#FFFFFF" d="M392.7,19.5c-2.6-9.9-8.9-16.1-18.7-18.7h18.7V19.5z"/>
		<path id="Path_30" d="M76.2,83.1c0,4.2-3.3,7.6-7.5,7.6c-4-0.1-7.3-3.3-7.4-7.3c0-4.2,3.3-7.6,7.5-7.6
			C72.8,75.9,76.1,79.1,76.2,83.1z"/>
		<path id="Path_31" d="M340.2,83.3c0,4.1-3.4,7.5-7.5,7.5s-7.5-3.4-7.5-7.5s3.4-7.5,7.5-7.5S340.2,79.2,340.2,83.3z"/>
		<path id="Path_38_1_" fill="#FFFFFF" d="M362.8,23.1c0-4.1,3.4-7.4,7.5-7.4c4.1,0,7.4,3.4,7.4,7.5c0,0.1,0,0.1,0,0.2"/>
	</g>
</g>
</svg>
