<?xml version="1.0" encoding="utf-8"?>
<!-- Generator: Adobe Illustrator 17.1.0, SVG Export Plug-In . SVG Version: 6.00 Build 0)  -->
<!DOCTYPE svg PUBLIC "-//W3C//DTD SVG 1.1//EN" "http://www.w3.org/Graphics/SVG/1.1/DTD/svg11.dtd">
<svg version="1.1" id="Layer_1" xmlns="http://www.w3.org/2000/svg" xmlns:xlink="http://www.w3.org/1999/xlink" x="0px" y="0px"
	 viewBox="0 0 612 792" enable-background="new 0 0 612 792" xml:space="preserve">
<g>
	<g>
		<path d="M600.9,176.2c-1.1,3.8-2,7.6-3.2,11.4c-13.7,42-63.9,57.8-99.2,31.3c-1.4-1.1-2.7-2-3.5-2.7
			c-34.3,34.3-68.5,68.5-102.9,102.9c22.9,34,22.9,68.7-0.5,103.6c1.1,1.2,2.3,2.6,3.5,4c24.6,24.6,49.1,49,73.6,73.7
			c2.6,2.6,4.6,3.8,8.7,2c18.8-8.7,40.9-2.1,52.3,15.1c11.4,17.2,8.9,40.1-6.1,54.3c-14.8,14.2-37.5,15.7-54.2,3.8
			c-16.9-12.2-22.4-34.2-13.4-53c0.5-0.9,0.8-1.7,0.9-2c-27.3-27.3-54.5-54.5-82.1-82c-10.8,7.9-23.7,13.7-38,16.2
			c-1.1,0.2-2.4,3.5-2.4,5.3c-0.2,22.1-0.2,44.3-0.2,66.4c0,10.8,0.2,21.7,0,32.7c0,2.9,0.9,4.3,3.8,5.2c31,8.4,50.7,33.9,49.6,63.6
			c-1.4,35.3-28.4,58.5-54.5,61.5c-0.5,0-0.9,0.6-1.5,0.8c-5.3,0-10.7,0-16,0c-7.9-2.9-16.5-4.7-23.8-8.9
			c-22.3-12.5-35.1-38.2-31.7-62c4-27.9,21.8-48.4,48.5-55.1c3.5-0.9,4.6-2.3,4.4-5.8c-0.3-8.7-0.2-17.6-0.2-26.3
			c0-24,0-48.1-0.2-72c0-1.8-1.7-5.2-2.9-5.5c-14.2-2.4-26.9-8.2-37.5-16c-45.8,45.8-91.3,91.4-137.1,137.1c0.3,0.5,0.8,1.7,1.4,2.9
			c13.4,30.2,2,65.5-26.6,81.8c-28.5,16.3-65,8.5-83.6-18.9c-5.6-8.2-8.1-18.6-11.9-27.9c0-5.6,0-11.4,0-17.1
			c2.7-10.2,5.8-20.3,12.4-29.2c21.7-29.2,62.1-34.8,90.8-12.5c1.2,0.9,2.4,1.8,3.4,2.6c44.9-44.9,89.7-89.7,134.8-134.8
			c-11.3-15.1-17.6-32.4-17.6-51.7c0-19.4,6.1-36.6,18.2-52.8c-4.3-4-8.5-7.8-12.5-11.8c-22-22-44-44-65.9-65.9
			c-2.4-2.4-4.3-3.2-7.8-1.5c-18.8,8.9-40.7,2.6-52.7-14.5c-11.6-16.8-9.5-39.7,5-54c14.7-14.7,37.7-16.6,54.5-4.9
			c16.9,11.8,22.9,34.2,14,52.8c-0.5,1.1-1.1,2-1.2,2.4c27.3,27.5,54.5,54.6,81.8,82c34-23,68.8-23,103.3,0.3
			c34.8-34.8,69.6-69.6,104.5-104.7c-8.1-16-10.1-33.1-3.8-50.5c8.4-23.4,25.2-37.5,49.6-42.4c0.9-0.2,1.7-0.6,2.6-1.1
			c5.3,0,10.7,0,16,0c0.9,0.3,1.7,0.8,2.6,0.9c22.3,4,38.2,16.3,47.6,36.8c2.7,5.8,4,12.2,5.8,18.3
			C600.9,165.5,600.9,170.9,600.9,176.2z M323.9,434.5c35.1,0,64.1-29,63.9-64.1c-0.2-34.9-28.7-63.6-63.6-63.6
			c-35.3-0.2-64.1,28.5-64.3,63.6C259.8,405.5,288.8,434.5,323.9,434.5z M537.1,125.6c-23.7,0-42.6,18.8-42.7,42.4
			c0,23.5,18.9,42.6,42.4,42.7c23.7,0,42.6-18.9,42.6-42.4C579.5,144.5,560.7,125.6,537.1,125.6z M121.3,605.1
			c0.2-23.5-18.9-42.7-42.3-42.9c-23.4-0.2-42.6,18.9-42.7,42.4s18.8,42.7,42.3,42.9C101.9,647.7,121.3,628.4,121.3,605.1z
			 M324,668.7c23.7-0.2,42.4-19.1,42.3-42.7c0-23.5-19.1-42.4-42.7-42.3c-23.5,0-42.4,19.1-42.3,42.7
			C281.4,650,300.4,668.7,324,668.7z M153.5,221.3c11.6-0.2,21.1-9.5,21.2-21.1c0-11.8-9.8-21.5-21.5-21.5
			c-11.6,0.2-21.1,9.6-21.2,21.2C132,211.6,141.6,221.3,153.5,221.3z M494.5,562c11.8-0.2,21.1-9.5,21.1-21.1
			c0-11.8-9.8-21.5-21.5-21.4c-11.4,0.2-21.1,9.8-21.1,21.2C473,552.6,482.6,562.2,494.5,562z"/>
		<path fill="#FFFFFF" d="M600.9,160.2c-1.8-6.1-3.2-12.5-5.8-18.3c-9.5-20.3-25.3-32.7-47.6-36.8c-0.9-0.2-1.7-0.6-2.6-0.9
			c18.6,0,37.4,0,56,0C600.9,122.8,600.9,141.4,600.9,160.2z"/>
	</g>
</g>
</svg>
