<?xml version="1.0" encoding="utf-8"?>
<!-- Generator: Adobe Illustrator 17.1.0, SVG Export Plug-In . SVG Version: 6.00 Build 0)  -->
<!DOCTYPE svg PUBLIC "-//W3C//DTD SVG 1.1//EN" "http://www.w3.org/Graphics/SVG/1.1/DTD/svg11.dtd">
<svg version="1.1" id="Layer_1" xmlns="http://www.w3.org/2000/svg" xmlns:xlink="http://www.w3.org/1999/xlink" x="0px" y="0px"
	 viewBox="0 0 612 792" enable-background="new 0 0 612 792" xml:space="preserve">
<g>
	<g>
		<path d="M16,239.5c0-30.3,0-60.8,0-91c0.5-1.2,0.9-2.4,1.2-3.6c3.9-15,13.1-25.8,27.2-32.1c3.4-1.5,7.3-2.6,11-3.8
			c122.3,0,244.5,0,366.7,0c0.3,0.2,0.6,0.4,0.9,0.6c26.6,7,38.7,22.8,38.8,50.3c0,28.5,0,57,0,85.5c0,2.1,0.2,4.2,0.3,6.8
			c1.6-0.3,2.5-0.5,3.4-0.6c55.7-13.2,110.3,20.3,123.6,75.8c1.1,4.2,1.8,8.3,2.7,12.4c0,7.1,0,14.3,0,21.3c-0.3,1.3-0.9,2.8-1,4.2
			c-2.3,14.7-7.2,28.5-15.8,41.3c-5.3-3.4-10.1-6.6-15.3-10c12.4-20.3,16.7-42,11.3-65c-5.4-22.9-18.4-40.8-38.8-52.8
			c-35-20.9-79.7-13.4-106,17.5c-26.6,31.2-26.8,76.6-0.6,107.9c12.9,15.3,29.3,25.1,49,28.5c28.5,5,53.3-3.3,74.1-22.8
			c4.5,4.5,8.6,8.5,12.9,12.9c-13,13-28.5,21.9-46.2,26.5c-17.7,4.7-35.6,4.2-53.6-0.5c0,32.4,0,64.2,0,96.6c24.8,0,49.2,0,74.1,0
			c0,15.2,0,29.5,0,43.9c0,3.3-0.1,6.8-0.6,10.1c-0.3,2.4-1,4.8-1.8,7c-6.8,20.3-24.3,32-47.9,32c-110.9,0-221.5,0-332.4,0
			c-2.4,0-4.6,0-7.1,0c0,16,0,31.2,0,46.3c-43.3,0-86.7,0-130.5,0c0-31.1,0-62.3,0-93.3c8.7,0,17.4,0,26.3,0
			c-0.2-1.6-0.2-2.7-0.3-3.9c-2.3-18.9-5.8-37.8-6.8-56.9c-2.4-50.5-1.5-101.2,7.4-151.2c1.2-6.9,3.6-14.4,7.6-20.1
			c11.9-16.4,24.9-32,37.2-48c1.5-2,2.5-5,2.5-7.5c0.2-19.8,0.2-39.8,0.2-59.6c0-1.6-0.2-3.3-0.3-4.9
			C65.1,239.5,40.7,239.5,16,239.5z M99.3,127.8c10.2,13.3,9.8,27.6,9.8,41.8c-0.2,35.9,0,71.6,0,107.4c0,2,0.2,3.8,0.3,6.6
			c8.1-6.9,16.5-8.7,25.5-6.1c19.5,5.4,27.1,29.1,15,46.7c-11.1,16-22.5,31.8-34,47.5c-4.8,6.5-7,13.5-6.9,21.5
			c0.2,15.1,0.6,30.4-0.1,45.6c-0.8,13.5,6.3,23.8,12,35.7c10.5-10.7,20.5-20.7,30.6-30.8c7.4-7.4,16.2-10.8,26.6-8.9
			c11.3,2.3,18.9,8.9,22.3,19.8c3.5,11.1,0.8,21.1-7.5,29.4c-20.5,20.7-41.4,41.4-62,62.1c-1.3,1.3-3.3,3.2-3.3,4.8
			c-0.3,13.5-0.1,26.9-0.1,41.1c4.8,0,9,0.3,13.2,0c4.1-0.3,5.7,0.9,5.6,5.3c-0.3,6.6-0.1,13.3-0.1,20.1c10.3-2.8,18-12.8,18.3-23.7
			c0.3-6.8,0.1-13.5,0.1-20.3c0-9.1,0-18.3,0-28.2c93.3,0,185.9,0,278.9,0c0-33.2-0.2-65.6,0.2-98c0-4.2-1.2-6.6-5-8.7
			c-67.8-39.2-67.6-137.4,0.3-176.4c3.4-2,4.6-3.9,4.6-7.8c-0.1-31.5-0.6-63,0.1-94.5c0.5-17.8-10.9-32.7-32.7-32.5
			c-101.1,0.4-202.1,0.2-303.2,0.2C105.6,127.8,103.4,127.8,99.3,127.8z M517.7,564.8c-111.6,0-222.8,0-334.1,0
			c-1.3,18.8,3.3,38.1-9.6,55.2c3.4,0,5.7,0,7.9,0c78,0,156,0,234,0c24.8,0,49.5,0.2,74.3,0c14.9-0.1,26.7-11.3,27.5-25.9
			C518.1,584.6,517.7,574.9,517.7,564.8z M65.6,370.3c-1.8,2.3-3.3,5.3-3.7,8c-3,22.2-7.5,44.5-8.1,66.9
			c-0.9,39.4-2.7,79.1,4.1,118.4c1.6,9.3,2.5,18.8,3.8,28c16,0,31.5,0,47.5,0c0-2.4,0-4.5,0-6.4c0-12.8-0.3-25.5,0.2-38.3
			c0.2-3,1.7-6.6,3.6-8.7c20.6-21,41.6-41.7,62.3-62.5c2-2,4.1-3.9,5.9-6.1c3.4-4.4,3-10.1-0.9-13.8c-3.8-3.6-9.5-3.9-13.8-0.6
			c-1.4,1-2.5,2.3-3.8,3.5c-12.4,12.5-24.9,24.9-37.3,37.4c-1.3,1.4-3.3,3-5,3.1c-6.6,0.3-13.4,0.2-20,0.2
			c-1.7-10.8-1.1-16.8,2.4-19.8c-1.1-2-1.8-4.1-3-6c-7.1-12-9.9-24.8-9.3-38.7c0.6-13.7,0.3-27.3,0-41.1c-0.2-12,3.1-22.8,10.3-32.5
			c11.1-15.3,22.2-30.6,32.9-46.2c2.3-3.3,3.1-8.4,2.7-12.4c-0.3-2.7-3.9-5.9-6.8-6.9c-2-0.8-6,0.9-7.5,2.7 M35.1,611.1
			c0,18.5,0,36.6,0,54.9c30.9,0,61.5,0,92.3,0c0-18.4,0-36.6,0-54.9C96.6,611.1,66.1,611.1,35.1,611.1z M90.3,220.5
			c0-23.1,0.1-45.6-0.2-68.1c0-3-1.3-6.3-2.7-9c-5.6-11.6-18.2-17.7-30.9-15c-11.8,2.4-21.3,12.8-21.6,25.5
			c-0.6,17.4-0.3,34.8-0.3,52.2c0,4.6,0,9.3,0,14.1c1.5,0.1,2.4,0.4,3.3,0.4C55.2,220.5,72.4,220.5,90.3,220.5z"/>
		<path fill="#FFFFFF" d="M55.5,109.1c-3.6,1.2-7.5,2.1-10.9,3.8c-14.1,6.3-23.3,17.1-27.2,32.1c-0.3,1.2-0.8,2.4-1.2,3.6
			c0-13.1,0-26.3,0-39.3C29.3,109.1,42.3,109.1,55.5,109.1z"/>
		<path d="M480.6,285.9c6.3,0,11.9,0,18.5,0c0,5.1,0.1,10,0,15c-0.2,3.4,0.9,5.3,4,7c9.3,5,14,13,14.7,23.8c-6.2,0-11.9,0-18.2,0
			c-0.6-1.2-1.1-2.8-1.9-4.2c-2.4-4-6.1-5.5-10.6-4.2c-4.2,1.2-6.6,4.3-6.5,8.8c0,4.7,2.6,7.8,7.1,8.9c1.8,0.5,3.8,0.5,5.5,0.8
			c12.3,1.6,21.5,10.3,24,22.8c2.1,11-3.1,22.8-13.5,28.5c-3.6,2-5.1,4.2-4.8,8.3c0.4,4.7,0.1,9.3,0.1,14.1c-6.4,0-12.1,0-18.4,0
			c0-5.4-0.2-10.3,0-15.3c0.2-3.1-0.8-5-3.8-6.5c-9.3-4.9-14.3-12.8-14.8-24c6.1,0,12,0,18.1,0c0.3,1.1,0.8,2.3,1.4,3.5
			c2.3,4.5,6,6.3,10.6,5.1c4.8-1.2,7.2-4.7,6.8-9.6c-0.4-5-3.4-7.6-8.4-8.4c-2.3-0.3-4.5-0.3-6.6-0.9c-11.6-2.7-19.8-11.5-21.4-23.1
			c-1.7-11.6,3.6-22.7,14.3-28.2c3.2-1.6,4.2-3.5,4.1-6.9C480.4,296.1,480.6,291.3,480.6,285.9z"/>
		<path d="M554.7,341.8c0,6,0,11.9,0,17.9c-6,0-11.8,0-18,0c0-5.9,0-11.5,0-17.9C542.6,341.8,548.4,341.8,554.7,341.8z"/>
		<path d="M443.4,341.7c0,6,0,11.7,0,17.7c-5.9,0-11.7,0-18,0c0-5.6,0-11.4,0-17.7C431.1,341.7,436.9,341.7,443.4,341.7z"/>
		<path d="M415.3,146.7c0,40.1,0,79.8,0,119.8c-92.7,0-185.2,0-278.1,0c0-39.9,0-79.6,0-119.8C229.8,146.7,322.3,146.7,415.3,146.7z
			 M155.9,165.1c0,27.9,0,55.4,0,82.9c80.4,0,160.5,0,240.9,0c0-27.8,0-55.2,0-82.9C316.3,165.1,236.4,165.1,155.9,165.1z"/>
		<path d="M369,397.3c0,6.2,0,11.7,0,17.9c-61.7,0-123.2,0-185.1,0c0-5.9,0-11.7,0-17.9C245.5,397.3,307,397.3,369,397.3z"/>
		<path d="M267.3,489.6c0-6.1,0-12,0-18c49.4,0,98.3,0,147.8,0c0,5.9,0,11.7,0,18C366,489.6,316.8,489.6,267.3,489.6z"/>
		<path d="M267.2,526.9c0-6.1,0-11.8,0-18c18.4,0,36.6,0,55.2,0c0,6,0,11.9,0,18C303.9,526.9,285.9,526.9,267.2,526.9z"/>
		<path d="M415.2,508.8c0,6.3,0,12,0,18.4c-6,0-11.7,0-17.6,0c-11.1,0-22-0.2-33.2,0c-3.8,0-4.9-1.2-4.8-4.8c0.3-4.5,0-8.8,0-13.6
			C378.6,508.8,396.6,508.8,415.2,508.8z"/>
		<path d="M202.2,323.1c18.4,0,36.8,0,55.4,0c0,6,0,11.7,0,17.9c-18.6,0-36.8,0-55.3,0C202.2,334.8,202.2,329.1,202.2,323.1z"/>
		<path d="M257.4,360.3c0,6,0,11.7,0,17.7c-18.5,0-36.8,0-55.2,0c0-6,0-11.7,0-17.7C220.7,360.3,238.8,360.3,257.4,360.3z"/>
		<path d="M350.1,341.1c-18.4,0-36.3,0-54.8,0c0-6,0-11.8,0-18c18.3,0,36.3,0,54.8,0C350.1,329,350.1,334.7,350.1,341.1z"/>
		<path d="M350.1,360.3c0,6,0,11.7,0,17.9c-18.3,0-36.3,0-54.8,0c0-5.7,0-11.6,0-17.9C313.5,360.3,331.7,360.3,350.1,360.3z"/>
	</g>
</g>
</svg>
