<?xml version="1.0" encoding="utf-8"?>
<!-- Generator: Adobe Illustrator 17.1.0, SVG Export Plug-In . SVG Version: 6.00 Build 0)  -->
<!DOCTYPE svg PUBLIC "-//W3C//DTD SVG 1.1//EN" "http://www.w3.org/Graphics/SVG/1.1/DTD/svg11.dtd">
<svg version="1.1" id="Layer_1" xmlns="http://www.w3.org/2000/svg" xmlns:xlink="http://www.w3.org/1999/xlink" x="0px" y="0px"
	 viewBox="0 0 612 792" enable-background="new 0 0 612 792" xml:space="preserve">
<g>
	<g>
		<path d="M460.5,681.5c-1.8,0-3.7,0-5.5,0c-2.5-2.7-5.5-5.1-7.4-8c-20.2-30.2-40.4-60.5-60.6-90.8c-1.2-1.6-2.2-3.3-3.7-5.5
			c-4.5,7.3-8.5,14.1-12.6,20.9c-5.1,8.3-9.4,9.4-17.4,4c-14.6-9.5-29.1-19.2-43.7-28.8c-3-1.9-4.9-1.9-7.9,0
			c-14.6,9.8-29.4,19.5-44.1,29.1c-7.4,4.9-11.9,3.7-16.6-3.9c-4.2-7-8.3-14-12.9-21.4c-1.6,2.4-2.8,4.2-4.2,5.9
			c-20.1,30.2-40.1,60.2-60.3,90.2c-1.9,3-4.9,5.3-7.4,8c-1.8,0-3.7,0-5.5,0c-4.3-2.2-6.2-5.6-7.1-10.5c-2.7-14.3-5.6-28.4-8.5-42.5
			c-2.7-13.4-5.3-26.7-8.2-40.3c-1.3,0.1-2.1,0.1-2.7,0.3c-29.7,5.3-59.6,10.5-89.1,16.2c-6.5,1.2-11.1-0.1-14.7-5.6
			c0-2.2,0-4.5,0-6.7c0.4-0.4,1-0.9,1.5-1.5c22.6-36.7,45.2-73.2,67.6-109.9c0.7-1.2,1.3-2.5,2.1-4c-3.4-1-6.4-1.9-9.4-3
			c-9.4-3-11.3-7.3-7.7-16.3c6.1-15.9,12.2-31.8,18.6-47.7c1.3-3.3,0.7-5.2-1.8-7.6c-12.8-11.6-25.4-23.5-38-35.2
			c-7-6.5-7-11.1-0.1-17.7c12.6-11.7,25.1-23.6,38-35.2c2.8-2.5,3.3-4.6,1.8-8.2c-6.4-15.7-12.5-31.8-18.6-47.7
			c-3.4-8.8-1.3-13.2,7.7-16c15.9-4.9,31.8-10.1,47.8-14.7c5.5-1.5,7.1-4.3,7.4-9.7c1.2-16.8,2.7-33.7,4.3-50.5
			c0.7-7.3,5.1-10.2,12.3-9.2c17.8,2.4,35.7,4.8,53.5,7.4c3.6,0.6,5.2-0.4,7-3.4c8.6-14.7,17.4-29.4,26.3-43.8
			c1.8-2.8,4.6-5.1,7-7.6c1.8,0,3.7,0,5.5,0c16,10.5,32.2,21.1,48.3,31.8c3.1,2.1,5.2,2.1,8.3,0c16-10.2,32.1-20.8,48.3-31.5
			c1.8,0,3.7,0,5.5,0c2.5,2.7,5.5,5.1,7.4,8c8.9,14.6,17.7,29.1,26.3,43.8c1.5,2.5,3,3.4,6.1,3c18-2.7,35.9-5.1,53.9-7.4
			c7.3-1,11.3,2.1,12.3,9.2c0.3,2.5,0.6,5.2,0.7,7.7c1.3,15.2,2.7,30.3,3.7,45.5c0.3,3.4,1.6,5.1,4.9,6.1
			c16.5,4.9,32.8,10.2,49.3,15.3c9.8,3.1,11.9,7.1,8.2,16.5c-5.9,15.3-11.9,30.7-18,46c-1.6,4.2-1.5,6.8,2.1,10
			c12.6,11.3,24.8,22.9,37.1,34.5c7,6.5,7,11.3,0,17.7c-12.2,11.4-24.2,23-36.8,34c-4,3.6-4.2,6.2-2.4,10.8c6.2,15.3,12,30.6,18,46
			c3.4,8.6,1.2,13.2-7.9,16c-3,0.9-5.8,1.8-9.4,3c23.9,35.9,47.5,71.2,71,106.4c0,1.8,0,3.7,0,5.5c-2.7,5.6-7.1,7.3-13.2,6.7
			c-18.1-1.8-36.2-3.4-54.2-5.1c-12.9-1.2-25.7-2.4-38.9-3.6c-0.3,1.5-0.6,2.2-0.7,3.1c-5.3,26.9-10.8,53.8-16,80.7
			C466.7,675.7,464.6,679.3,460.5,681.5z M357.5,582.4c1-1.5,1.9-2.7,2.7-3.9c8.5-14,16.9-27.9,25.1-42c3-4.9,6.7-7,12.5-5.9
			c5.5,1,11,1.6,16.5,2.4c12.2,1.6,24.5,3.3,37.3,4.9c1.5-17.7,3-34.9,4.5-52c0.6-7.3,2.4-9.7,9.4-11.9c10.8-3.4,21.5-6.7,32.4-10.1
			c6.1-1.9,12.2-3.9,18.6-5.9c-6.5-16.6-12.8-32.7-18.9-48.7c-2.8-7.1-2.2-9.7,3.3-14.9c5.3-5.1,10.8-10.1,16.3-15.2
			c7.4-7,14.9-13.8,22.4-20.9c-13.2-12.3-26-24.2-38.8-36.1c-5.5-5.1-6.1-7.7-3.4-14.9c1.6-4.2,3.3-8.3,4.9-12.5
			c4.6-12,9.4-24.1,14.1-36.5c-17.5-5.5-34.5-10.8-51.5-16c-5.8-1.8-8.6-5.2-8.9-11.1c-0.7-10.4-1.6-20.6-2.5-31
			c-0.6-7.1-1.3-14.3-2.1-21.5c-3,0.3-5.2,0.6-7.3,0.9c-15.4,2.1-30.9,4-46.3,6.4c-5.9,0.9-9.8-1.2-12.8-6.4
			c-5.8-10-11.7-19.8-17.7-29.6c-3.1-5.2-6.2-10.4-9.5-15.9c-13.1,8.6-26.1,16-37.9,25.3c-10.2,8-18.4,7.7-28.5-0.1
			c-11.7-9.2-24.8-16.6-37.6-25.1c-1.3,2.1-2.5,3.9-3.6,5.5c-7.9,13.2-15.9,26.3-23.6,39.7c-3.1,5.3-7,7.7-13.2,6.7
			c-7.3-1.3-14.7-2.1-22-3.1c-10.4-1.3-20.8-2.8-31.6-4.3c-1.5,18-3.1,35.2-4.5,52.3c-0.4,6.2-3.1,9.8-9.2,11.6
			c-13.4,4-26.6,8.2-39.8,12.3c-3.7,1.2-7.6,2.5-11.4,3.9c6.4,16.3,12.5,32.1,18.4,47.8c3.3,8.3,2.7,10.4-3.9,16.6
			c-12.5,11.6-25,23.2-38.5,35.8c1.8,1.3,3.4,2.2,4.9,3.4c11.3,10.4,22.6,20.9,33.9,31.5c6.4,5.9,6.8,8.2,3.7,16.2
			c-6.1,15.9-12.3,31.8-18.6,48c2.4,0.7,4.2,1.5,6.1,2.1c15.2,4.8,30.5,9.7,45.6,14.3c5.5,1.6,8.3,5.1,8.6,10.8
			c0.3,5.5,0.7,11.1,1.3,16.6c1,12,2.1,23.9,3.3,35.9c1.6,0,2.7,0.1,3.7,0c16.5-2.2,33.1-4.5,49.6-7c5.9-0.9,10,0.9,12.9,6.1
			c4,6.8,8.2,13.7,12.3,20.5c5.1,8.3,10.1,16.8,15.3,25.4c14.9-9.8,29.4-19,43.5-28.8c6.1-4.2,11.1-4,17.2,0.1
			C328.4,563.6,343,572.9,357.5,582.4z M158.3,647.3c1.5-1.9,2.1-2.8,2.7-3.7c17.5-26.4,35.1-52.9,52.9-79c2.7-4,2.7-6.7,0.3-10.8
			c-2.4-4.5-5.5-3.3-8.9-2.7c-2.1,0.3-4,0.4-6.1,0.7c-15.3,2.1-30.5,4.3-45.8,6.2c-7.7,0.9-11.1-1.9-12-9.5
			c-0.3-2.5-0.6-5.2-0.7-7.7c-1.3-15-2.7-29.9-3.7-44.9c-0.3-3.7-1.6-5.5-5.3-6.4c-5.3-1.3-10.7-3-15.9-5.1
			c-3.9-1.5-5.8-0.7-7.9,2.8c-18.4,30.3-37,60.3-55.6,90.5c-0.7,1.3-1.5,2.7-2.7,4.9c8.3-1.5,15.9-2.8,23.3-4.2
			c19-3.4,37.9-7,56.9-10.4c9.2-1.6,12.6,0.7,14.6,9.8c0.7,3.3,1.3,6.5,2.1,9.8C150.2,607.1,154.2,626.5,158.3,647.3z M452.8,646.9
			c0.6-2.1,0.9-2.8,1-3.7c4.5-21.8,8.8-43.7,13.2-65.4c1.8-8.5,4.5-10.7,13.1-10c19.5,1.6,38.8,3.6,58.2,5.2
			c7.6,0.7,15.3,1.2,23.2,1.9c-0.3-1.2-0.3-1.6-0.4-1.9c-19.5-29.3-38.8-58.4-58.4-87.5c-0.7-1.2-3.4-1.8-4.9-1.5
			c-5.9,1.5-11.6,3.7-17.5,5.2c-4.2,1-5.6,3.1-5.9,7.3c-1.2,16.3-2.5,32.5-4,48.9c-1,11.4-4.2,14-15.4,12.3
			c-16.8-2.2-33.4-4.6-50.2-7c-2.8-0.4-5.3-1.2-7,2.2c-1.6,3.4-4,5.9-1,10.4c17.8,26.1,35.4,52.7,52.9,79
			C450.2,643.6,451.1,644.8,452.8,646.9z"/>
		<path d="M249,453.3c-1.6,8.3-7.3,9.8-14.6,9.8c-19.5-0.3-38.9,0-58.5-0.1c-9.8,0-12.9-3.1-12.9-13.1c0-45.3,0-90.6,0-135.9
			c0-9.7,3-12.6,12.6-12.6c19.9,0,39.7,0.1,59.6,0c6.2,0,11.6,0.9,13.4,8.6c10.2-8.3,20.4-15.6,29.4-23.9c3.4-3,4.5-8.5,7.1-12.5
			c9.2-14.3,12.8-29.6,11.1-46.5c-0.6-6.2-0.1-12.6-0.1-18.9c0.1-8.2,3.6-11.4,11.6-11.3c25.1,0.6,45,21.5,45.5,48.3
			c0.1,12,0,24.1,0,36.8c2.4,0.1,4.3,0.3,6.2,0.3c18.7,0,37.4,0,56.3,0c15.9,0,25.8,5.9,30.6,18.3c4.6,12.2,1.2,23.3-10.8,34.3
			c6.4,14.9,3.7,27.6-9.7,38c6.8,15.2,3.4,27.8-8,36.8c0.4,8.2,1.9,15.3,0.7,21.8c-2.4,13.2-14.1,21.7-28.5,21.7
			c-44.7,0-89.4,0-134.1,0C253.7,453.3,251.5,453.3,249,453.3z M372.5,377.3c0-6.5,0-12.6,0-19c2.2,0,4,0,5.8,0
			c9.8,0,19.6,0.1,29.6-0.1c2.5,0,5.2-0.6,7.4-1.8c3.9-2.2,4.9-5.9,3.9-10.1c-1.2-4.5-4.3-6.8-8.9-6.8c-9.4-0.1-18.7,0-28.4,0
			c0-6.7,0-12.5,0-19c4.5,0,8.8,0,12.9,0c8.2,0,16.3,0.1,24.5-0.1c5.9-0.1,10.1-4.6,10-9.8c-0.1-5.2-4.2-8.8-10.1-9.1
			c-1.6-0.1-3.3,0-5.1,0c-22.4,0-44.9,0-67.3,0c-9.4,0-12.5-3.1-12.5-12.3c0-6.2,0-12.6,0-18.9c-0.1-10.2,0.1-20.5-0.7-30.6
			c-0.9-10.4-8.9-19.2-18.4-21.4c0,10.5,0.3,20.8-0.1,31c-0.1,4.2-1,8.5-2.8,12.2c-4.9,10.5-10.1,21.1-15.6,31.3
			c-1.6,3.1-4.2,6.2-6.8,8.5c-12.2,10.1-24.5,19.9-37,29.6c-2.8,2.2-4.2,4.5-4.2,8.3c0.1,29.9,0.1,59.7,0.1,89.6c0,1.8,0,3.6,0,5.5
			c3.1,0,5.3,0,7.6,0c43.2,0,86.5,0,129.7,0c1.6,0,3.4,0,5.1,0c5.8-0.3,9.5-4.2,9.5-9.5s-3.7-9.2-9.7-9.4c-7.6-0.1-15.2,0-22.9-0.1
			c-1.8,0-3.6-0.1-5.2-0.3c0-6.5,0-12.5,0-18.7c12,0,23.6,0,35.4,0c7.3,0,11.9-3.7,12-9.5c0-5.8-4.5-9.5-11.9-9.5
			C389.8,377.3,381.3,377.3,372.5,377.3z M182.3,320.7c0,41.3,0,82,0,122.8c15.7,0,31.3,0,47.1,0c0-41.1,0-81.8,0-122.8
			C213.6,320.7,198.2,320.7,182.3,320.7z"/>
	</g>
</g>
</svg>
