<svg xmlns="http://www.w3.org/2000/svg" width="124" height="85.969" viewBox="0 0 124 85.969">
  <g id="Group_1" data-name="Group 1" transform="translate(-1.483 -4.842)">
    <path id="Shape_42" data-name="Shape 42" d="M63.329,39.708A53.308,53.308,0,0,1,24.1,22.663l-.361-.387.361-.387a53.662,53.662,0,0,1,78.459,0l.362.387-.362.387A53.3,53.3,0,0,1,63.329,39.708ZM25.276,22.276A52.18,52.18,0,0,0,63.329,38.583a52.166,52.166,0,0,0,38.046-16.307,52.542,52.542,0,0,0-76.1,0Z" fill="#036"/>
    <path id="Shape_43" data-name="Shape 43" d="M63.664,37.7A15.087,15.087,0,1,1,78.756,22.616,15.109,15.109,0,0,1,63.664,37.7Zm0-29.046A13.96,13.96,0,1,0,77.632,22.616,13.981,13.981,0,0,0,63.664,8.657Z" fill="#036"/>
    <path id="Shape_44" data-name="Shape 44" d="M63.589,12.089A10.4,10.4,0,1,0,74,22.489,10.4,10.4,0,0,0,63.589,12.089Zm0,14.546a4.147,4.147,0,1,1,4.148-4.146A4.149,4.149,0,0,1,63.589,26.635Z" fill="#036"/>
    <g id="ANUBIS">
      <text id="ANUBIS-2" data-name="ANUBIS" transform="translate(1.483 73.946)" fill="#036" font-size="27.403" font-family="CenturyGothic-Bold, Century Gothic" font-weight="700"><tspan x="0" y="0" letter-spacing="0.2em">ANUBI</tspan><tspan y="0">S</tspan></text>
    </g>
    <g id="ENTERTAINMENT">
      <text id="ENTERTAINMENT-2" data-name="ENTERTAINMENT" transform="translate(23.096 88.811)" fill="#036" font-size="7.771" font-family="CenturyGothic, Century Gothic"><tspan x="0" y="0" letter-spacing="0.2em">ENTERTAINMEN</tspan><tspan y="0">T</tspan></text>
    </g>
  </g>
</svg>
