<?xml version="1.0" encoding="utf-8"?>
<!-- Generator: Adobe Illustrator 17.1.0, SVG Export Plug-In . SVG Version: 6.00 Build 0)  -->
<!DOCTYPE svg PUBLIC "-//W3C//DTD SVG 1.1//EN" "http://www.w3.org/Graphics/SVG/1.1/DTD/svg11.dtd">
<svg version="1.1" id="Layer_1" xmlns="http://www.w3.org/2000/svg" xmlns:xlink="http://www.w3.org/1999/xlink" x="0px" y="0px"
	 viewBox="0 0 2118 1145.4" enable-background="new 0 0 2118 1145.4" xml:space="preserve">
<g>
	<defs>
		<rect id="SVGID_1_" y="0" width="2118" height="1145.4"/>
	</defs>
	<clipPath id="SVGID_2_">
		<use xlink:href="#SVGID_1_"  overflow="visible"/>
	</clipPath>
	<path clip-path="url(#SVGID_2_)" fill="#EFF1FD" d="M0,867.4c220.1-22,392-207.8,392-433.7S220.1,22,0,0V867.4z"/>
	<path clip-path="url(#SVGID_2_)" fill="#FFFFFF" d="M17.7,2.1c-2.7-0.4-5.3-0.7-8-1.1L0,49.2v41L17.7,2.1z"/>
	<path clip-path="url(#SVGID_2_)" fill="#FFFFFF" d="M48.7,7.7c-2.6-0.6-5.3-1.1-7.9-1.6L0,209.2v41L48.7,7.7z"/>
	<path clip-path="url(#SVGID_2_)" fill="#FFFFFF" d="M79.3,15.5c-2.6-0.8-5.2-1.5-7.8-2.2L0,369.2v41L79.3,15.5z"/>
	<path clip-path="url(#SVGID_2_)" fill="#FFFFFF" d="M109.4,25.5c-2.5-1-5.1-1.9-7.7-2.8L0,529.2v41L109.4,25.5z"/>
	<path clip-path="url(#SVGID_2_)" fill="#FFFFFF" d="M139,38c-2.5-1.2-5-2.3-7.5-3.4L0,689.2v41L139,38z"/>
	<path clip-path="url(#SVGID_2_)" fill="#FFFFFF" d="M160.8,48.8L0,849.2v18.2c1.6-0.2,3.1-0.3,4.7-0.5L168.2,52.8
		C165.7,51.4,163.2,50.1,160.8,48.8"/>
	<path clip-path="url(#SVGID_2_)" fill="#FFFFFF" d="M196.8,70.3c-2.4-1.6-4.8-3.2-7.3-4.7l-160.3,798c2.9-0.5,5.7-1,8.5-1.5
		L196.8,70.3z"/>
	<path clip-path="url(#SVGID_2_)" fill="#FFFFFF" d="M224.9,90.5c-2.4-1.8-4.7-3.7-7.1-5.5L62.8,856.4c2.9-0.7,5.8-1.5,8.7-2.3
		L224.9,90.5z"/>
	<path clip-path="url(#SVGID_2_)" fill="#FFFFFF" d="M252.3,114c-2.3-2.1-4.6-4.2-7-6.3L97,846.3c3-1,5.9-2.1,8.9-3.1L252.3,114z"/>
	<path clip-path="url(#SVGID_2_)" fill="#FFFFFF" d="M279,140.9c-2.2-2.5-4.5-4.9-6.8-7.3L131.8,832.7c3-1.3,6.1-2.7,9.1-4.1
		L279,140.9z"/>
	<path clip-path="url(#SVGID_2_)" fill="#FFFFFF" d="M304.9,172.2c-2.1-2.9-4.3-5.7-6.5-8.5L167.6,815c3.1-1.7,6.2-3.5,9.3-5.3
		L304.9,172.2z"/>
	<path clip-path="url(#SVGID_2_)" fill="#FFFFFF" d="M329.6,209c-2-3.4-4.1-6.7-6.2-10L204.3,792.1c3.2-2.2,6.4-4.5,9.6-6.9
		L329.6,209z"/>
	<path clip-path="url(#SVGID_2_)" fill="#FFFFFF" d="M352.9,253.1c-1.9-4.1-3.8-8.2-5.8-12.2L242.4,762.4c3.4-3,6.7-6,10-9
		L352.9,253.1z"/>
	<path clip-path="url(#SVGID_2_)" fill="#FFFFFF" d="M373.8,308.9c-1.6-5.3-3.3-10.6-5-15.8l-86.3,429.5c3.7-4.1,7.3-8.4,10.8-12.6
		L373.8,308.9z"/>
	<path clip-path="url(#SVGID_2_)" fill="#FFFFFF" d="M389.8,389.6c-0.8-8.4-1.9-16.7-3.2-24.9l-60,298.9c4.4-7,8.6-14.2,12.6-21.5
		L389.8,389.6z"/>
</g>
<g>
	<defs>
		<path id="SVGID_3_" d="M49.3,1078.2c-16.5,25.8-24.6,48.2-27.9,67.2l284.8-0.3c48.6-32.2,98.5-78.1,144.6-143.1
			c-24.4-10.9-66.5-21.1-119.5-21.1C253.1,981,151.6,1003.2,49.3,1078.2"/>
	</defs>
	<clipPath id="SVGID_4_">
		<use xlink:href="#SVGID_3_"  overflow="visible"/>
	</clipPath>
	
		<linearGradient id="SVGID_5_" gradientUnits="userSpaceOnUse" x1="0" y1="1145.4104" x2="1" y2="1145.4104" gradientTransform="matrix(-446.1347 123.7566 -123.7566 -446.1347 142203.1719 512010.875)">
		<stop  offset="0" style="stop-color:#FF636E"/>
		<stop  offset="1" style="stop-color:#F98D6C"/>
	</linearGradient>
	<polygon clip-path="url(#SVGID_4_)" fill="url(#SVGID_5_)" points="420,870.4 -21,992.7 52,1256 493,1133.6 	"/>
</g>
<g>
	<defs>
		<rect id="SVGID_6_" y="0" width="2118" height="1145.4"/>
	</defs>
	<clipPath id="SVGID_7_">
		<use xlink:href="#SVGID_6_"  overflow="visible"/>
	</clipPath>
	<path clip-path="url(#SVGID_7_)" fill="#FFFFFF" d="M422.5,1011.7c-9.4,2.9-18.7,5.8-28.1,8.7c8,7.9,17,14.7,26.6,20.4
		c-0.8,1-1.6,1.9-2.4,2.9c-10.2-6.1-19.7-13.4-28.2-22c-12.1,3.7-24.2,7.5-36.3,11.2c-0.4,0.4-0.9,0.5-1.5,0.5
		c-10.3,3.2-20.6,6.4-30.8,9.5c-1.1,0.3-2.2,0.7-3.4,1.1c9.3,15.9,24.7,26.6,40.8,34.8c6.1,3.1,12.3,6,18.6,8.6
		c-1.1,1-2.2,2.1-3.3,3.1c-23.9-9.8-47.2-23.5-59.8-45.4c-20.7,6.5-41.2,13.4-61.5,20.7c20.3,28.6,53.3,43.6,85.7,55.5
		c-1.2,0.9-2.3,1.8-3.5,2.7c-32.6-12.2-65.7-27.6-85.9-56.9c-8.9,3.2-17.7,6.6-26.5,10c-0.1,0.1-0.1,0.1-0.2,0.2
		c-0.5,0.6-1.3,0.8-1.9,0.6c-5.4,2.1-10.8,4.3-16.1,6.5c21.6,23.6,46.5,44,73.5,60.7l-7,0c-25.8-16.5-49.4-36.4-70.2-59.1
		c-14.5,6-28.9,12.3-43.1,19c-3.4,1.6-6.7,3.2-10,4.8c6.6,13.4,15.6,25.1,26.1,35.4l-5.2,0c-9.7-9.9-18-21-24.3-33.7
		c-14.4,7-28.7,14.4-42.8,22.1c1.5,4,3.1,7.9,4.9,11.7l-4.2,0c-1.5-3.2-2.8-6.5-4.1-9.9c-5.9,3.3-11.9,6.6-17.7,9.9l-7.6,0
		c4.9-2.8,9.8-5.6,14.8-8.4c21.8-12.2,43.9-23.6,66.4-34.3c21.5-38.9,46.6-75.5,75.1-109.5c2-0.5,4-1,6-1.4
		c-28.4,33.5-53.7,69.8-75.2,108.1c12.9-6,26-11.8,39.2-17.4c0.4-0.9,1.5-1.4,2.5-1.1c6.4-2.7,12.8-5.3,19.2-7.8
		c27.2-32.2,56.1-62.9,86.5-92c1.9-0.1,3.9-0.2,5.8-0.3c-29.8,28.3-58.2,58.1-84.9,89.4c5.4-2.1,10.8-4.2,16.2-6.2
		c34.9-12.9,70.4-24.1,106.1-35c1.1-17.9,8.5-33.2,18.9-46.7c1.5,0.1,2.9,0.3,4.4,0.5c-10.3,13-17.9,27.8-19.4,45
		c22.1-6.7,44.2-13.3,66.3-20.1C423.3,1007.5,424.8,1011,422.5,1011.7"/>
</g>
<g>
	<defs>
		<path id="SVGID_8_" d="M0.4,760.3L0.7,1128c23.6,10.7,41.4,7.3,41.4,7.3c5-7.4,144-182.1,26.2-449.7
			C49.6,698.8,24.2,724,0.4,760.3"/>
	</defs>
	<clipPath id="SVGID_9_">
		<use xlink:href="#SVGID_8_"  overflow="visible"/>
	</clipPath>
	
		<linearGradient id="SVGID_10_" gradientUnits="userSpaceOnUse" x1="0" y1="1145.4843" x2="1" y2="1145.4843" gradientTransform="matrix(94.2687 -441.7464 441.7464 94.2687 -505966.9063 -106852.4766)">
		<stop  offset="0" style="stop-color:#FF636E"/>
		<stop  offset="1" style="stop-color:#F98D6C"/>
	</linearGradient>
	<polygon clip-path="url(#SVGID_9_)" fill="url(#SVGID_10_)" points="178,1176.6 278.6,705.4 8.5,647.7 -92.1,1119 	"/>
</g>
<g>
	<defs>
		<rect id="SVGID_11_" y="0" width="2118" height="1145.4"/>
	</defs>
	<clipPath id="SVGID_12_">
		<use xlink:href="#SVGID_11_"  overflow="visible"/>
	</clipPath>
	<path clip-path="url(#SVGID_12_)" fill="#FFFFFF" d="M0.7,1048.3c0.7-22.8,2.2-45.6,4.4-68.2c-1.5-2.6-3-5.2-4.5-7.8l0-7.5
		c1.7,3,3.4,6.1,5.1,9.1c1.4-13.7,3.1-27.3,5-40.9c-0.5-0.8-0.4-2,0.4-2.6c0.9-6.6,1.9-13.2,3-19.7c-4.8-14-9.3-28.1-13.6-42.2l0-13
		c4.6,16,9.5,31.8,14.8,47.6c0.9-5.5,1.9-11,2.9-16.5c6.6-35.2,14.8-70.1,23.5-104.9c-14.2-9.8-23.2-23.4-29.2-38.7
		c0.8-1.1,1.7-2.3,2.5-3.4c5.7,15,14.1,28.5,27.6,38.3c5.4-21.6,10.8-43.1,16.1-64.7c0.5-2.3,4.2-1.7,3.6,0.5
		c-2.2,9.2-4.5,18.3-6.7,27.5c10.5-2.7,20.6-6.8,30-11.9c0.4,1.1,0.8,2.3,1.2,3.4c-10.1,5.5-20.9,9.7-32.1,12.5
		c-2.9,11.8-5.8,23.7-8.7,35.5c0.1,0.5,0,1-0.3,1.4c-2.5,10.1-4.9,20.1-7.4,30.2c-0.3,1.1-0.5,2.2-0.8,3.3
		c17.8,0.2,34.2-7.3,48.9-16.5c5.6-3.5,11-7.2,16.3-11.1c0.3,1.4,0.7,2.8,1,4.2c-19.9,14.9-42.7,27.4-67.1,27
		c-4.8,20.3-9.3,40.6-13.2,61c33.7-2.6,62.4-22.5,88.2-43.4c0.2,1.4,0.4,2.8,0.5,4.2c-26.2,21-55.3,40.6-89.4,42.9
		c-1.7,8.9-3.3,17.8-4.8,26.8c0,0.1,0.1,0.1,0.1,0.2c0.3,0.8,0,1.4-0.4,1.9c-0.9,5.5-1.8,11-2.6,16.5c35.4-7.3,69.4-20.4,100.5-38.5
		c0,1.4,0,2.8,0,4.1C84.2,912.9,50,925.9,14.5,933.1c-2.2,14.9-4.1,29.9-5.5,45c-0.4,3.6-0.7,7.1-1,10.7
		c37.1,3.1,72.6-13.1,103.7-32.2c-0.2,1.5-0.4,3.1-0.7,4.6c-31.2,18.8-66.3,34.3-103.3,31.2c-1.3,15.4-2.3,30.8-2.9,46.3
		c30.6,5.9,61.3,1.4,90.2-8.9c-0.5,1.5-1,2.9-1.4,4.4c-28.6,9.8-58.9,13.9-88.9,8.2c-0.9,22.4-1,44.9-0.5,67.4
		c8.5-0.4,17,0,25.6-0.3c9.6-0.3,19-2,28.2-4.5c1.7-0.5,3.3-0.9,4.9-1.4c-0.9,1.6-1.8,3.1-2.6,4.5c-1.1,0.3-2.1,0.6-3.2,0.9
		c-17.7,4.6-34.8,3.5-52.8,4.5c0.1,5.5,0.3,10.9,0.6,16.4c-1.2-0.5-2.5-1-3.7-1.6c-0.1-2.5-0.2-5-0.3-7.6L0.7,1048.3z"/>
	<path clip-path="url(#SVGID_12_)" fill="#6883DE" d="M77.4,1145.3l-76.6,0.1l-0.2-170C105,862.7,228,834.1,282.7,836
		C242,1006.9,149.7,1098.1,77.4,1145.3"/>
	<path clip-path="url(#SVGID_12_)" fill="#FFFFFF" d="M6,1091.3c-1.8,2.2-3.5,4.4-5.3,6.6l0-6c14.4-17.7,29.3-35,44.8-51.7
		c5.4-44.1,15-87.5,28.7-129.6c1.7-1.2,3.4-2.4,5.1-3.6c-13.8,41.7-23.7,84.8-29.4,128.4c9.7-10.4,19.7-20.7,29.8-30.7
		c0-0.9,0.9-1.9,1.9-1.9c4.9-4.9,9.9-9.7,14.9-14.5c13.2-40,28.5-79.3,45.8-117.7c1.8-0.8,3.5-1.6,5.2-2.4
		c-17.1,37.4-32.2,75.6-45.3,114.6c4.2-4,8.5-7.9,12.8-11.8c27.5-25,56.3-48.7,85.3-72.1c-5.6-17-4.5-33.9,0-50.4
		c1.4-0.4,2.8-0.8,4.2-1.2c-4.7,16-6.2,32.4-1.1,49c18-14.5,36-28.9,53.9-43.5c1.9-1.5,4.5,1.2,2.6,2.7
		c-7.6,6.2-15.2,12.4-22.8,18.5c10.4,4.3,21.3,7.3,32.3,8.9c-0.4,1.2-0.8,2.4-1.2,3.6c-11.8-1.8-23.3-5.1-34.4-9.8
		c-9.8,8-19.6,16-29.4,24c-0.2,0.5-0.7,0.8-1.2,1c-8.3,6.8-16.7,13.6-25,20.4c-0.9,0.7-1.8,1.5-2.7,2.2c14.6,11.3,32.9,15.4,50.9,17
		c6.8,0.6,13.6,0.9,20.4,1.1c-0.6,1.4-1.2,2.8-1.9,4.1c-25.8-0.2-52.5-4.1-72.5-19.8c-16.7,13.8-33.2,27.8-49.2,42.2
		c29.5,18.9,65.8,20.5,100.2,19.4c-0.7,1.3-1.5,2.5-2.2,3.8c-34.8,0.9-71.3-1.1-100.9-20.6c-7,6.3-13.9,12.7-20.8,19.2
		c0,0.1-0.1,0.2-0.1,0.2c-0.3,0.8-0.9,1.2-1.5,1.3c-4.2,4-8.4,8-12.5,12.1c33.9,16.2,70.3,26.6,107.4,31.3c-0.9,1.2-1.7,2.3-2.6,3.5
		c-37.2-4.9-73.6-15.5-107.6-31.9c-11.2,11-22.1,22.2-32.8,33.8c-2.5,2.7-5,5.5-7.5,8.2c28.8,25.9,68.3,34.7,106.1,38.4
		c-1.1,1.2-2.3,2.3-3.4,3.4c-37.6-4-76.4-13.2-105.1-39c-10.8,11.9-21.2,24.1-31.5,36.5c21.6,24.1,49.9,39.7,80.3,49.3
		c-1.3,0.9-2.6,1.8-3.9,2.7C55,1130.6,27.3,1115,6,1091.3"/>
</g>
<g>
	<defs>
		<path id="SVGID_13_" d="M627.5,1020.6c0-5.3,4.3-9.6,9.6-9.6c5.3,0,9.6,4.3,9.6,9.6s-4.3,9.6-9.6,9.6
			C631.8,1030.2,627.5,1025.9,627.5,1020.6 M619.8,1020.6c0,9.6,7.8,17.3,17.3,17.3s17.3-7.8,17.3-17.3c0-9.6-7.8-17.3-17.3-17.3
			S619.8,1011,619.8,1020.6"/>
	</defs>
	<clipPath id="SVGID_14_">
		<use xlink:href="#SVGID_13_"  overflow="visible"/>
	</clipPath>
	
		<linearGradient id="SVGID_15_" gradientUnits="userSpaceOnUse" x1="0" y1="1145.38" x2="1" y2="1145.38" gradientTransform="matrix(0 24.0645 24.0645 0 -26925.875 1006.4841)">
		<stop  offset="0" style="stop-color:#FF636E"/>
		<stop  offset="1" style="stop-color:#F98D6C"/>
	</linearGradient>
	<rect x="619.8" y="1003.2" clip-path="url(#SVGID_14_)" fill="url(#SVGID_15_)" width="34.7" height="34.7"/>
</g>
<g>
	<defs>
		<path id="SVGID_16_" d="M1509.2,61.1c0-5.3,4.3-9.6,9.6-9.6c5.3,0,9.6,4.3,9.6,9.6c0,5.3-4.3,9.6-9.6,9.6
			C1513.5,70.7,1509.2,66.4,1509.2,61.1 M1501.4,61.1c0,9.6,7.8,17.3,17.3,17.3s17.3-7.8,17.3-17.3s-7.8-17.3-17.3-17.3
			S1501.4,51.5,1501.4,61.1"/>
	</defs>
	<clipPath id="SVGID_17_">
		<use xlink:href="#SVGID_16_"  overflow="visible"/>
	</clipPath>
	
		<linearGradient id="SVGID_18_" gradientUnits="userSpaceOnUse" x1="0" y1="1145.38" x2="1" y2="1145.38" gradientTransform="matrix(0 24.0645 24.0645 0 -26044.2266 46.9927)">
		<stop  offset="0" style="stop-color:#FF636E"/>
		<stop  offset="1" style="stop-color:#F98D6C"/>
	</linearGradient>
	<rect x="1501.4" y="43.8" clip-path="url(#SVGID_17_)" fill="url(#SVGID_18_)" width="34.7" height="34.7"/>
</g>
<g>
	<defs>
		<path id="SVGID_19_" d="M2091,1047.5c0-5.3,4.3-9.6,9.6-9.6c5.3,0,9.6,4.3,9.6,9.6c0,5.3-4.3,9.6-9.6,9.6
			C2095.3,1057.1,2091,1052.8,2091,1047.5 M2083.3,1047.5c0,9.6,7.8,17.3,17.3,17.3c9.6,0,17.3-7.8,17.3-17.3
			c0-9.6-7.8-17.3-17.3-17.3C2091.1,1030.2,2083.3,1038,2083.3,1047.5"/>
	</defs>
	<clipPath id="SVGID_20_">
		<use xlink:href="#SVGID_19_"  overflow="visible"/>
	</clipPath>
	
		<linearGradient id="SVGID_21_" gradientUnits="userSpaceOnUse" x1="0" y1="1145.38" x2="1" y2="1145.38" gradientTransform="matrix(0 24.0645 24.0645 0 -25462.3535 1033.4159)">
		<stop  offset="0" style="stop-color:#FF636E"/>
		<stop  offset="1" style="stop-color:#F98D6C"/>
	</linearGradient>
	<rect x="2083.3" y="1030.2" clip-path="url(#SVGID_20_)" fill="url(#SVGID_21_)" width="34.7" height="34.7"/>
</g>
<g>
	<defs>
		<rect id="SVGID_22_" y="0" width="2118" height="1145.4"/>
	</defs>
	<clipPath id="SVGID_23_">
		<use xlink:href="#SVGID_22_"  overflow="visible"/>
	</clipPath>
	<path clip-path="url(#SVGID_23_)" fill="#6883DE" d="M1401.9,190.7l0-29.3c0-1.2-1-2.2-2.2-2.2s-2.2,1-2.2,2.2l0,29.3
		c0,1.2,1,2.2,2.2,2.2C1400.9,193,1401.9,192,1401.9,190.7"/>
	<path clip-path="url(#SVGID_23_)" fill="#6883DE" d="M1414.3,173.8H1385c-1.2,0-2.2,1-2.2,2.2c0,1.2,1,2.2,2.2,2.2h29.3
		c1.2,0,2.2-1,2.2-2.2C1416.5,174.8,1415.5,173.8,1414.3,173.8"/>
	<path clip-path="url(#SVGID_23_)" fill="#6883DE" d="M899.8,130.6v-22.9c0-1-0.8-1.8-1.8-1.8c-1,0-1.8,0.8-1.8,1.8v22.9
		c0,1,0.8,1.8,1.8,1.8C899.1,132.4,899.8,131.6,899.8,130.6"/>
	<path clip-path="url(#SVGID_23_)" fill="#6883DE" d="M909.5,117.4h-22.9c-1,0-1.8,0.8-1.8,1.8c0,1,0.8,1.8,1.8,1.8h22.9
		c1,0,1.8-0.8,1.8-1.8C911.3,118.2,910.5,117.4,909.5,117.4"/>
	<path clip-path="url(#SVGID_23_)" fill="#6883DE" d="M1008,1096.9V1074c0-1-0.8-1.8-1.8-1.8c-1,0-1.8,0.8-1.8,1.8v22.9
		c0,1,0.8,1.8,1.8,1.8C1007.2,1098.7,1008,1097.9,1008,1096.9"/>
	<path clip-path="url(#SVGID_23_)" fill="#6883DE" d="M1017.7,1083.7h-22.9c-1,0-1.8,0.8-1.8,1.8c0,1,0.8,1.8,1.8,1.8h22.9
		c1,0,1.8-0.8,1.8-1.8C1019.5,1084.5,1018.7,1083.7,1017.7,1083.7"/>
</g>
</svg>
